<?xml version="1.0" encoding="UTF-8" ?>
<!DOCTYPE svg PUBLIC "-//W3C//DTD SVG 1.1//EN" "http://www.w3.org/Graphics/SVG/1.1/DTD/svg11.dtd">
<svg width="667pt" height="586pt" viewBox="0 0 667 586" version="1.1" xmlns="http://www.w3.org/2000/svg">
<path fill="#000000" opacity="1.00" d=" M 367.92 76.92 C 420.93 71.00 475.80 81.25 522.11 107.90 C 612.89 158.84 661.79 277.53 627.91 376.66 C 644.92 381.59 666.21 396.19 658.81 416.70 C 640.48 447.23 598.57 444.84 567.86 450.69 C 520.01 482.84 461.96 496.49 405.02 499.42 C 389.96 523.15 376.53 550.13 377.74 579.04 C 348.19 569.37 328.62 538.08 328.65 507.45 C 321.64 502.73 315.05 492.61 305.60 498.26 C 290.48 522.44 276.46 549.64 277.74 579.04 C 248.27 569.31 228.56 538.06 228.67 507.44 C 213.91 497.29 202.12 481.97 200.63 463.57 C 154.78 438.39 117.69 394.04 111.66 340.86 C 85.82 355.19 61.08 371.97 35.19 385.90 C 26.27 363.69 18.65 340.23 11.12 317.24 C 35.90 311.20 61.09 306.51 85.59 299.47 C 59.69 292.29 33.54 285.91 7.91 277.82 C 18.05 256.08 28.54 234.45 39.08 212.95 C 65.57 228.93 90.57 247.58 116.87 263.99 C 151.71 157.46 259.92 88.97 367.92 76.92 M 340.06 103.11 C 269.64 118.03 202.99 158.26 162.34 218.33 C 133.86 258.15 121.99 310.68 136.84 358.16 C 137.14 358.37 137.73 358.78 138.02 358.99 C 145.70 392.07 170.92 419.30 198.99 437.20 C 193.38 419.88 198.59 401.30 210.04 387.73 C 241.21 361.34 286.47 352.16 311.73 317.73 C 301.73 352.46 266.49 370.03 240.14 391.13 C 227.91 400.76 212.74 413.76 214.26 430.98 C 234.88 406.46 265.20 392.78 295.02 382.99 C 274.23 401.03 249.23 415.41 234.05 439.02 C 224.19 451.34 224.87 473.18 236.64 481.43 C 246.19 434.59 290.19 406.04 329.97 385.93 C 299.83 416.56 265.93 448.18 255.51 491.64 C 252.65 508.38 253.65 526.21 259.68 542.17 C 272.24 469.25 345.78 428.31 367.12 359.15 C 373.98 342.29 371.82 323.91 369.27 306.41 C 382.34 343.30 371.02 383.34 354.79 417.35 L 353.96 417.33 C 343.95 438.05 331.38 457.43 318.94 476.77 C 385.86 483.05 456.10 480.27 518.75 453.62 C 498.53 454.28 478.30 453.77 458.08 454.05 C 450.44 457.12 443.55 466.63 434.44 461.89 C 429.84 457.73 431.21 449.37 437.45 447.42 L 436.71 447.19 C 449.55 441.68 458.83 429.11 461.91 415.62 C 463.94 394.43 451.45 374.19 434.73 362.12 C 430.98 360.15 432.34 355.08 431.93 351.83 C 439.66 342.40 449.63 352.79 456.60 356.98 C 505.39 358.26 554.53 359.62 602.54 369.47 C 608.22 371.99 609.51 364.98 609.89 360.86 C 628.27 303.71 612.81 238.26 579.30 189.38 C 529.26 112.29 427.09 81.35 340.06 103.11 M 477.93 379.06 C 484.70 391.82 485.57 406.03 483.21 420.17 C 481.62 424.35 480.10 428.57 478.85 432.87 C 510.74 433.39 542.83 433.31 574.42 428.36 C 595.82 425.95 619.37 424.24 637.33 411.11 C 642.05 407.98 635.10 404.14 633.18 401.76 L 632.45 402.07 C 603.59 386.24 569.32 386.37 537.53 381.36 C 517.62 381.26 497.89 377.73 477.93 379.06 M 354.07 500.15 C 353.68 514.28 354.51 528.90 359.69 542.21 C 361.21 527.66 367.32 514.42 373.37 501.41 C 367.04 499.83 360.52 499.93 354.07 500.15 Z" />
<path fill="#fbd6db" opacity="1.00" d=" M 340.06 103.11 C 427.09 81.35 529.26 112.29 579.30 189.38 C 499.70 116.96 377.02 107.11 281.11 149.99 C 272.68 136.19 247.70 144.18 252.60 160.85 C 220.04 175.78 190.32 196.13 162.34 218.33 C 202.99 158.26 269.64 118.03 340.06 103.11 M 273.97 130.00 C 357.70 106.80 450.37 106.57 530.07 143.98 C 456.57 90.47 354.51 94.70 273.97 130.00 Z" />
<path fill="#ffffff" opacity="1.00" d=" M 273.97 130.00 C 354.51 94.70 456.57 90.47 530.07 143.98 C 450.37 106.57 357.70 106.80 273.97 130.00 Z" />
<path fill="#f59cb0" opacity="1.00" d=" M 281.11 149.99 C 377.02 107.11 499.70 116.96 579.30 189.38 C 612.81 238.26 628.27 303.71 609.89 360.86 C 607.51 363.79 604.97 366.58 602.54 369.47 C 554.53 359.62 505.39 358.26 456.60 356.98 C 449.63 352.79 439.66 342.40 431.93 351.83 C 432.34 355.08 430.98 360.15 434.73 362.12 C 451.45 374.19 463.94 394.43 461.91 415.62 C 458.83 429.11 449.55 441.68 436.71 447.19 C 409.03 438.35 385.41 415.17 354.79 417.35 C 371.02 383.34 382.34 343.30 369.27 306.41 C 371.82 323.91 373.98 342.29 367.12 359.15 C 345.78 428.31 272.24 469.25 259.68 542.17 C 253.65 526.21 252.65 508.38 255.51 491.64 C 265.93 448.18 299.83 416.56 329.97 385.93 C 290.19 406.04 246.19 434.59 236.64 481.43 C 224.87 473.18 224.19 451.34 234.05 439.02 C 249.23 415.41 274.23 401.03 295.02 382.99 C 265.20 392.78 234.88 406.46 214.26 430.98 C 212.74 413.76 227.91 400.76 240.14 391.13 C 266.49 370.03 301.73 352.46 311.73 317.73 C 286.47 352.16 241.21 361.34 210.04 387.73 C 201.03 386.74 192.48 391.05 183.57 390.78 C 166.05 384.04 152.64 370.24 138.02 358.99 C 137.73 358.78 137.14 358.37 136.84 358.16 C 121.99 310.68 133.86 258.15 162.34 218.33 C 190.32 196.13 220.04 175.78 252.60 160.85 C 259.65 177.33 288.73 168.62 281.11 149.99 M 400.17 182.69 C 396.20 201.93 420.69 214.76 436.67 206.82 C 453.03 202.80 464.32 188.37 479.71 182.97 C 485.10 191.12 480.44 206.31 492.22 210.05 C 512.76 216.24 528.17 197.17 537.90 181.88 C 526.35 187.88 513.45 197.89 499.86 192.47 C 488.74 183.43 503.81 169.51 499.79 159.13 C 477.92 163.62 460.00 179.42 439.17 187.11 C 431.77 190.38 418.91 195.39 415.02 185.48 C 414.32 171.58 424.56 161.27 430.85 149.99 C 418.17 157.85 404.79 167.84 400.17 182.69 M 206.04 191.04 C 185.17 210.83 158.67 235.61 162.68 267.08 C 174.49 274.52 187.18 264.24 197.04 258.03 C 216.44 242.50 233.43 223.05 243.03 199.92 C 245.52 193.02 248.98 181.33 240.84 176.93 C 227.66 173.68 215.97 183.82 206.04 191.04 M 424.96 260.96 C 446.31 232.28 493.49 233.03 515.14 260.86 C 508.97 239.57 485.85 223.70 463.62 228.10 C 445.53 229.66 430.09 243.85 424.96 260.96 M 534.90 263.91 C 550.71 236.86 592.62 236.68 608.02 263.99 C 603.80 247.96 591.60 231.68 573.73 231.01 C 553.92 229.01 540.02 246.67 534.90 263.91 M 462.74 257.48 C 440.41 261.16 422.31 283.71 426.03 306.63 C 427.81 335.16 462.40 355.40 488.09 342.03 C 512.56 332.75 521.90 299.57 507.80 278.14 C 498.84 263.02 480.05 254.42 462.74 257.48 M 563.79 264.45 C 544.53 269.03 533.09 290.72 536.03 309.62 C 535.52 332.34 561.12 354.37 583.03 342.98 C 620.85 327.35 607.73 256.49 563.79 264.45 Z" />
<path fill="#ffffff" opacity="1.00" d=" M 252.60 160.85 C 247.70 144.18 272.68 136.19 281.11 149.99 C 288.73 168.62 259.65 177.33 252.60 160.85 Z" />
<path fill="#ffffff" opacity="1.00" d=" M 400.17 182.69 C 404.79 167.84 418.17 157.85 430.85 149.99 C 424.56 161.27 414.32 171.58 415.02 185.48 C 418.91 195.39 431.77 190.38 439.17 187.11 C 460.00 179.42 477.92 163.62 499.79 159.13 C 503.81 169.51 488.74 183.43 499.86 192.47 C 513.45 197.89 526.35 187.88 537.90 181.88 C 528.17 197.17 512.76 216.24 492.22 210.05 C 480.44 206.31 485.10 191.12 479.71 182.97 C 464.32 188.37 453.03 202.80 436.67 206.82 C 420.69 214.76 396.20 201.93 400.17 182.69 Z" />
<path fill="#ffffff" opacity="1.00" d=" M 206.04 191.04 C 215.97 183.82 227.66 173.68 240.84 176.93 C 248.98 181.33 245.52 193.02 243.03 199.92 C 233.43 223.05 216.44 242.50 197.04 258.03 C 187.18 264.24 174.49 274.52 162.68 267.08 C 158.67 235.61 185.17 210.83 206.04 191.04 Z" />
<path fill="#000000" opacity="1.00" d=" M 424.96 260.96 C 430.09 243.85 445.53 229.66 463.62 228.10 C 485.85 223.70 508.97 239.57 515.14 260.86 C 493.49 233.03 446.31 232.28 424.96 260.96 Z" />
<path fill="#000000" opacity="1.00" d=" M 534.90 263.91 C 540.02 246.67 553.92 229.01 573.73 231.01 C 591.60 231.68 603.80 247.96 608.02 263.99 C 592.62 236.68 550.71 236.86 534.90 263.91 Z" />
<path fill="#ffffff" opacity="1.00" d=" M 462.74 257.48 C 480.05 254.42 498.84 263.02 507.80 278.14 C 521.90 299.57 512.56 332.75 488.09 342.03 C 462.40 355.40 427.81 335.16 426.03 306.63 C 422.31 283.71 440.41 261.16 462.74 257.48 M 479.02 288.49 C 468.02 291.71 462.81 307.29 471.32 315.67 C 478.73 327.88 500.88 322.54 501.55 308.18 C 505.59 295.12 490.94 284.36 479.02 288.49 Z" />
<path fill="#ffffff" opacity="1.00" d=" M 563.79 264.45 C 607.73 256.49 620.85 327.35 583.03 342.98 C 561.12 354.37 535.52 332.34 536.03 309.62 C 533.09 290.72 544.53 269.03 563.79 264.45 M 549.77 290.41 C 538.00 295.43 538.53 316.74 551.44 319.87 C 569.34 320.82 568.12 286.20 549.77 290.41 Z" />
<path fill="#000000" opacity="1.00" d=" M 479.02 288.49 C 490.94 284.36 505.59 295.12 501.55 308.18 C 500.88 322.54 478.73 327.88 471.32 315.67 C 462.81 307.29 468.02 291.71 479.02 288.49 Z" />
<path fill="#000000" opacity="1.00" d=" M 549.77 290.41 C 568.12 286.20 569.34 320.82 551.44 319.87 C 538.53 316.74 538.00 295.43 549.77 290.41 Z" />
<path fill="#f276a0" opacity="1.00" d=" M 138.02 358.99 C 152.64 370.24 166.05 384.04 183.57 390.78 C 192.48 391.05 201.03 386.74 210.04 387.73 C 198.59 401.30 193.38 419.88 198.99 437.20 C 170.92 419.30 145.70 392.07 138.02 358.99 Z" />
<path fill="#f277a0" opacity="1.00" d=" M 602.54 369.47 C 604.97 366.58 607.51 363.79 609.89 360.86 C 609.51 364.98 608.22 371.99 602.54 369.47 Z" />
<path fill="#faaf40" opacity="1.00" d=" M 477.93 379.06 C 497.89 377.73 517.62 381.26 537.53 381.36 C 569.32 386.37 603.59 386.24 632.45 402.07 C 585.12 420.29 533.01 417.24 483.21 420.17 C 485.57 406.03 484.70 391.82 477.93 379.06 M 502.75 385.56 C 498.75 386.13 487.44 387.57 491.15 392.79 C 507.11 398.39 527.93 399.01 542.44 391.01 C 532.30 381.35 515.33 385.72 502.75 385.56 Z" />
<path fill="#ffffff" opacity="1.00" d=" M 502.75 385.56 C 515.33 385.72 532.30 381.35 542.44 391.01 C 527.93 399.01 507.11 398.39 491.15 392.79 C 487.44 387.57 498.75 386.13 502.75 385.56 Z" />
<path fill="#f05a28" opacity="1.00" d=" M 632.45 402.07 L 633.18 401.76 C 635.10 404.14 642.05 407.98 637.33 411.11 C 619.37 424.24 595.82 425.95 574.42 428.36 C 542.83 433.31 510.74 433.39 478.85 432.87 C 480.10 428.57 481.62 424.35 483.21 420.17 C 533.01 417.24 585.12 420.29 632.45 402.07 Z" />
<path fill="#f276a0" opacity="1.00" d=" M 353.96 417.33 L 354.79 417.35 C 385.41 415.17 409.03 438.35 436.71 447.19 L 437.45 447.42 C 431.21 449.37 429.84 457.73 434.44 461.89 C 443.55 466.63 450.44 457.12 458.08 454.05 C 478.30 453.77 498.53 454.28 518.75 453.62 C 456.10 480.27 385.86 483.05 318.94 476.77 C 331.38 457.43 343.95 438.05 353.96 417.33 Z" />
<path fill="#f59cb0" opacity="1.00" d=" M 354.07 500.15 C 360.52 499.93 367.04 499.83 373.37 501.41 C 367.32 514.42 361.21 527.66 359.69 542.21 C 354.51 528.90 353.68 514.28 354.07 500.15 Z" />
</svg>
