<?xml version="1.0" encoding="UTF-8" ?>
<!DOCTYPE svg PUBLIC "-//W3C//DTD SVG 1.1//EN" "http://www.w3.org/Graphics/SVG/1.1/DTD/svg11.dtd">
<svg width="713pt" height="541pt" viewBox="0 0 713 541" version="1.1" xmlns="http://www.w3.org/2000/svg">
<path fill="#000000" opacity="1.00" d=" M 150.89 169.12 C 202.38 62.04 325.66 0.89 441.87 7.06 C 510.16 12.16 577.60 46.14 616.89 103.19 C 643.09 107.25 664.49 126.74 676.05 149.96 C 700.21 197.53 695.55 260.91 659.12 301.07 C 651.70 305.74 648.61 313.75 645.97 321.58 C 666.20 328.57 686.41 335.79 706.25 343.82 C 677.43 348.92 647.83 351.03 619.55 358.30 C 555.32 421.69 458.55 434.64 372.31 431.25 C 354.05 463.11 330.41 495.46 331.68 534.08 C 301.97 524.38 281.53 492.54 281.67 461.70 C 278.45 457.83 274.12 454.82 269.96 451.96 C 255.14 476.92 240.56 504.12 241.68 534.09 C 211.75 524.42 191.92 492.51 191.62 461.68 C 175.63 449.71 160.79 431.47 163.68 409.95 C 156.96 411.41 151.20 415.61 144.45 417.02 C 141.75 408.13 136.45 400.28 133.93 391.36 C 142.25 388.18 150.36 384.43 158.54 380.96 C 157.42 368.79 160.16 357.11 166.82 346.88 C 151.70 326.05 140.76 302.22 135.64 276.90 C 123.04 282.44 111.40 289.91 99.14 296.15 C 109.17 281.81 119.37 267.56 128.82 252.83 C 96.15 266.15 64.25 281.45 31.24 294.03 C 24.19 269.01 13.31 245.22 6.27 220.19 C 44.08 215.77 81.76 209.87 119.45 204.93 C 83.66 195.27 47.83 185.66 11.89 176.51 C 14.86 167.77 18.94 159.33 23.28 151.21 C 29.58 148.43 36.54 147.57 43.13 145.64 C 41.42 138.16 30.92 132.08 36.05 124.10 C 40.99 114.44 45.77 104.69 50.29 94.81 C 84.34 118.76 117.22 144.58 150.89 169.12 M 462.68 32.38 C 447.89 41.90 433.87 53.80 423.23 67.88 C 387.19 106.30 367.96 159.98 365.42 212.45 C 346.99 169.72 342.08 122.04 348.06 76.03 L 348.87 75.84 C 350.20 61.62 356.23 48.60 359.93 35.00 C 350.81 36.84 341.20 38.64 332.90 42.87 C 322.64 55.67 314.07 70.32 308.97 85.95 L 308.18 86.16 C 296.53 119.49 296.55 156.03 304.92 190.13 C 283.60 165.85 269.87 135.28 262.94 103.88 C 261.99 94.90 262.01 85.85 261.70 76.84 C 245.04 82.17 240.62 98.32 240.92 114.06 C 239.52 143.09 247.54 172.13 263.81 196.20 C 239.36 181.88 218.91 160.00 207.35 134.01 C 205.89 131.85 206.57 126.08 203.44 126.61 C 197.52 133.89 191.43 141.18 186.70 149.30 C 158.28 188.61 145.74 242.10 161.10 288.92 C 164.24 304.47 173.28 318.00 181.45 331.28 C 188.23 327.63 194.44 323.07 200.99 319.05 C 227.87 304.39 258.08 292.28 276.75 266.74 C 266.96 299.71 235.12 317.79 209.41 337.42 C 194.80 348.50 175.36 361.91 177.28 382.71 C 197.74 357.50 228.83 343.84 259.01 333.96 C 235.93 353.56 208.15 369.93 193.47 397.38 C 186.61 409.24 189.99 426.12 199.02 434.63 C 209.77 387.51 253.74 357.03 294.95 336.95 C 265.92 367.02 233.03 397.43 220.89 438.85 C 213.99 457.40 216.82 477.93 223.30 496.19 C 237.26 419.84 316.02 377.32 335.14 303.11 C 340.02 287.69 337.32 271.41 336.26 255.64 C 346.62 288.43 340.47 324.11 326.75 354.95 C 320.02 370.72 311.41 385.52 302.71 400.25 C 336.99 408.88 372.41 411.27 407.65 410.73 C 467.81 409.24 530.86 398.43 581.28 363.45 C 560.67 365.00 540.41 371.38 519.76 371.19 C 526.55 351.37 534.18 331.86 541.13 312.09 C 533.34 318.53 524.28 322.81 515.36 327.35 C 488.47 336.22 457.39 331.77 435.01 314.00 C 368.40 263.09 375.09 143.39 451.57 105.02 C 485.44 89.59 527.64 98.68 551.90 127.11 C 552.66 128.11 553.43 129.11 554.21 130.11 C 560.91 122.64 569.15 117.01 577.15 111.10 C 578.29 110.52 579.35 109.79 580.42 109.08 C 583.85 107.19 595.36 108.18 590.20 102.70 C 557.77 65.58 511.98 38.09 462.68 32.38 M 441.36 138.66 C 399.49 178.28 400.89 253.08 442.77 292.23 C 458.54 306.98 483.91 316.08 504.25 306.97 C 528.83 302.18 542.85 279.14 555.76 259.89 C 560.51 266.80 564.33 274.35 570.18 280.47 C 580.37 296.63 606.49 309.34 625.21 298.21 C 651.81 287.43 663.72 256.98 668.73 230.58 C 670.32 201.38 666.94 168.85 647.47 145.53 C 634.76 128.18 609.24 118.03 589.48 129.58 C 572.59 136.80 564.74 153.99 554.92 168.26 C 543.85 148.35 528.18 129.75 506.19 121.85 C 483.77 113.81 457.44 121.86 441.36 138.66 M 563.16 313.12 C 559.62 324.11 555.03 334.73 551.86 345.85 C 575.72 342.87 599.42 338.77 623.20 335.15 C 603.19 327.79 583.26 320.21 563.16 313.12 M 289.54 435.39 C 290.88 430.21 292.11 425.00 292.84 419.70 C 286.18 422.24 282.26 430.99 289.54 435.39 M 316.00 424.96 C 305.23 447.17 304.18 473.19 313.30 496.19 C 317.36 471.50 329.60 448.84 344.27 428.87 C 334.86 427.43 325.35 426.78 316.00 424.96 Z" />
<path fill="#fbd6db" opacity="1.00" d=" M 462.68 32.38 C 511.98 38.09 557.77 65.58 590.20 102.70 C 595.36 108.18 583.85 107.19 580.42 109.08 C 533.85 79.53 477.78 68.56 423.23 67.88 C 433.87 53.80 447.89 41.90 462.68 32.38 Z" />
<path fill="#fbd6db" opacity="1.00" d=" M 332.90 42.87 C 341.20 38.64 350.81 36.84 359.93 35.00 C 356.23 48.60 350.20 61.62 348.87 75.84 L 348.06 76.03 C 334.91 78.89 321.93 82.39 308.97 85.95 C 314.07 70.32 322.64 55.67 332.90 42.87 Z" />
<path fill="#efb7c0" opacity="1.00" d=" M 365.42 212.45 C 367.96 159.98 387.19 106.30 423.23 67.88 C 477.78 68.56 533.85 79.53 580.42 109.08 C 579.35 109.79 578.29 110.52 577.15 111.10 C 567.57 114.40 559.38 120.42 551.90 127.11 C 527.64 98.68 485.44 89.59 451.57 105.02 C 423.47 113.61 403.66 138.83 393.36 165.35 C 371.95 222.20 381.03 297.54 433.21 334.79 C 458.22 351.42 493.70 348.22 515.36 327.35 C 524.28 322.81 533.34 318.53 541.13 312.09 C 534.18 331.86 526.55 351.37 519.76 371.19 C 503.30 375.73 486.58 380.61 469.39 380.78 C 439.17 375.20 415.69 349.21 384.38 348.18 C 365.42 352.75 346.10 367.89 326.75 354.95 C 340.47 324.11 346.62 288.43 336.26 255.64 C 337.32 271.41 340.02 287.69 335.14 303.11 C 316.02 377.32 237.26 419.84 223.30 496.19 C 216.82 477.93 213.99 457.40 220.89 438.85 C 233.03 397.43 265.92 367.02 294.95 336.95 C 253.74 357.03 209.77 387.51 199.02 434.63 C 189.99 426.12 186.61 409.24 193.47 397.38 C 208.15 369.93 235.93 353.56 259.01 333.96 C 228.83 343.84 197.74 357.50 177.28 382.71 C 175.36 361.91 194.80 348.50 209.41 337.42 C 235.12 317.79 266.96 299.71 276.75 266.74 C 258.08 292.28 227.87 304.39 200.99 319.05 C 186.37 310.89 173.50 300.05 161.10 288.92 C 145.74 242.10 158.28 188.61 186.70 149.30 C 194.00 144.83 201.33 140.16 207.35 134.01 C 218.91 160.00 239.36 181.88 263.81 196.20 C 247.54 172.13 239.52 143.09 240.92 114.06 C 248.32 110.79 255.58 107.23 262.94 103.88 C 269.87 135.28 283.60 165.85 304.92 190.13 C 296.55 156.03 296.53 119.49 308.18 86.16 L 308.97 85.95 C 321.93 82.39 334.91 78.89 348.06 76.03 C 342.08 122.04 346.99 169.72 365.42 212.45 M 355.93 296.66 C 347.10 298.59 351.07 310.76 358.48 311.05 C 371.07 311.58 385.51 306.38 392.22 295.26 C 380.24 295.57 367.34 292.85 355.93 296.66 M 365.50 331.74 C 361.82 341.45 375.86 341.70 381.56 341.03 C 397.55 340.91 401.63 321.72 402.01 309.05 C 388.91 314.74 375.26 321.13 365.50 331.74 Z" />
<path fill="#fbd6db" opacity="1.00" d=" M 240.92 114.06 C 240.62 98.32 245.04 82.17 261.70 76.84 C 262.01 85.85 261.99 94.90 262.94 103.88 C 255.58 107.23 248.32 110.79 240.92 114.06 Z" />
<path fill="#db5c87" opacity="1.00" d=" M 393.36 165.35 C 403.66 138.83 423.47 113.61 451.57 105.02 C 375.09 143.39 368.40 263.09 435.01 314.00 C 457.39 331.77 488.47 336.22 515.36 327.35 C 493.70 348.22 458.22 351.42 433.21 334.79 C 381.03 297.54 371.95 222.20 393.36 165.35 Z" />
<path fill="#db5d88" opacity="1.00" d=" M 551.90 127.11 C 559.38 120.42 567.57 114.40 577.15 111.10 C 569.15 117.01 560.91 122.64 554.21 130.11 C 553.43 129.11 552.66 128.11 551.90 127.11 Z" />
<path fill="#ffffff" opacity="1.00" d=" M 441.36 138.66 C 457.44 121.86 483.77 113.81 506.19 121.85 C 528.18 129.75 543.85 148.35 554.92 168.26 C 564.74 153.99 572.59 136.80 589.48 129.58 C 609.24 118.03 634.76 128.18 647.47 145.53 C 666.94 168.85 670.32 201.38 668.73 230.58 C 663.72 256.98 651.81 287.43 625.21 298.21 C 606.09 295.72 592.16 281.23 580.99 266.76 C 577.30 271.26 573.57 275.73 570.18 280.47 C 564.33 274.35 560.51 266.80 555.76 259.89 C 542.85 279.14 528.83 302.18 504.25 306.97 C 482.74 304.48 463.34 291.65 450.14 274.86 C 420.08 236.40 418.82 181.05 441.36 138.66 M 514.90 190.81 C 503.76 207.00 503.65 231.40 516.36 246.72 C 535.40 263.18 556.66 209.71 528.08 215.86 C 531.37 210.97 536.37 207.08 538.80 201.65 C 539.17 189.92 523.52 180.25 514.90 190.81 M 633.50 189.90 C 621.54 204.56 621.01 229.46 633.28 244.03 C 648.02 249.48 651.09 227.60 651.09 217.24 C 647.13 215.30 634.97 217.55 643.03 210.96 C 653.96 204.41 645.64 184.76 633.50 189.90 Z" />
<path fill="#fbd6db" opacity="1.00" d=" M 203.44 126.61 C 206.57 126.08 205.89 131.85 207.35 134.01 C 201.33 140.16 194.00 144.83 186.70 149.30 C 191.43 141.18 197.52 133.89 203.44 126.61 Z" />
<path fill="#d0d2d3" opacity="1.00" d=" M 442.77 292.23 C 400.89 253.08 399.49 178.28 441.36 138.66 C 418.82 181.05 420.08 236.40 450.14 274.86 C 463.34 291.65 482.74 304.48 504.25 306.97 C 483.91 316.08 458.54 306.98 442.77 292.23 Z" />
<path fill="#000000" opacity="1.00" d=" M 514.90 190.81 C 523.52 180.25 539.17 189.92 538.80 201.65 C 536.37 207.08 531.37 210.97 528.08 215.86 C 556.66 209.71 535.40 263.18 516.36 246.72 C 503.65 231.40 503.76 207.00 514.90 190.81 Z" />
<path fill="#000000" opacity="1.00" d=" M 633.50 189.90 C 645.64 184.76 653.96 204.41 643.03 210.96 C 634.97 217.55 647.13 215.30 651.09 217.24 C 651.09 227.60 648.02 249.48 633.28 244.03 C 621.01 229.46 621.54 204.56 633.50 189.90 Z" />
<path fill="#d0d2d3" opacity="1.00" d=" M 570.18 280.47 C 573.57 275.73 577.30 271.26 580.99 266.76 C 592.16 281.23 606.09 295.72 625.21 298.21 C 606.49 309.34 580.37 296.63 570.18 280.47 Z" />
<path fill="#db5c87" opacity="1.00" d=" M 161.10 288.92 C 173.50 300.05 186.37 310.89 200.99 319.05 C 194.44 323.07 188.23 327.63 181.45 331.28 C 173.28 318.00 164.24 304.47 161.10 288.92 Z" />
<path fill="#000000" opacity="1.00" d=" M 355.93 296.66 C 367.34 292.85 380.24 295.57 392.22 295.26 C 385.51 306.38 371.07 311.58 358.48 311.05 C 351.07 310.76 347.10 298.59 355.93 296.66 Z" />
<path fill="#000000" opacity="1.00" d=" M 365.50 331.74 C 375.26 321.13 388.91 314.74 402.01 309.05 C 401.63 321.72 397.55 340.91 381.56 341.03 C 375.86 341.70 361.82 341.45 365.50 331.74 Z" />
<path fill="#f05a28" opacity="1.00" d=" M 563.16 313.12 C 583.26 320.21 603.19 327.79 623.20 335.15 C 599.42 338.77 575.72 342.87 551.86 345.85 C 555.03 334.73 559.62 324.11 563.16 313.12 Z" />
<path fill="#db5c87" opacity="1.00" d=" M 326.75 354.95 C 346.10 367.89 365.42 352.75 384.38 348.18 C 415.69 349.21 439.17 375.20 469.39 380.78 C 486.58 380.61 503.30 375.73 519.76 371.19 C 540.41 371.38 560.67 365.00 581.28 363.45 C 530.86 398.43 467.81 409.24 407.65 410.73 C 372.41 411.27 336.99 408.88 302.71 400.25 C 311.41 385.52 320.02 370.72 326.75 354.95 Z" />
<path fill="#efb7c0" opacity="1.00" d=" M 289.54 435.39 C 282.26 430.99 286.18 422.24 292.84 419.70 C 292.11 425.00 290.88 430.21 289.54 435.39 Z" />
<path fill="#efb7c0" opacity="1.00" d=" M 316.00 424.96 C 325.35 426.78 334.86 427.43 344.27 428.87 C 329.60 448.84 317.36 471.50 313.30 496.19 C 304.18 473.19 305.23 447.17 316.00 424.96 Z" />
</svg>
