<?xml version="1.0" encoding="UTF-8" ?>
<!DOCTYPE svg PUBLIC "-//W3C//DTD SVG 1.1//EN" "http://www.w3.org/Graphics/SVG/1.1/DTD/svg11.dtd">
<svg width="712pt" height="520pt" viewBox="0 0 712 520" version="1.1" xmlns="http://www.w3.org/2000/svg">
<path fill="#000000" opacity="1.00" d=" M 442.13 26.67 C 453.44 -1.73 496.23 3.90 514.69 22.27 C 530.95 38.76 522.27 66.14 507.87 81.21 C 538.35 91.84 568.59 105.54 593.02 127.28 C 605.07 120.08 602.04 102.28 592.86 94.10 C 584.16 86.16 571.38 86.10 561.80 79.57 C 557.17 67.13 567.37 52.66 580.76 53.14 C 607.89 50.54 640.32 73.82 635.63 103.33 C 631.69 118.90 618.63 129.89 604.93 137.09 C 609.88 143.79 616.43 149.19 621.42 155.91 C 640.27 151.97 657.63 142.50 676.58 139.10 C 683.12 157.11 692.40 174.13 698.14 192.41 C 691.91 194.02 685.77 195.92 679.80 198.28 C 717.10 250.60 713.25 330.67 664.56 374.62 C 636.68 444.35 561.19 478.97 491.35 490.29 C 427.95 502.27 362.09 498.34 299.53 484.33 C 276.06 493.78 253.23 505.29 229.51 513.93 C 226.61 505.13 221.47 497.17 219.06 488.21 C 232.86 482.34 247.88 476.08 260.62 470.12 C 250.41 464.39 237.97 460.13 227.97 453.05 C 204.37 461.69 182.13 474.08 158.28 481.92 C 154.36 473.85 151.42 465.32 147.80 457.11 C 165.16 448.49 183.27 441.33 201.09 433.64 C 172.35 407.82 153.29 371.67 148.74 333.24 C 107.52 335.97 63.87 338.95 25.06 321.96 C 15.91 317.27 1.32 309.02 7.16 296.40 C 28.94 285.51 54.32 285.68 78.10 283.84 C 72.20 270.05 69.89 255.21 70.86 240.24 C 57.30 230.22 42.46 221.32 31.68 208.11 C 27.59 202.54 31.33 194.29 37.79 192.73 C 55.89 185.29 74.74 193.48 92.63 196.96 C 95.87 194.38 98.57 191.20 101.47 188.26 C 99.28 144.94 139.25 106.30 182.16 107.25 C 193.06 104.89 204.87 113.83 214.90 106.88 C 238.75 94.37 266.72 98.42 290.88 107.70 C 352.38 77.39 424.03 62.32 491.74 77.89 C 503.94 59.14 480.03 38.10 460.98 44.03 C 449.23 48.27 437.21 39.69 442.13 26.67 M 268.89 146.10 C 273.32 151.06 277.68 156.09 282.01 161.14 L 282.69 160.80 C 285.27 164.72 288.18 168.40 290.99 172.16 L 291.38 171.54 C 292.40 173.35 293.38 175.19 294.34 177.05 L 295.12 176.88 C 321.63 213.64 341.55 255.14 354.05 298.70 C 294.24 316.45 232.99 333.72 169.90 330.10 C 171.72 337.97 171.21 346.67 175.07 353.92 C 182.21 384.51 203.76 410.12 228.82 428.18 C 294.48 473.28 378.72 479.80 455.92 473.96 C 522.06 467.15 595.29 446.65 634.00 388.04 C 609.99 391.90 585.10 381.63 569.75 362.99 C 564.57 367.95 559.44 372.95 554.16 377.80 C 544.30 385.49 532.85 390.64 521.31 395.22 C 489.09 402.06 454.44 389.90 433.41 364.59 C 391.37 316.13 393.52 237.09 436.90 190.14 C 435.28 189.49 433.67 188.84 432.06 188.18 C 425.41 185.99 418.64 184.12 412.05 181.79 C 416.63 163.84 424.46 146.79 429.29 128.87 C 475.59 142.78 521.40 158.56 567.28 173.87 C 575.96 172.92 584.00 168.94 592.29 166.34 C 594.86 165.52 597.44 164.69 600.03 163.87 C 585.64 147.44 568.41 133.42 549.55 122.45 C 462.44 71.92 349.21 90.33 268.89 146.10 M 235.67 121.28 C 245.07 132.56 256.49 132.87 266.57 122.51 C 256.67 118.90 245.90 119.53 235.67 121.28 M 122.95 175.93 C 137.89 171.62 153.24 168.76 168.88 169.64 C 187.87 172.68 206.64 177.20 223.98 185.74 C 227.18 187.17 230.38 188.61 233.59 190.03 C 264.10 207.79 291.76 230.30 316.17 255.83 C 302.03 225.88 286.30 195.38 262.61 171.91 C 260.90 166.32 255.29 163.31 251.25 159.56 C 245.81 154.12 239.66 149.45 233.26 145.21 C 226.18 140.99 219.04 136.77 211.29 133.91 C 204.70 131.53 198.00 129.05 190.87 129.13 L 190.82 127.90 C 160.30 123.98 129.51 146.03 122.95 175.93 M 125.03 198.25 C 126.80 205.27 130.96 211.98 136.00 217.10 C 147.59 231.58 164.51 241.48 181.62 248.08 C 220.06 265.04 262.47 272.01 304.20 274.80 C 278.29 246.69 248.17 220.15 213.14 204.44 C 211.74 203.64 210.35 202.83 208.95 202.04 C 192.18 196.14 175.29 189.09 157.00 190.92 C 146.03 191.16 135.09 193.94 125.03 198.25 M 461.28 198.25 C 458.97 199.11 457.24 201.02 456.03 203.09 C 409.86 245.22 414.91 331.17 467.89 366.14 C 482.78 374.46 502.47 379.46 518.17 372.01 C 542.14 367.25 556.75 345.04 569.03 325.82 C 575.07 331.21 577.43 339.61 583.08 345.43 C 595.39 362.21 618.77 373.94 638.97 363.78 C 693.44 333.46 696.15 250.32 657.48 205.74 C 630.31 213.68 603.71 223.70 576.44 231.51 C 567.05 235.05 557.65 229.53 548.59 227.42 C 520.04 216.08 490.26 208.33 461.28 198.25 M 92.88 255.89 C 92.15 265.35 96.87 273.59 101.96 281.11 C 118.19 300.54 144.59 307.08 168.79 308.87 C 209.86 311.45 250.55 304.49 290.28 294.79 C 250.68 290.97 211.36 283.32 174.19 268.81 C 147.65 256.49 121.03 239.93 107.67 212.76 C 97.52 224.35 90.35 240.38 92.88 255.89 Z" />
<path fill="#ff6699" opacity="1.00" d=" M 268.89 146.10 C 349.21 90.33 462.44 71.92 549.55 122.45 C 568.41 133.42 585.64 147.44 600.03 163.87 C 597.44 164.69 594.86 165.52 592.29 166.34 C 501.80 101.67 377.90 111.69 282.69 160.80 L 282.01 161.14 C 277.68 156.09 273.32 151.06 268.89 146.10 M 307.53 127.61 C 393.61 102.19 490.91 101.32 572.02 143.02 C 496.63 85.62 390.94 90.61 307.53 127.61 Z" />
<path fill="#ffffff" opacity="1.00" d=" M 307.53 127.61 C 390.94 90.61 496.63 85.62 572.02 143.02 C 490.91 101.32 393.61 102.19 307.53 127.61 Z" />
<path fill="#797979" opacity="0.48" d=" M 235.67 121.28 C 245.90 119.53 256.67 118.90 266.57 122.51 C 256.49 132.87 245.07 132.56 235.67 121.28 Z" />
<path fill="#ec1c24" opacity="1.00" d=" M 282.69 160.80 C 377.90 111.69 501.80 101.67 592.29 166.34 C 584.00 168.94 575.96 172.92 567.28 173.87 C 521.40 158.56 475.59 142.78 429.29 128.87 C 424.46 146.79 416.63 163.84 412.05 181.79 C 418.64 184.12 425.41 185.99 432.06 188.18 C 393.70 232.02 386.63 297.85 407.98 351.04 C 418.83 378.53 440.73 404.79 471.15 410.21 C 489.25 413.66 507.36 406.36 521.31 395.22 C 532.85 390.64 544.30 385.49 554.16 377.80 C 567.03 390.25 581.47 403.22 601.02 401.74 C 567.02 426.50 526.51 443.19 484.34 445.82 C 456.17 440.93 434.00 419.72 406.18 413.51 C 388.32 410.27 375.05 427.26 357.34 425.01 C 337.99 423.82 323.70 406.82 304.35 406.11 C 296.15 407.99 288.38 414.58 279.48 410.83 C 267.50 404.32 261.63 390.49 249.43 384.26 C 238.34 379.89 227.17 391.28 216.37 384.92 C 201.07 376.88 187.74 365.55 175.07 353.92 C 171.21 346.67 171.72 337.97 169.90 330.10 C 232.99 333.72 294.24 316.45 354.05 298.70 C 341.55 255.14 321.63 213.64 295.12 176.88 C 304.31 175.29 319.04 172.90 318.97 160.67 C 308.68 158.26 296.59 161.80 291.38 171.54 L 290.99 172.16 C 288.18 168.40 285.27 164.72 282.69 160.80 M 360.76 142.54 C 352.75 143.96 337.70 147.64 339.58 158.12 C 351.58 167.66 371.57 163.99 383.06 154.60 C 387.72 141.80 368.43 140.88 360.76 142.54 M 369.11 167.14 C 370.87 180.45 396.74 179.77 401.12 169.10 C 394.55 159.02 378.52 162.29 369.11 167.14 M 333.76 170.48 C 327.86 172.30 317.84 174.74 319.03 182.57 C 327.36 188.85 340.72 183.91 347.25 177.04 C 350.83 169.62 337.92 168.72 333.76 170.48 M 369.10 362.09 C 362.27 363.71 364.35 375.05 370.83 375.58 C 383.91 377.32 398.70 371.40 406.24 360.26 C 394.00 360.66 380.83 357.72 369.10 362.09 M 379.04 397.16 C 374.35 405.78 389.97 406.72 394.71 405.98 C 411.56 406.58 415.21 386.87 415.86 373.92 C 403.02 380.39 388.46 385.89 379.04 397.16 Z" />
<path fill="#797979" opacity="0.48" d=" M 122.95 175.93 C 129.51 146.03 160.30 123.98 190.82 127.90 L 190.87 129.13 C 189.34 129.06 187.80 129.03 186.27 129.00 C 177.06 140.80 170.35 154.61 168.88 169.64 C 153.24 168.76 137.89 171.62 122.95 175.93 Z" />
<path fill="#7a7a7a" opacity="1.00" d=" M 186.27 129.00 C 187.80 129.03 189.34 129.06 190.87 129.13 C 198.00 129.05 204.70 131.53 211.29 133.91 C 201.49 142.60 193.48 153.68 190.70 166.67 C 207.48 165.13 223.62 160.12 233.26 145.21 C 239.66 149.45 245.81 154.12 251.25 159.56 C 241.24 167.25 231.67 175.67 223.98 185.74 C 206.64 177.20 187.87 172.68 168.88 169.64 C 170.35 154.61 177.06 140.80 186.27 129.00 Z" />
<path fill="#bababa" opacity="0.73" d=" M 211.29 133.91 C 219.04 136.77 226.18 140.99 233.26 145.21 C 223.62 160.12 207.48 165.13 190.70 166.67 C 193.48 153.68 201.49 142.60 211.29 133.91 Z" />
<path fill="#660000" opacity="1.00" d=" M 360.76 142.54 C 368.43 140.88 387.72 141.80 383.06 154.60 C 371.57 163.99 351.58 167.66 339.58 158.12 C 337.70 147.64 352.75 143.96 360.76 142.54 Z" />
<path fill="#660000" opacity="1.00" d=" M 291.38 171.54 C 296.59 161.80 308.68 158.26 318.97 160.67 C 319.04 172.90 304.31 175.29 295.12 176.88 L 294.34 177.05 C 293.38 175.19 292.40 173.35 291.38 171.54 Z" />
<path fill="#ffafca" opacity="1.00" d=" M 223.98 185.74 C 231.67 175.67 241.24 167.25 251.25 159.56 C 255.29 163.31 260.90 166.32 262.61 171.91 C 252.56 177.30 242.64 183.07 233.59 190.03 C 230.38 188.61 227.18 187.17 223.98 185.74 Z" />
<path fill="#660000" opacity="1.00" d=" M 369.11 167.14 C 378.52 162.29 394.55 159.02 401.12 169.10 C 396.74 179.77 370.87 180.45 369.11 167.14 Z" />
<path fill="#660000" opacity="1.00" d=" M 333.76 170.48 C 337.92 168.72 350.83 169.62 347.25 177.04 C 340.72 183.91 327.36 188.85 319.03 182.57 C 317.84 174.74 327.86 172.30 333.76 170.48 Z" />
<path fill="#f5898d" opacity="1.00" d=" M 233.59 190.03 C 242.64 183.07 252.56 177.30 262.61 171.91 C 286.30 195.38 302.03 225.88 316.17 255.83 C 291.76 230.30 264.10 207.79 233.59 190.03 Z" />
<path fill="#660000" opacity="1.00" d=" M 432.06 188.18 C 433.67 188.84 435.28 189.49 436.90 190.14 C 393.52 237.09 391.37 316.13 433.41 364.59 C 454.44 389.90 489.09 402.06 521.31 395.22 C 507.36 406.36 489.25 413.66 471.15 410.21 C 440.73 404.79 418.83 378.53 407.98 351.04 C 386.63 297.85 393.70 232.02 432.06 188.18 Z" />
<path fill="#bababa" opacity="0.73" d=" M 125.03 198.25 C 135.09 193.94 146.03 191.16 157.00 190.92 C 150.94 199.67 145.68 208.97 141.73 218.87 C 139.81 218.32 137.89 217.76 136.00 217.10 C 130.96 211.98 126.80 205.27 125.03 198.25 Z" />
<path fill="#bababa" opacity="1.00" d=" M 157.00 190.92 C 175.29 189.09 192.18 196.14 208.95 202.04 C 206.20 205.77 203.40 209.46 200.74 213.26 C 193.33 224.24 186.63 235.80 181.62 248.08 C 164.51 241.48 147.59 231.58 136.00 217.10 C 137.89 217.76 139.81 218.32 141.73 218.87 C 145.68 208.97 150.94 199.67 157.00 190.92 M 160.82 231.68 C 162.17 232.41 163.51 233.15 164.85 233.90 C 168.51 225.54 172.95 217.54 177.78 209.80 C 177.02 208.27 175.50 205.21 174.74 203.68 C 167.48 211.32 162.20 221.16 160.82 231.68 Z" />
<path fill="#ffffff" opacity="1.00" d=" M 461.28 198.25 C 490.26 208.33 520.04 216.08 548.59 227.42 C 557.65 229.53 567.05 235.05 576.44 231.51 C 603.71 223.70 630.31 213.68 657.48 205.74 C 696.15 250.32 693.44 333.46 638.97 363.78 C 620.37 360.15 605.49 347.00 594.94 331.81 C 591.13 336.47 587.56 341.38 583.08 345.43 C 577.43 339.61 575.07 331.21 569.03 325.82 C 556.75 345.04 542.14 367.25 518.17 372.01 C 496.69 369.43 477.15 356.91 464.02 339.97 C 433.82 301.60 432.15 245.05 456.03 203.09 C 457.24 201.02 458.97 199.11 461.28 198.25 M 527.97 256.96 C 516.56 273.98 516.30 304.16 535.73 314.91 C 551.88 316.56 555.82 295.62 556.19 283.40 C 551.33 282.72 546.48 282.08 541.62 281.48 C 545.00 276.56 549.02 272.13 552.70 267.43 C 554.27 254.80 535.18 244.83 527.97 256.96 M 645.84 256.60 C 634.72 272.43 635.28 297.36 649.41 311.39 C 662.29 309.64 664.88 292.95 664.15 282.49 C 660.65 281.86 657.23 281.27 653.75 280.68 C 656.17 276.71 659.13 273.12 661.65 269.21 C 663.99 260.94 653.77 248.58 645.84 256.60 Z" />
<path fill="#fed4e2" opacity="1.00" d=" M 208.95 202.04 C 210.35 202.83 211.74 203.64 213.14 204.44 C 209.20 207.64 205.66 211.58 200.74 213.26 C 203.40 209.46 206.20 205.77 208.95 202.04 Z" />
<path fill="#d0d2d3" opacity="1.00" d=" M 467.89 366.14 C 414.91 331.17 409.86 245.22 456.03 203.09 C 432.15 245.05 433.82 301.60 464.02 339.97 C 477.15 356.91 496.69 369.43 518.17 372.01 C 502.47 379.46 482.78 374.46 467.89 366.14 Z" />
<path fill="#dbdbdb" opacity="0.86" d=" M 160.82 231.68 C 162.20 221.16 167.48 211.32 174.74 203.68 C 175.50 205.21 177.02 208.27 177.78 209.80 C 172.95 217.54 168.51 225.54 164.85 233.90 C 163.51 233.15 162.17 232.41 160.82 231.68 Z" />
<path fill="#fac1c4" opacity="1.00" d=" M 213.14 204.44 C 248.17 220.15 278.29 246.69 304.20 274.80 C 262.47 272.01 220.06 265.04 181.62 248.08 C 186.63 235.80 193.33 224.24 200.74 213.26 C 205.66 211.58 209.20 207.64 213.14 204.44 Z" />
<path fill="#7a7a7a" opacity="1.00" d=" M 92.88 255.89 C 90.35 240.38 97.52 224.35 107.67 212.76 C 121.03 239.93 147.65 256.49 174.19 268.81 C 170.39 281.81 168.99 295.36 168.79 308.87 C 144.59 307.08 118.19 300.54 101.96 281.11 C 109.92 280.49 117.95 279.99 125.59 277.50 C 114.93 269.93 104.06 262.66 92.88 255.89 Z" />
<path fill="#000000" opacity="1.00" d=" M 527.97 256.96 C 535.18 244.83 554.27 254.80 552.70 267.43 C 549.02 272.13 545.00 276.56 541.62 281.48 C 546.48 282.08 551.33 282.72 556.19 283.40 C 555.82 295.62 551.88 316.56 535.73 314.91 C 516.30 304.16 516.56 273.98 527.97 256.96 Z" />
<path fill="#000000" opacity="1.00" d=" M 645.84 256.60 C 653.77 248.58 663.99 260.94 661.65 269.21 C 659.13 273.12 656.17 276.71 653.75 280.68 C 657.23 281.27 660.65 281.86 664.15 282.49 C 664.88 292.95 662.29 309.64 649.41 311.39 C 635.28 297.36 634.72 272.43 645.84 256.60 Z" />
<path fill="#797979" opacity="0.48" d=" M 92.88 255.89 C 104.06 262.66 114.93 269.93 125.59 277.50 C 117.95 279.99 109.92 280.49 101.96 281.11 C 96.87 273.59 92.15 265.35 92.88 255.89 Z" />
<path fill="#f5898d" opacity="1.00" d=" M 174.19 268.81 C 211.36 283.32 250.68 290.97 290.28 294.79 C 250.55 304.49 209.86 311.45 168.79 308.87 C 168.99 295.36 170.39 281.81 174.19 268.81 Z" />
<path fill="#d0d2d3" opacity="1.00" d=" M 583.08 345.43 C 587.56 341.38 591.13 336.47 594.94 331.81 C 605.49 347.00 620.37 360.15 638.97 363.78 C 618.77 373.94 595.39 362.21 583.08 345.43 Z" />
<path fill="#660000" opacity="1.00" d=" M 175.07 353.92 C 187.74 365.55 201.07 376.88 216.37 384.92 C 227.17 391.28 238.34 379.89 249.43 384.26 C 261.63 390.49 267.50 404.32 279.48 410.83 C 288.38 414.58 296.15 407.99 304.35 406.11 C 323.70 406.82 337.99 423.82 357.34 425.01 C 375.05 427.26 388.32 410.27 406.18 413.51 C 434.00 419.72 456.17 440.93 484.34 445.82 C 526.51 443.19 567.02 426.50 601.02 401.74 C 581.47 403.22 567.03 390.25 554.16 377.80 C 559.44 372.95 564.57 367.95 569.75 362.99 C 585.10 381.63 609.99 391.90 634.00 388.04 C 595.29 446.65 522.06 467.15 455.92 473.96 C 378.72 479.80 294.48 473.28 228.82 428.18 C 203.76 410.12 182.21 384.51 175.07 353.92 Z" />
<path fill="#000000" opacity="1.00" d=" M 369.10 362.09 C 380.83 357.72 394.00 360.66 406.24 360.26 C 398.70 371.40 383.91 377.32 370.83 375.58 C 364.35 375.05 362.27 363.71 369.10 362.09 Z" />
<path fill="#000000" opacity="1.00" d=" M 379.04 397.16 C 388.46 385.89 403.02 380.39 415.86 373.92 C 415.21 386.87 411.56 406.58 394.71 405.98 C 389.97 406.72 374.35 405.78 379.04 397.16 Z" />
</svg>
