<?xml version="1.0" encoding="UTF-8" ?>
<!DOCTYPE svg PUBLIC "-//W3C//DTD SVG 1.1//EN" "http://www.w3.org/Graphics/SVG/1.1/DTD/svg11.dtd">
<svg width="740pt" height="610pt" viewBox="0 0 740 610" version="1.1" xmlns="http://www.w3.org/2000/svg">
<path fill="#f6921e" opacity="1.00" d=" M 566.11 75.20 C 568.93 68.99 571.95 62.87 575.03 56.78 C 577.96 62.90 581.05 68.94 583.97 75.06 C 590.30 77.23 599.03 74.62 604.27 78.56 C 599.95 83.24 594.24 86.54 590.26 91.51 C 589.90 98.44 592.26 105.21 592.99 112.07 C 586.64 109.45 580.94 104.64 574.22 103.31 C 568.46 106.19 563.00 109.72 556.87 111.90 C 557.84 105.44 559.36 99.05 559.95 92.54 C 557.41 86.18 549.13 83.08 546.30 77.82 C 551.96 75.70 559.53 76.17 566.11 75.20 Z" />
<path fill="#f6921e" opacity="1.00" d=" M 344.78 78.87 C 347.05 74.48 349.23 70.03 351.60 65.68 C 353.19 70.00 354.82 74.31 356.46 78.61 C 361.06 79.09 365.64 79.70 370.23 80.30 C 367.07 83.17 364.32 86.46 361.15 89.32 C 361.23 93.60 361.49 97.87 361.75 102.15 C 354.83 96.28 347.45 97.85 340.26 102.12 C 340.12 97.78 340.42 93.46 340.80 89.15 C 337.96 86.16 335.07 83.23 332.14 80.33 C 336.36 79.90 340.57 79.39 344.78 78.87 Z" />
<path fill="#000000" opacity="1.00" d=" M 473.75 100.54 C 494.23 97.14 520.27 104.67 528.79 125.44 C 534.38 142.88 525.92 160.19 514.79 173.19 C 545.35 183.87 574.91 198.20 599.99 218.92 C 612.24 213.17 609.01 194.39 600.21 186.72 C 592.01 177.38 577.88 179.20 568.99 171.53 C 562.53 154.40 582.13 140.79 597.68 145.04 C 616.93 148.84 636.80 161.14 642.25 181.06 C 647.51 202.69 629.43 220.38 611.81 229.38 C 617.38 236.01 623.43 242.20 629.02 248.82 C 647.04 242.99 664.65 235.84 682.92 230.78 C 690.84 248.44 698.50 266.34 704.96 284.58 C 698.68 285.96 692.75 288.53 686.84 290.99 C 724.31 342.84 720.05 423.18 671.59 466.65 C 654.60 510.50 615.76 542.13 573.54 560.53 C 490.16 595.33 395.24 596.61 308.06 576.25 C 284.00 584.95 261.03 597.01 237.07 606.23 C 233.07 597.73 229.40 589.06 225.91 580.34 C 239.96 575.10 253.23 568.04 267.27 562.76 C 256.80 556.36 245.37 551.68 234.90 545.28 C 211.23 553.54 189.29 566.46 165.36 574.00 C 161.92 565.46 156.92 557.49 155.02 548.39 C 172.94 541.08 190.65 533.30 208.34 525.48 C 178.66 500.03 159.60 462.95 155.80 424.10 C 112.59 429.61 65.26 431.27 25.51 410.63 C 16.58 407.79 6.51 391.42 18.38 386.30 C 39.44 377.65 62.78 377.88 85.11 375.76 C 79.01 362.19 77.37 347.63 77.50 332.92 C 65.27 322.08 50.01 314.29 39.58 301.31 C 36.09 296.86 36.08 289.41 41.70 286.68 C 60.03 276.71 80.82 284.49 99.45 289.08 C 102.45 286.10 105.49 283.16 108.72 280.45 C 105.34 231.71 156.74 190.27 203.72 200.34 C 208.58 200.63 214.34 204.42 218.81 200.75 C 242.84 186.32 272.90 189.75 297.92 199.91 C 359.53 169.66 431.39 154.18 499.19 170.20 C 510.06 152.68 489.63 132.87 471.85 136.07 C 464.23 135.41 448.26 140.04 449.45 126.98 C 445.29 112.21 460.54 100.99 473.75 100.54 M 275.54 238.45 C 280.08 243.59 285.04 248.33 289.80 253.26 C 292.27 257.09 295.39 260.42 298.35 263.89 C 299.36 265.57 300.35 267.28 301.34 268.99 L 302.17 268.87 C 328.29 305.78 348.80 346.97 361.01 390.55 C 301.33 408.98 239.93 425.26 176.88 423.34 C 177.57 431.06 178.45 439.03 181.91 446.08 C 194.85 496.36 240.84 530.43 287.73 547.28 C 360.44 572.93 440.63 573.47 515.54 557.54 C 564.07 546.31 613.03 523.06 641.19 480.25 C 617.08 483.99 591.88 473.95 576.73 454.90 C 572.06 460.35 566.82 465.27 561.21 469.75 C 551.61 477.96 539.60 482.03 528.37 487.32 C 499.32 492.66 467.53 484.96 446.69 463.31 C 398.30 416.19 398.53 331.23 444.07 282.14 C 442.47 281.69 440.87 281.24 439.27 280.79 C 432.67 278.26 425.92 276.14 419.19 274.00 C 424.01 256.06 430.79 238.77 436.33 221.06 C 482.76 234.55 528.26 251.11 574.29 265.81 C 582.94 265.14 590.94 261.25 599.29 259.10 C 601.90 258.25 604.30 256.89 606.47 255.23 C 564.07 207.61 499.28 182.58 436.04 184.90 C 378.91 186.82 322.56 206.00 275.54 238.45 M 242.73 213.26 C 251.99 222.35 263.29 227.74 273.32 214.74 C 263.62 210.55 252.88 211.80 242.73 213.26 M 130.59 267.55 C 144.79 264.60 158.86 260.43 173.57 262.08 C 193.32 264.24 212.89 268.94 230.75 277.79 C 233.98 279.17 237.05 281.76 240.60 281.87 C 270.87 300.16 298.64 322.35 322.96 348.05 C 309.58 317.66 292.83 288.06 270.03 263.73 C 266.75 259.10 262.49 255.31 258.13 251.72 C 252.71 246.30 246.70 241.50 240.30 237.29 C 233.15 233.09 225.88 229.02 218.19 225.91 C 210.14 223.05 201.76 220.81 193.14 220.95 C 164.58 217.92 136.27 239.71 130.59 267.55 M 156.24 282.94 L 156.37 284.21 C 147.92 284.92 139.66 287.18 131.82 290.36 C 134.65 296.88 137.44 303.53 142.11 309.01 C 154.51 323.11 171.10 333.38 188.49 340.20 C 226.88 357.31 269.42 364.17 311.16 366.89 C 285.45 338.25 254.87 313.03 220.03 296.27 C 218.82 295.65 217.60 295.04 216.38 294.44 C 197.68 285.80 176.85 281.63 156.24 282.94 M 462.32 295.70 C 420.18 335.28 421.55 410.99 463.98 450.02 C 480.72 464.87 505.06 471.54 526.69 464.46 L 525.83 464.34 C 549.63 458.85 564.51 436.71 576.09 416.82 C 581.40 423.66 584.66 431.92 590.65 438.28 C 602.78 454.73 625.58 465.21 645.35 455.76 C 645.74 455.86 646.53 456.07 646.92 456.17 C 699.40 424.35 703.62 342.37 664.57 298.27 C 635.62 306.14 607.27 316.89 578.45 325.29 C 544.27 316.53 510.07 304.02 476.25 292.53 C 471.74 290.37 464.50 290.33 462.32 295.70 M 99.87 347.88 C 99.45 357.29 103.37 365.82 108.97 373.12 C 125.14 392.67 151.70 399.19 175.96 400.74 C 215.96 404.42 257.13 396.28 296.45 387.15 C 257.38 381.98 217.81 376.29 181.20 360.73 C 154.37 348.97 127.86 332.02 114.70 304.80 C 104.45 316.19 97.33 332.43 99.87 347.88 Z" />
<path fill="#f6921e" opacity="1.00" d=" M 278.64 133.72 C 283.22 127.58 284.87 118.49 289.83 113.28 C 292.91 120.42 296.08 127.53 299.57 134.49 C 307.44 135.44 315.39 135.82 323.20 137.31 C 308.64 146.56 303.65 161.16 309.94 177.16 C 296.51 166.79 281.42 166.41 268.15 177.22 C 269.63 169.28 271.16 161.34 271.89 153.28 C 265.89 148.49 260.43 143.09 255.00 137.69 C 262.89 136.46 270.75 135.01 278.64 133.72 Z" />
<path fill="#f6921e" opacity="1.00" d=" M 656.36 137.33 C 657.99 132.07 660.08 126.92 663.58 122.62 C 665.87 128.16 668.34 133.64 671.38 138.82 C 676.98 139.05 682.63 139.23 688.21 139.96 C 684.25 144.14 680.28 148.29 676.16 152.30 C 676.59 157.94 677.13 163.59 677.79 169.22 C 668.42 160.55 657.06 162.17 647.85 169.84 C 650.77 158.76 651.12 146.84 638.74 141.35 C 644.55 139.77 650.52 138.85 656.36 137.33 Z" />
<path fill="#ff6699" opacity="1.00" d=" M 275.54 238.45 C 322.56 206.00 378.91 186.82 436.04 184.90 C 499.28 182.58 564.07 207.61 606.47 255.23 C 604.30 256.89 601.90 258.25 599.29 259.10 C 509.68 193.33 384.53 203.63 289.80 253.26 C 285.04 248.33 280.08 243.59 275.54 238.45 M 314.88 219.92 C 401.01 194.50 499.19 192.98 580.01 236.02 C 504.78 177.89 398.29 182.20 314.88 219.92 Z" />
<path fill="#ffffff" opacity="1.00" d=" M 314.88 219.92 C 398.29 182.20 504.78 177.89 580.01 236.02 C 499.19 192.98 401.01 194.50 314.88 219.92 Z" />
<path fill="#797979" opacity="0.48" d=" M 242.73 213.26 C 252.88 211.80 263.62 210.55 273.32 214.74 C 263.29 227.74 251.99 222.35 242.73 213.26 Z" />
<path fill="#ec1c24" opacity="1.00" d=" M 289.80 253.26 C 384.53 203.63 509.68 193.33 599.29 259.10 C 590.94 261.25 582.94 265.14 574.29 265.81 C 528.26 251.11 482.76 234.55 436.33 221.06 C 430.79 238.77 424.01 256.06 419.19 274.00 C 425.92 276.14 432.67 278.26 439.27 280.79 C 406.62 316.59 397.28 369.03 406.44 415.56 C 413.56 448.23 430.42 482.01 461.71 497.26 C 483.56 508.38 510.12 502.57 528.37 487.32 C 539.60 482.03 551.61 477.96 561.21 469.75 C 573.16 482.92 588.42 494.10 606.95 494.65 C 572.19 519.17 530.83 537.10 487.75 537.37 C 461.96 531.19 441.06 512.04 415.11 506.45 C 395.57 501.36 380.86 520.50 361.67 517.57 C 345.99 513.30 332.72 502.91 316.98 498.76 C 306.70 495.63 298.46 506.78 288.02 503.34 C 273.98 497.87 268.76 480.36 254.01 476.14 C 245.12 475.61 236.62 479.01 227.77 478.85 C 210.34 471.47 196.00 458.43 181.91 446.08 C 178.45 439.03 177.57 431.06 176.88 423.34 C 239.93 425.26 301.33 408.98 361.01 390.55 C 348.80 346.97 328.29 305.78 302.17 268.87 C 311.73 268.02 326.19 264.36 325.85 252.49 C 315.33 250.56 303.47 253.82 298.35 263.89 C 295.39 260.42 292.27 257.09 289.80 253.26 M 363.89 235.62 C 356.80 237.03 344.43 241.10 346.61 250.08 C 358.39 261.11 378.66 255.71 390.01 246.64 C 394.62 231.92 371.88 234.47 363.89 235.62 M 384.88 255.38 C 380.91 255.95 374.34 259.10 377.54 264.07 C 385.60 271.02 402.51 271.90 408.03 261.89 C 405.24 252.88 391.91 254.99 384.88 255.38 M 325.96 274.67 C 335.12 280.30 352.05 276.50 355.62 265.35 C 347.10 259.40 327.05 262.57 325.96 274.67 M 373.10 464.54 C 385.41 474.10 405.54 463.28 413.23 452.27 C 402.08 454.29 368.61 443.76 373.10 464.54 M 384.98 493.49 C 402.58 508.83 427.02 488.45 421.99 467.19 C 408.58 472.80 390.16 479.25 384.98 493.49 Z" />
<path fill="#797979" opacity="0.48" d=" M 130.59 267.55 C 136.27 239.71 164.58 217.92 193.14 220.95 C 184.58 232.95 177.32 246.37 176.36 261.38 C 175.66 261.55 174.27 261.91 173.57 262.08 C 158.86 260.43 144.79 264.60 130.59 267.55 Z" />
<path fill="#7a7a7a" opacity="1.00" d=" M 193.14 220.95 C 201.76 220.81 210.14 223.05 218.19 225.91 C 208.98 234.95 200.03 245.61 197.77 258.69 C 214.83 258.31 230.50 251.66 240.30 237.29 C 246.70 241.50 252.71 246.30 258.13 251.72 C 248.34 259.64 238.33 267.63 230.75 277.79 C 212.89 268.94 193.32 264.24 173.57 262.08 C 174.27 261.91 175.66 261.55 176.36 261.38 C 177.32 246.37 184.58 232.95 193.14 220.95 Z" />
<path fill="#bababa" opacity="0.73" d=" M 218.19 225.91 C 225.88 229.02 233.15 233.09 240.30 237.29 C 230.50 251.66 214.83 258.31 197.77 258.69 C 200.03 245.61 208.98 234.95 218.19 225.91 Z" />
<path fill="#660000" opacity="1.00" d=" M 363.89 235.62 C 371.88 234.47 394.62 231.92 390.01 246.64 C 378.66 255.71 358.39 261.11 346.61 250.08 C 344.43 241.10 356.80 237.03 363.89 235.62 Z" />
<path fill="#ffafca" opacity="1.00" d=" M 230.75 277.79 C 238.33 267.63 248.34 259.64 258.13 251.72 C 262.49 255.31 266.75 259.10 270.03 263.73 C 259.81 269.09 250.35 275.73 240.60 281.87 C 237.05 281.76 233.98 279.17 230.75 277.79 Z" />
<path fill="#660000" opacity="1.00" d=" M 298.35 263.89 C 303.47 253.82 315.33 250.56 325.85 252.49 C 326.19 264.36 311.73 268.02 302.17 268.87 L 301.34 268.99 C 300.35 267.28 299.36 265.57 298.35 263.89 Z" />
<path fill="#660000" opacity="1.00" d=" M 384.88 255.38 C 391.91 254.99 405.24 252.88 408.03 261.89 C 402.51 271.90 385.60 271.02 377.54 264.07 C 374.34 259.10 380.91 255.95 384.88 255.38 Z" />
<path fill="#660000" opacity="1.00" d=" M 325.96 274.67 C 327.05 262.57 347.10 259.40 355.62 265.35 C 352.05 276.50 335.12 280.30 325.96 274.67 Z" />
<path fill="#f5898d" opacity="1.00" d=" M 240.60 281.87 C 250.35 275.73 259.81 269.09 270.03 263.73 C 292.83 288.06 309.58 317.66 322.96 348.05 C 298.64 322.35 270.87 300.16 240.60 281.87 Z" />
<path fill="#660000" opacity="1.00" d=" M 439.27 280.79 C 440.87 281.24 442.47 281.69 444.07 282.14 C 398.53 331.23 398.30 416.19 446.69 463.31 C 467.53 484.96 499.32 492.66 528.37 487.32 C 510.12 502.57 483.56 508.38 461.71 497.26 C 430.42 482.01 413.56 448.23 406.44 415.56 C 397.28 369.03 406.62 316.59 439.27 280.79 Z" />
<path fill="#bababa" opacity="1.00" d=" M 156.24 282.94 C 176.85 281.63 197.68 285.80 216.38 294.44 C 213.44 297.99 210.42 301.50 207.73 305.26 C 200.22 316.25 194.06 328.11 188.49 340.20 C 171.10 333.38 154.51 323.11 142.11 309.01 C 144.25 309.78 146.45 310.38 148.65 310.97 C 152.31 301.43 157.56 292.69 163.03 284.11 C 161.36 284.14 158.04 284.19 156.37 284.21 L 156.24 282.94 M 167.81 323.63 C 169.19 324.43 170.58 325.23 171.97 326.03 C 174.20 315.53 187.75 306.87 181.98 295.74 C 174.37 303.08 169.35 313.19 167.81 323.63 Z" />
<path fill="#bababa" opacity="0.73" d=" M 131.82 290.36 C 139.66 287.18 147.92 284.92 156.37 284.21 C 158.04 284.19 161.36 284.14 163.03 284.11 C 157.56 292.69 152.31 301.43 148.65 310.97 C 146.45 310.38 144.25 309.78 142.11 309.01 C 137.44 303.53 134.65 296.88 131.82 290.36 Z" />
<path fill="#ffffff" opacity="1.00" d=" M 462.32 295.70 C 464.50 290.33 471.74 290.37 476.25 292.53 C 510.07 304.02 544.27 316.53 578.45 325.29 C 607.27 316.89 635.62 306.14 664.57 298.27 C 703.62 342.37 699.40 424.35 646.92 456.17 C 646.53 456.07 645.74 455.86 645.35 455.76 C 629.38 452.05 615.65 442.12 605.71 429.26 C 606.26 429.04 607.38 428.59 607.93 428.37 C 618.33 424.51 626.79 417.21 634.95 409.96 C 644.46 417.83 654.30 428.33 667.69 427.71 C 668.25 414.20 656.82 405.23 649.79 395.18 C 657.10 385.62 667.65 376.29 667.72 363.40 C 654.19 361.31 645.77 374.21 635.01 379.82 C 624.68 373.34 615.93 363.01 602.98 361.89 C 600.81 375.44 612.44 385.13 619.72 395.07 C 613.25 404.35 605.56 413.04 601.47 423.80 C 598.32 428.94 594.37 433.55 590.65 438.28 C 584.66 431.92 581.40 423.66 576.09 416.82 C 564.51 436.71 549.63 458.85 525.83 464.34 C 497.84 461.09 473.62 441.69 461.05 416.95 C 440.56 379.76 442.86 332.87 462.32 295.70 M 476.66 341.93 C 481.10 351.14 486.84 359.85 494.16 367.05 C 487.25 376.82 476.54 386.01 476.19 398.70 C 489.04 402.56 499.57 389.03 509.04 381.89 C 518.48 389.07 528.95 402.14 541.88 398.77 C 541.83 385.66 530.36 377.30 524.10 367.06 C 530.43 357.37 541.64 348.78 541.80 336.33 C 529.23 331.90 519.25 346.20 509.00 351.96 C 499.91 346.05 492.21 337.37 481.40 334.48 C 475.65 331.26 475.09 338.90 476.66 341.93 Z" />
<path fill="#fed4e1" opacity="1.00" d=" M 207.73 305.26 C 210.42 301.50 213.44 297.99 216.38 294.44 C 217.60 295.04 218.82 295.65 220.03 296.27 C 216.50 300.00 212.43 303.15 207.73 305.26 Z" />
<path fill="#dbdbdb" opacity="0.86" d=" M 167.81 323.63 C 169.35 313.19 174.37 303.08 181.98 295.74 C 187.75 306.87 174.20 315.53 171.97 326.03 C 170.58 325.23 169.19 324.43 167.81 323.63 Z" />
<path fill="#fac1c4" opacity="1.00" d=" M 220.03 296.27 C 254.87 313.03 285.45 338.25 311.16 366.89 C 269.42 364.17 226.88 357.31 188.49 340.20 C 194.06 328.11 200.22 316.25 207.73 305.26 C 212.43 303.15 216.50 300.00 220.03 296.27 Z" />
<path fill="#d0d2d3" opacity="1.00" d=" M 463.98 450.02 C 421.55 410.99 420.18 335.28 462.32 295.70 C 442.86 332.87 440.56 379.76 461.05 416.95 C 473.62 441.69 497.84 461.09 525.83 464.34 L 526.69 464.46 C 505.06 471.54 480.72 464.87 463.98 450.02 Z" />
<path fill="#7a7a7a" opacity="1.00" d=" M 99.87 347.88 C 97.33 332.43 104.45 316.19 114.70 304.80 C 127.86 332.02 154.37 348.97 181.20 360.73 C 177.68 373.78 175.48 387.18 175.96 400.74 C 151.70 399.19 125.14 392.67 108.97 373.12 C 117.17 372.42 125.41 372.03 133.50 370.44 C 122.66 362.37 111.33 355.01 99.87 347.88 Z" />
<path fill="#000000" opacity="1.00" d=" M 476.66 341.93 C 475.09 338.90 475.65 331.26 481.40 334.48 C 492.21 337.37 499.91 346.05 509.00 351.96 C 519.25 346.20 529.23 331.90 541.80 336.33 C 541.64 348.78 530.43 357.37 524.10 367.06 C 530.36 377.30 541.83 385.66 541.88 398.77 C 528.95 402.14 518.48 389.07 509.04 381.89 C 499.57 389.03 489.04 402.56 476.19 398.70 C 476.54 386.01 487.25 376.82 494.16 367.05 C 486.84 359.85 481.10 351.14 476.66 341.93 Z" />
<path fill="#797979" opacity="0.48" d=" M 99.87 347.88 C 111.33 355.01 122.66 362.37 133.50 370.44 C 125.41 372.03 117.17 372.42 108.97 373.12 C 103.37 365.82 99.45 357.29 99.87 347.88 Z" />
<path fill="#f5898d" opacity="1.00" d=" M 181.20 360.73 C 217.81 376.29 257.38 381.98 296.45 387.15 C 257.13 396.28 215.96 404.42 175.96 400.74 C 175.48 387.18 177.68 373.78 181.20 360.73 Z" />
<path fill="#000000" opacity="1.00" d=" M 602.98 361.89 C 615.93 363.01 624.68 373.34 635.01 379.82 C 645.77 374.21 654.19 361.31 667.72 363.40 C 667.65 376.29 657.10 385.62 649.79 395.18 C 656.82 405.23 668.25 414.20 667.69 427.71 C 654.30 428.33 644.46 417.83 634.95 409.96 C 626.79 417.21 618.33 424.51 607.93 428.37 C 604.95 428.23 602.78 426.35 601.47 423.80 C 605.56 413.04 613.25 404.35 619.72 395.07 C 612.44 385.13 600.81 375.44 602.98 361.89 Z" />
<path fill="#d0d2d3" opacity="1.00" d=" M 590.65 438.28 C 594.37 433.55 598.32 428.94 601.47 423.80 C 602.78 426.35 604.95 428.23 607.93 428.37 C 607.38 428.59 606.26 429.04 605.71 429.26 C 615.65 442.12 629.38 452.05 645.35 455.76 C 625.58 465.21 602.78 454.73 590.65 438.28 Z" />
<path fill="#660000" opacity="1.00" d=" M 181.91 446.08 C 196.00 458.43 210.34 471.47 227.77 478.85 C 236.62 479.01 245.12 475.61 254.01 476.14 C 268.76 480.36 273.98 497.87 288.02 503.34 C 298.46 506.78 306.70 495.63 316.98 498.76 C 332.72 502.91 345.99 513.30 361.67 517.57 C 380.86 520.50 395.57 501.36 415.11 506.45 C 441.06 512.04 461.96 531.19 487.75 537.37 C 530.83 537.10 572.19 519.17 606.95 494.65 C 588.42 494.10 573.16 482.92 561.21 469.75 C 566.82 465.27 572.06 460.35 576.73 454.90 C 591.88 473.95 617.08 483.99 641.19 480.25 C 613.03 523.06 564.07 546.31 515.54 557.54 C 440.63 573.47 360.44 572.93 287.73 547.28 C 240.84 530.43 194.85 496.36 181.91 446.08 Z" />
<path fill="#000000" opacity="1.00" d=" M 373.10 464.54 C 368.61 443.76 402.08 454.29 413.23 452.27 C 405.54 463.28 385.41 474.10 373.10 464.54 Z" />
<path fill="#000000" opacity="1.00" d=" M 384.98 493.49 C 390.16 479.25 408.58 472.80 421.99 467.19 C 427.02 488.45 402.58 508.83 384.98 493.49 Z" />
</svg>
