<?xml version="1.0" encoding="UTF-8" ?>
<!DOCTYPE svg PUBLIC "-//W3C//DTD SVG 1.1//EN" "http://www.w3.org/Graphics/SVG/1.1/DTD/svg11.dtd">
<svg width="1100pt" height="868pt" viewBox="0 0 1100 868" version="1.1" xmlns="http://www.w3.org/2000/svg">
<path fill="#990000" opacity="1.00" d=" M 645.96 57.17 C 648.55 20.11 697.31 -1.27 728.28 15.90 C 713.86 22.08 700.70 33.68 697.47 49.61 C 692.31 76.96 705.71 103.21 718.66 126.33 C 754.03 184.90 803.99 232.91 855.47 277.25 C 849.96 285.18 844.19 292.93 838.82 300.95 C 835.01 298.94 831.38 296.62 827.89 294.11 C 785.28 262.71 746.14 226.50 711.77 186.23 C 688.01 157.93 665.03 127.83 652.12 92.85 C 647.62 81.52 645.46 69.36 645.96 57.17 Z" />
<path fill="#ec1c24" opacity="1.00" d=" M 697.47 49.61 C 700.70 33.68 713.86 22.08 728.28 15.90 C 754.51 27.29 770.87 53.67 783.86 78.13 C 791.67 92.92 797.83 108.52 803.94 124.07 C 811.40 145.41 817.26 167.26 822.72 189.17 C 824.87 171.23 829.05 153.53 834.19 136.23 C 837.41 124.30 841.03 112.48 845.88 101.11 C 875.14 74.66 908.72 53.73 942.06 32.89 C 949.74 39.09 956.12 48.09 955.92 58.36 C 958.82 90.86 945.06 121.30 931.67 150.00 C 925.78 161.66 920.50 173.62 914.06 185.01 C 895.98 216.63 877.11 247.91 855.47 277.25 C 803.99 232.91 754.03 184.90 718.66 126.33 C 705.71 103.21 692.31 76.96 697.47 49.61 Z" />
<path fill="#990000" opacity="1.00" d=" M 900.97 28.05 C 914.28 21.83 930.13 25.04 942.06 32.89 C 908.72 53.73 875.14 74.66 845.88 101.11 C 856.60 72.68 871.57 40.85 900.97 28.05 Z" />
<path fill="#000000" opacity="1.00" d=" M 348.94 142.93 C 435.21 83.16 541.45 54.30 645.96 57.17 C 645.46 69.36 647.62 81.52 652.12 92.85 C 505.88 87.08 350.92 149.72 268.61 274.60 C 206.14 365.31 198.16 489.64 249.58 587.22 C 311.18 706.25 438.75 780.66 569.42 796.58 C 704.86 815.85 850.45 774.59 949.56 678.56 C 976.57 651.73 1000.02 621.13 1017.37 587.16 C 1041.16 540.39 1053.37 487.56 1051.08 435.06 C 1048.17 336.04 992.51 243.44 914.06 185.01 C 920.50 173.62 925.78 161.66 931.67 150.00 C 933.59 154.26 937.54 157.09 941.11 159.93 C 1032.64 230.80 1093.64 344.82 1087.03 462.04 C 1083.23 567.49 1026.01 667.22 943.78 731.78 C 784.18 859.72 544.59 871.78 370.91 765.06 C 367.52 763.27 363.99 760.15 359.81 761.70 C 322.20 780.90 284.53 800.01 246.87 819.09 C 241.11 807.01 234.18 795.49 228.76 783.28 C 260.82 766.62 293.37 750.94 325.21 733.86 C 311.54 722.33 298.00 709.69 284.95 698.08 C 246.98 716.32 209.58 736.17 171.84 755.13 C 166.29 742.95 159.22 731.50 153.71 719.31 C 187.24 702.32 220.61 684.94 254.27 668.25 C 255.82 667.40 258.14 665.64 256.20 663.88 C 218.63 616.96 193.91 560.25 183.81 501.07 C 155.04 526.17 124.98 551.62 88.37 564.34 C 60.23 574.99 22.53 564.57 10.36 535.49 C 2.27 514.89 21.77 498.61 37.58 489.58 C 76.84 467.35 121.49 457.00 165.05 446.86 C 122.60 436.74 77.76 422.67 47.35 389.63 C 27.44 368.35 37.54 331.42 63.42 320.29 C 79.17 315.65 94.65 323.59 108.14 330.86 C 136.32 348.66 160.44 372.25 182.29 397.23 C 199.51 294.17 262.41 200.91 348.94 142.93 M 71.52 337.37 C 64.46 336.80 54.39 342.41 59.05 350.71 C 68.26 362.62 85.49 367.64 100.12 365.45 C 106.50 364.82 112.13 356.93 107.13 351.25 C 99.13 340.34 84.23 337.38 71.52 337.37 M 27.62 523.47 C 40.85 536.59 62.68 525.81 73.88 514.72 C 82.86 508.76 76.07 496.17 66.64 497.95 C 51.14 498.23 30.13 506.05 27.62 523.47 Z" />
<path fill="#000000" opacity="1.00" d=" M 783.86 78.13 C 805.00 84.47 824.95 94.41 845.88 101.11 C 841.03 112.48 837.41 124.30 834.19 136.23 C 824.05 132.30 814.45 126.97 803.94 124.07 C 797.83 108.52 791.67 92.92 783.86 78.13 Z" />
<path fill="#ffffff" opacity="1.00" d=" M 268.61 274.60 C 350.92 149.72 505.88 87.08 652.12 92.85 C 665.03 127.83 688.01 157.93 711.77 186.23 C 682.77 164.36 651.59 142.59 615.17 135.85 C 597.41 132.17 577.60 133.03 562.08 143.32 C 556.11 147.24 556.86 156.60 561.84 161.04 C 575.73 175.50 594.47 183.69 611.75 193.26 C 683.26 228.03 758.21 255.56 827.89 294.11 C 831.38 296.62 835.01 298.94 838.82 300.95 C 844.19 292.93 849.96 285.18 855.47 277.25 C 877.11 247.91 895.98 216.63 914.06 185.01 C 992.51 243.44 1048.17 336.04 1051.08 435.06 C 1053.37 487.56 1041.16 540.39 1017.37 587.16 C 1016.88 587.00 1015.89 586.69 1015.40 586.53 C 959.06 643.24 886.55 682.16 810.49 705.42 C 782.54 715.63 753.70 699.72 725.33 703.92 C 711.40 705.95 711.78 725.85 697.98 727.87 C 661.12 729.76 626.57 709.72 589.62 713.40 C 579.58 715.53 573.57 727.01 562.54 725.98 C 528.09 728.87 510.13 686.15 475.89 687.89 C 457.33 687.59 439.45 699.47 420.85 693.22 C 395.57 681.86 382.53 654.48 358.82 640.88 C 346.18 633.46 332.72 648.41 320.21 641.91 C 295.14 626.42 272.51 607.15 251.55 586.50 C 251.06 586.68 250.08 587.04 249.58 587.22 C 198.16 489.64 206.14 365.31 268.61 274.60 M 262.28 354.93 C 255.34 373.44 261.07 395.47 273.64 410.30 C 277.09 413.33 280.99 417.14 278.08 422.28 C 272.43 439.87 282.59 456.80 296.29 467.01 C 297.52 491.79 319.07 509.17 340.58 517.42 C 394.83 538.30 454.42 533.47 510.64 524.75 L 510.68 524.01 C 467.33 521.37 423.55 520.31 380.88 511.12 C 358.86 506.38 336.06 497.49 321.98 478.97 C 375.78 503.51 437.11 505.18 494.91 497.93 L 494.87 496.99 C 441.01 493.47 385.41 487.53 336.07 463.95 C 325.36 457.04 313.87 449.82 307.93 438.04 C 356.59 470.44 417.18 478.39 474.32 475.25 C 441.32 469.09 408.08 462.58 376.72 450.26 C 354.01 441.18 327.80 431.03 315.73 408.35 C 322.06 409.32 327.88 412.15 333.95 414.03 C 394.18 435.45 459.37 432.78 520.48 450.48 C 553.64 460.74 581.61 483.75 601.04 511.98 C 594.59 479.91 569.12 455.24 540.54 441.46 C 489.97 416.84 433.32 410.73 378.97 399.02 C 338.51 390.13 295.41 381.67 262.28 354.93 M 764.02 441.15 C 758.90 457.90 759.97 476.08 765.01 492.73 C 766.58 516.55 780.08 548.01 807.07 551.93 C 835.90 549.04 847.01 516.16 851.78 491.80 C 857.03 454.72 854.44 409.07 824.77 382.27 C 789.31 359.48 763.14 411.52 764.02 441.15 M 901.84 425.98 C 895.25 439.96 895.20 455.73 897.18 470.77 C 897.79 492.51 904.82 515.69 920.86 531.09 C 932.58 542.16 952.43 539.60 962.10 527.07 C 983.62 500.33 985.96 462.96 979.54 430.44 C 975.34 411.92 967.10 391.23 948.66 382.95 C 922.96 374.12 903.53 404.66 901.84 425.98 M 880.13 540.10 C 865.19 573.78 849.42 607.16 835.10 641.08 C 884.16 624.51 933.25 607.76 982.25 590.85 C 948.79 573.10 914.29 556.66 880.13 540.10 M 704.70 552.41 C 693.44 553.94 682.62 559.59 675.22 568.25 C 667.20 578.42 671.40 594.40 682.04 600.99 C 702.36 615.24 732.84 615.09 752.27 599.35 C 762.77 591.79 764.31 574.97 754.98 565.93 C 742.23 552.68 722.15 549.88 704.70 552.41 Z" />
<path fill="#ffffff" opacity="1.00" d=" M 803.94 124.07 C 814.45 126.97 824.05 132.30 834.19 136.23 C 829.05 153.53 824.87 171.23 822.72 189.17 C 817.26 167.26 811.40 145.41 803.94 124.07 Z" />
<path fill="#bbbdbf" opacity="1.00" d=" M 562.08 143.32 C 577.60 133.03 597.41 132.17 615.17 135.85 C 651.59 142.59 682.77 164.36 711.77 186.23 C 746.14 226.50 785.28 262.71 827.89 294.11 C 758.21 255.56 683.26 228.03 611.75 193.26 C 594.47 183.69 575.73 175.50 561.84 161.04 C 556.86 156.60 556.11 147.24 562.08 143.32 Z" />
<path fill="#ffffff" opacity="1.00" d=" M 71.52 337.37 C 84.23 337.38 99.13 340.34 107.13 351.25 C 112.13 356.93 106.50 364.82 100.12 365.45 C 85.49 367.64 68.26 362.62 59.05 350.71 C 54.39 342.41 64.46 336.80 71.52 337.37 Z" />
<path fill="#000000" opacity="1.00" d=" M 262.28 354.93 C 295.41 381.67 338.51 390.13 378.97 399.02 C 433.32 410.73 489.97 416.84 540.54 441.46 C 569.12 455.24 594.59 479.91 601.04 511.98 C 581.61 483.75 553.64 460.74 520.48 450.48 C 459.37 432.78 394.18 435.45 333.95 414.03 C 327.88 412.15 322.06 409.32 315.73 408.35 C 327.80 431.03 354.01 441.18 376.72 450.26 C 408.08 462.58 441.32 469.09 474.32 475.25 C 417.18 478.39 356.59 470.44 307.93 438.04 C 313.87 449.82 325.36 457.04 336.07 463.95 C 385.41 487.53 441.01 493.47 494.87 496.99 L 494.91 497.93 C 437.11 505.18 375.78 503.51 321.98 478.97 C 336.06 497.49 358.86 506.38 380.88 511.12 C 423.55 520.31 467.33 521.37 510.68 524.01 L 510.64 524.75 C 454.42 533.47 394.83 538.30 340.58 517.42 C 319.07 509.17 297.52 491.79 296.29 467.01 C 282.59 456.80 272.43 439.87 278.08 422.28 C 280.99 417.14 277.09 413.33 273.64 410.30 C 261.07 395.47 255.34 373.44 262.28 354.93 Z" />
<path fill="#d0d2d3" opacity="1.00" d=" M 764.02 441.15 C 763.14 411.52 789.31 359.48 824.77 382.27 C 854.44 409.07 857.03 454.72 851.78 491.80 C 847.01 516.16 835.90 549.04 807.07 551.93 C 780.08 548.01 766.58 516.55 765.01 492.73 C 769.23 508.10 778.19 525.32 794.83 529.57 C 813.46 533.06 826.43 515.47 832.30 500.30 C 842.16 472.01 841.16 437.89 822.96 413.13 C 816.34 403.97 804.62 397.08 793.07 400.67 C 776.01 406.52 767.61 424.64 764.02 441.15 Z" />
<path fill="#d0d2d3" opacity="1.00" d=" M 901.84 425.98 C 903.53 404.66 922.96 374.12 948.66 382.95 C 967.10 391.23 975.34 411.92 979.54 430.44 C 985.96 462.96 983.62 500.33 962.10 527.07 C 952.43 539.60 932.58 542.16 920.86 531.09 C 904.82 515.69 897.79 492.51 897.18 470.77 C 900.52 487.47 906.61 508.84 925.20 513.81 C 941.45 518.13 953.29 502.76 958.60 489.63 C 968.58 462.05 967.49 425.47 944.11 404.86 C 927.00 391.15 906.42 408.49 901.84 425.98 Z" />
<path fill="#000000" opacity="1.00" d=" M 793.07 400.67 C 804.62 397.08 816.34 403.97 822.96 413.13 C 841.16 437.89 842.16 472.01 832.30 500.30 C 826.43 515.47 813.46 533.06 794.83 529.57 C 778.19 525.32 769.23 508.10 765.01 492.73 C 759.97 476.08 758.90 457.90 764.02 441.15 C 767.61 424.64 776.01 406.52 793.07 400.67 M 805.61 427.36 C 791.20 436.80 790.23 463.74 805.66 472.67 C 828.60 474.80 829.39 426.03 805.61 427.36 Z" />
<path fill="#000000" opacity="1.00" d=" M 901.84 425.98 C 906.42 408.49 927.00 391.15 944.11 404.86 C 967.49 425.47 968.58 462.05 958.60 489.63 C 953.29 502.76 941.45 518.13 925.20 513.81 C 906.61 508.84 900.52 487.47 897.18 470.77 C 895.20 455.73 895.25 439.96 901.84 425.98 M 939.00 426.27 C 928.46 434.89 929.27 453.41 939.63 461.79 C 958.86 464.25 959.16 422.14 939.00 426.27 Z" />
<path fill="#ffffff" opacity="1.00" d=" M 939.00 426.27 C 959.16 422.14 958.86 464.25 939.63 461.79 C 929.27 453.41 928.46 434.89 939.00 426.27 Z" />
<path fill="#ffffff" opacity="1.00" d=" M 805.61 427.36 C 829.39 426.03 828.60 474.80 805.66 472.67 C 790.23 463.74 791.20 436.80 805.61 427.36 Z" />
<path fill="#ffffff" opacity="1.00" d=" M 27.62 523.47 C 30.13 506.05 51.14 498.23 66.64 497.95 C 76.07 496.17 82.86 508.76 73.88 514.72 C 62.68 525.81 40.85 536.59 27.62 523.47 Z" />
<path fill="#faaf40" opacity="1.00" d=" M 880.13 540.10 C 914.29 556.66 948.79 573.10 982.25 590.85 C 933.25 607.76 884.16 624.51 835.10 641.08 C 849.42 607.16 865.19 573.78 880.13 540.10 Z" />
<path fill="#efb7c0" opacity="1.00" d=" M 704.70 552.41 C 722.15 549.88 742.23 552.68 754.98 565.93 C 764.31 574.97 762.77 591.79 752.27 599.35 C 732.84 615.09 702.36 615.24 682.04 600.99 C 671.40 594.40 667.20 578.42 675.22 568.25 C 682.62 559.59 693.44 553.94 704.70 552.41 Z" />
<path fill="#bbbdbf" opacity="1.00" d=" M 249.58 587.22 C 250.08 587.04 251.06 586.68 251.55 586.50 C 272.51 607.15 295.14 626.42 320.21 641.91 C 332.72 648.41 346.18 633.46 358.82 640.88 C 382.53 654.48 395.57 681.86 420.85 693.22 C 439.45 699.47 457.33 687.59 475.89 687.89 C 510.13 686.15 528.09 728.87 562.54 725.98 C 573.57 727.01 579.58 715.53 589.62 713.40 C 626.57 709.72 661.12 729.76 697.98 727.87 C 711.78 725.85 711.40 705.95 725.33 703.92 C 753.70 699.72 782.54 715.63 810.49 705.42 C 886.55 682.16 959.06 643.24 1015.40 586.53 C 1015.89 586.69 1016.88 587.00 1017.37 587.16 C 1000.02 621.13 976.57 651.73 949.56 678.56 C 850.45 774.59 704.86 815.85 569.42 796.58 C 438.75 780.66 311.18 706.25 249.58 587.22 Z" />
</svg>
