<?xml version="1.0" encoding="UTF-8" ?>
<!DOCTYPE svg PUBLIC "-//W3C//DTD SVG 1.1//EN" "http://www.w3.org/Graphics/SVG/1.1/DTD/svg11.dtd">
<svg width="765pt" height="630pt" viewBox="0 0 765 630" version="1.1" xmlns="http://www.w3.org/2000/svg">
<path fill="#000000" opacity="1.00" d=" M 548.16 10.82 C 580.84 21.68 602.11 54.38 603.42 88.17 C 615.26 78.63 622.89 65.42 628.63 51.57 C 662.21 89.81 647.42 155.21 599.89 174.07 C 608.28 183.76 616.70 193.58 623.01 204.80 C 640.63 199.55 660.51 207.11 670.91 222.10 C 695.81 255.62 693.85 309.92 660.82 337.43 C 692.83 338.79 724.94 337.59 756.99 338.01 C 757.01 362.00 757.02 386.00 756.99 409.99 C 718.04 410.07 679.10 409.90 640.16 410.05 C 615.93 453.27 570.37 479.21 524.24 493.27 C 465.44 509.71 403.10 513.02 342.75 504.28 C 294.92 497.24 246.89 481.07 209.51 449.48 C 182.85 427.44 165.68 395.55 158.70 361.94 C 138.79 371.55 119.87 383.22 100.08 393.10 C 108.73 379.52 119.23 367.09 126.95 352.95 C 96.24 365.23 66.26 379.43 35.31 391.07 C 26.64 367.85 18.69 344.36 10.10 321.11 C 46.16 316.80 82.27 312.14 118.17 306.41 C 84.01 297.70 50.06 288.11 15.87 279.58 C 19.66 271.46 22.79 262.94 27.32 255.21 C 33.43 252.99 39.85 251.67 46.13 249.98 C 43.31 244.86 39.68 240.19 37.25 234.86 C 41.50 223.47 48.23 213.04 52.92 201.79 C 89.80 228.17 125.82 255.77 162.06 283.01 C 175.72 262.85 172.83 234.89 190.75 216.77 C 180.25 189.60 183.61 153.50 207.90 134.97 C 214.71 150.13 222.47 165.72 235.02 176.95 C 253.29 168.88 251.98 145.36 268.01 134.81 C 271.73 138.20 272.07 143.75 274.25 148.10 C 303.67 132.01 334.33 117.82 367.34 110.88 C 361.45 104.72 350.60 104.31 345.15 99.11 C 365.50 78.11 401.34 75.20 426.01 91.02 C 416.84 77.45 402.09 67.82 386.09 64.64 C 412.32 36.04 463.21 39.70 485.72 71.25 C 489.13 57.19 486.48 43.01 481.09 29.91 C 506.24 31.68 528.47 50.94 535.24 75.03 C 549.02 56.89 550.72 32.71 548.16 10.82 M 563.96 34.00 C 579.70 59.35 585.24 89.90 584.41 119.41 C 599.22 90.66 591.60 52.26 563.96 34.00 M 495.19 44.80 C 511.15 65.92 522.23 90.67 528.38 116.34 C 533.66 88.81 521.72 56.85 495.19 44.80 M 412.65 60.30 C 439.97 64.35 466.51 76.13 485.89 96.15 C 473.64 68.88 443.03 47.47 412.65 60.30 M 602.25 158.26 C 629.94 142.28 644.61 107.19 633.56 76.52 C 630.55 105.66 622.04 135.75 602.25 158.26 M 395.51 126.58 C 341.82 133.48 291.02 157.15 249.47 191.59 C 252.98 196.39 257.72 201.59 262.65 203.89 C 307.82 245.90 368.27 289.48 366.39 358.11 C 359.40 305.59 315.17 269.71 276.63 238.37 C 250.60 216.01 217.44 196.87 204.05 163.71 C 194.86 190.70 208.67 218.76 225.28 239.72 C 240.06 260.18 259.68 276.17 279.11 291.95 C 245.87 283.20 216.87 261.65 197.12 233.72 C 184.86 245.94 193.07 264.83 204.75 274.25 C 232.31 299.51 267.73 314.25 302.19 327.69 C 269.11 326.91 235.87 317.08 208.20 298.81 C 204.45 323.63 221.63 347.41 244.67 355.31 C 265.68 364.37 288.94 366.00 311.47 367.20 C 282.71 369.87 252.02 371.25 225.14 358.86 C 209.39 351.46 198.65 336.31 194.33 319.71 C 188.06 305.84 197.65 288.31 187.60 276.29 C 174.43 306.50 173.19 341.68 182.90 373.03 C 195.71 419.88 237.94 451.84 281.79 468.21 C 352.60 493.40 430.71 494.08 503.58 477.57 C 546.10 467.42 588.90 447.42 615.20 411.19 C 602.65 411.03 590.07 410.50 577.54 411.21 C 569.34 410.89 561.13 410.98 552.95 410.99 C 553.05 386.66 552.98 362.33 552.98 338.01 C 566.35 337.98 579.72 338.00 593.10 338.01 C 599.07 338.03 605.03 338.03 611.01 338.02 C 580.68 311.48 578.25 265.52 594.25 230.60 C 595.54 225.15 608.74 218.60 604.40 213.37 C 561.60 144.79 473.64 112.64 395.51 126.58 M 628.32 218.12 C 611.06 225.77 600.66 244.84 599.53 263.23 L 599.35 262.37 C 595.00 286.92 603.34 320.05 628.31 330.95 C 643.31 336.06 658.18 324.34 664.40 311.40 C 676.27 292.06 675.76 266.46 668.20 245.69 C 662.51 229.93 646.95 212.50 628.32 218.12 M 572.00 357.01 C 571.98 364.34 571.97 371.66 572.00 379.00 C 571.99 382.99 571.98 386.98 572.00 390.99 C 627.33 391.01 682.66 391.01 738.00 390.98 C 737.99 386.98 737.98 382.99 738.00 379.00 C 738.01 371.66 738.00 364.34 738.00 357.01 C 682.66 356.99 627.33 356.99 572.00 357.01 Z" />
<path fill="#ffffff" opacity="1.00" d=" M 563.96 34.00 C 591.60 52.26 599.22 90.66 584.41 119.41 C 585.24 89.90 579.70 59.35 563.96 34.00 Z" />
<path fill="#ffffff" opacity="1.00" d=" M 495.19 44.80 C 521.72 56.85 533.66 88.81 528.38 116.34 C 522.23 90.67 511.15 65.92 495.19 44.80 Z" />
<path fill="#ffffff" opacity="1.00" d=" M 412.65 60.30 C 443.03 47.47 473.64 68.88 485.89 96.15 C 466.51 76.13 439.97 64.35 412.65 60.30 Z" />
<path fill="#ffffff" opacity="1.00" d=" M 602.25 158.26 C 622.04 135.75 630.55 105.66 633.56 76.52 C 644.61 107.19 629.94 142.28 602.25 158.26 Z" />
<path fill="#f9eaed" opacity="1.00" d=" M 395.51 126.58 C 473.64 112.64 561.60 144.79 604.40 213.37 C 505.03 143.12 367.58 148.46 262.65 203.89 C 257.72 201.59 252.98 196.39 249.47 191.59 C 291.02 157.15 341.82 133.48 395.51 126.58 Z" />
<path fill="#fbd6db" opacity="1.00" d=" M 262.65 203.89 C 367.58 148.46 505.03 143.12 604.40 213.37 C 608.74 218.60 595.54 225.15 594.25 230.60 C 565.35 257.97 565.12 309.89 593.10 338.01 C 579.72 338.00 566.35 337.98 552.98 338.01 C 552.98 362.33 553.05 386.66 552.95 410.99 C 561.13 410.98 569.34 410.89 577.54 411.21 C 543.40 426.75 506.48 435.31 469.31 439.44 C 443.40 442.46 419.60 426.75 393.73 429.54 C 382.31 430.66 373.30 439.90 361.61 439.89 C 343.07 441.99 329.19 426.76 312.13 422.72 C 302.63 419.75 294.88 428.64 285.57 427.69 C 272.77 422.80 266.68 409.22 255.41 402.24 C 245.93 398.94 236.04 403.44 226.53 403.88 C 209.96 396.87 196.78 384.13 182.90 373.03 C 173.19 341.68 174.43 306.50 187.60 276.29 C 197.65 288.31 188.06 305.84 194.33 319.71 C 198.65 336.31 209.39 351.46 225.14 358.86 C 252.02 371.25 282.71 369.87 311.47 367.20 C 288.94 366.00 265.68 364.37 244.67 355.31 C 221.63 347.41 204.45 323.63 208.20 298.81 C 235.87 317.08 269.11 326.91 302.19 327.69 C 267.73 314.25 232.31 299.51 204.75 274.25 C 193.07 264.83 184.86 245.94 197.12 233.72 C 216.87 261.65 245.87 283.20 279.11 291.95 C 259.68 276.17 240.06 260.18 225.28 239.72 C 208.67 218.76 194.86 190.70 204.05 163.71 C 217.44 196.87 250.60 216.01 276.63 238.37 C 315.17 269.71 359.40 305.59 366.39 358.11 C 368.27 289.48 307.82 245.90 262.65 203.89 M 483.27 202.50 C 427.81 214.02 412.19 291.59 442.70 333.55 C 433.15 342.29 422.18 349.24 411.94 357.09 C 415.03 361.60 418.22 366.02 421.48 370.43 C 432.79 363.40 443.08 354.80 454.29 347.56 C 456.54 350.37 459.21 353.00 462.48 354.62 C 456.14 365.74 449.91 376.95 444.64 388.64 C 449.42 391.64 454.42 394.36 459.83 396.05 C 464.52 384.02 472.56 373.74 477.46 361.83 C 500.72 369.34 528.25 358.71 541.15 338.15 C 574.13 306.14 575.13 247.14 544.81 213.18 C 530.21 195.27 503.03 190.33 483.27 202.50 Z" />
<path fill="#000000" opacity="1.00" d=" M 483.27 202.50 C 503.03 190.33 530.21 195.27 544.81 213.18 C 575.13 247.14 574.13 306.14 541.15 338.15 C 532.92 344.07 524.21 351.12 513.50 350.90 C 486.97 355.50 464.67 332.83 456.41 309.68 C 442.33 273.47 449.89 225.74 483.27 202.50 M 499.45 212.30 C 480.35 219.96 467.63 240.31 467.04 260.61 C 460.12 287.82 472.75 325.63 501.69 335.51 C 517.74 338.61 533.80 327.68 540.35 313.36 C 553.53 291.26 554.92 261.92 543.29 238.70 C 535.84 222.58 518.64 206.12 499.45 212.30 Z" />
<path fill="#f1aaaf" opacity="1.00" d=" M 442.70 333.55 C 412.19 291.59 427.81 214.02 483.27 202.50 C 449.89 225.74 442.33 273.47 456.41 309.68 C 464.67 332.83 486.97 355.50 513.50 350.90 C 524.21 351.12 532.92 344.07 541.15 338.15 C 528.25 358.71 500.72 369.34 477.46 361.83 C 472.53 359.27 467.63 356.69 462.48 354.62 C 459.21 353.00 456.54 350.37 454.29 347.56 C 450.80 342.61 447.63 337.22 442.70 333.55 Z" />
<path fill="#ffffff" opacity="1.00" d=" M 499.45 212.30 C 518.64 206.12 535.84 222.58 543.29 238.70 C 554.92 261.92 553.53 291.26 540.35 313.36 C 525.65 322.97 504.53 322.61 491.27 310.63 C 476.25 298.46 469.81 279.08 467.04 260.61 C 467.63 240.31 480.35 219.96 499.45 212.30 M 517.99 250.77 C 504.08 263.31 504.14 289.08 518.23 301.22 C 530.92 308.95 541.79 293.15 540.86 281.52 C 535.73 280.72 530.61 279.83 525.76 277.95 C 529.84 272.31 534.89 267.45 538.88 261.75 C 537.92 252.47 526.51 245.12 517.99 250.77 Z" />
<path fill="#ffffff" opacity="1.00" d=" M 628.32 218.12 C 646.95 212.50 662.51 229.93 668.20 245.69 C 675.76 266.46 676.27 292.06 664.40 311.40 C 654.57 317.28 642.00 320.47 631.24 314.95 C 611.19 305.99 603.04 283.34 599.53 263.23 C 600.66 244.84 611.06 225.77 628.32 218.12 M 643.33 255.17 C 632.32 267.06 632.31 290.47 645.62 300.66 C 656.94 306.24 665.51 292.31 665.18 282.29 C 660.39 281.12 655.54 280.26 650.76 279.07 C 654.66 273.90 659.97 269.59 662.85 263.73 C 662.69 254.73 650.06 247.52 643.33 255.17 Z" />
<path fill="#f1aaaf" opacity="1.00" d=" M 593.10 338.01 C 565.12 309.89 565.35 257.97 594.25 230.60 C 578.25 265.52 580.68 311.48 611.01 338.02 C 605.03 338.03 599.07 338.03 593.10 338.01 Z" />
<path fill="#000000" opacity="1.00" d=" M 517.99 250.77 C 526.51 245.12 537.92 252.47 538.88 261.75 C 534.89 267.45 529.84 272.31 525.76 277.95 C 530.61 279.83 535.73 280.72 540.86 281.52 C 541.79 293.15 530.92 308.95 518.23 301.22 C 504.14 289.08 504.08 263.31 517.99 250.77 Z" />
<path fill="#000000" opacity="1.00" d=" M 643.33 255.17 C 650.06 247.52 662.69 254.73 662.85 263.73 C 659.97 269.59 654.66 273.90 650.76 279.07 C 655.54 280.26 660.39 281.12 665.18 282.29 C 665.51 292.31 656.94 306.24 645.62 300.66 C 632.31 290.47 632.32 267.06 643.33 255.17 Z" />
<path fill="#d0d2d3" opacity="1.00" d=" M 501.69 335.51 C 472.75 325.63 460.12 287.82 467.04 260.61 C 469.81 279.08 476.25 298.46 491.27 310.63 C 504.53 322.61 525.65 322.97 540.35 313.36 C 533.80 327.68 517.74 338.61 501.69 335.51 Z" />
<path fill="#d0d2d3" opacity="1.00" d=" M 599.35 262.37 L 599.53 263.23 C 603.04 283.34 611.19 305.99 631.24 314.95 C 642.00 320.47 654.57 317.28 664.40 311.40 C 658.18 324.34 643.31 336.06 628.31 330.95 C 603.34 320.05 595.00 286.92 599.35 262.37 Z" />
<path fill="#000000" opacity="1.00" d=" M 442.70 333.55 C 447.63 337.22 450.80 342.61 454.29 347.56 C 443.08 354.80 432.79 363.40 421.48 370.43 C 418.22 366.02 415.03 361.60 411.94 357.09 C 422.18 349.24 433.15 342.29 442.70 333.55 Z" />
<path fill="#000000" opacity="1.00" d=" M 462.48 354.62 C 467.63 356.69 472.53 359.27 477.46 361.83 C 472.56 373.74 464.52 384.02 459.83 396.05 C 454.42 394.36 449.42 391.64 444.64 388.64 C 449.91 376.95 456.14 365.74 462.48 354.62 Z" />
<path fill="#faaf40" opacity="1.00" d=" M 572.00 357.01 C 627.33 356.99 682.66 356.99 738.00 357.01 C 738.00 364.34 738.01 371.66 738.00 379.00 C 682.66 379.00 627.33 379.00 572.00 379.00 C 571.97 371.66 571.98 364.34 572.00 357.01 Z" />
<path fill="#f1aaaf" opacity="1.00" d=" M 182.90 373.03 C 196.78 384.13 209.96 396.87 226.53 403.88 C 236.04 403.44 245.93 398.94 255.41 402.24 C 266.68 409.22 272.77 422.80 285.57 427.69 C 294.88 428.64 302.63 419.75 312.13 422.72 C 329.19 426.76 343.07 441.99 361.61 439.89 C 373.30 439.90 382.31 430.66 393.73 429.54 C 419.60 426.75 443.40 442.46 469.31 439.44 C 506.48 435.31 543.40 426.75 577.54 411.21 C 590.07 410.50 602.65 411.03 615.20 411.19 C 588.90 447.42 546.10 467.42 503.58 477.57 C 430.71 494.08 352.60 493.40 281.79 468.21 C 237.94 451.84 195.71 419.88 182.90 373.03 Z" />
<path fill="#b07e09" opacity="1.00" d=" M 572.00 379.00 C 627.33 379.00 682.66 379.00 738.00 379.00 C 737.98 382.99 737.99 386.98 738.00 390.98 C 682.66 391.01 627.33 391.01 572.00 390.99 C 571.98 386.98 571.99 382.99 572.00 379.00 Z" />
</svg>
