<?xml version="1.0" encoding="UTF-8" ?>
<!DOCTYPE svg PUBLIC "-//W3C//DTD SVG 1.1//EN" "http://www.w3.org/Graphics/SVG/1.1/DTD/svg11.dtd">
<svg width="762pt" height="603pt" viewBox="0 0 762 603" version="1.1" xmlns="http://www.w3.org/2000/svg">
<path fill="#000000" opacity="1.00" d=" M 412.82 45.84 C 426.45 15.57 464.44 1.61 495.16 11.89 C 536.53 29.42 578.00 46.73 619.10 64.90 C 651.13 79.66 664.61 122.23 649.38 153.47 C 643.50 170.48 633.44 186.22 629.10 203.57 C 643.40 210.02 658.19 215.43 672.13 222.71 C 665.61 234.33 662.23 247.43 655.95 259.17 C 653.23 258.16 650.53 257.12 647.81 256.14 C 660.24 288.86 663.61 324.00 662.22 358.77 C 695.03 367.43 727.17 378.60 758.26 392.24 C 716.04 411.81 672.50 428.62 628.34 443.28 C 556.71 521.14 440.54 533.39 341.05 523.10 C 338.94 533.00 336.45 542.86 335.65 552.99 C 316.09 548.73 297.72 534.86 293.48 514.52 C 284.94 512.77 276.82 509.42 268.23 507.87 C 259.86 521.34 257.64 537.56 255.65 552.99 C 231.04 548.40 209.41 526.07 212.81 499.90 C 205.52 490.87 200.65 480.45 196.00 470.03 C 159.98 442.62 136.01 399.34 133.96 353.91 C 116.22 368.86 99.48 385.03 81.10 399.22 C 69.31 385.80 57.36 372.52 45.88 358.84 C 66.71 344.22 88.66 331.17 109.11 316.07 C 76.46 321.01 43.99 327.28 11.17 331.11 C 7.80 312.90 8.82 294.29 5.98 276.03 C 38.50 275.82 70.90 278.72 103.31 280.76 C 74.34 265.90 44.45 252.66 14.99 238.69 C 19.91 222.03 27.03 206.08 33.43 189.94 C 71.96 215.40 109.27 243.37 147.06 270.17 C 180.41 193.99 251.92 139.52 330.19 115.28 C 337.30 106.00 339.45 93.28 345.18 82.88 C 360.02 88.75 374.27 96.42 389.59 100.92 C 396.60 82.26 404.86 64.10 412.82 45.84 M 433.41 53.24 L 432.74 53.38 C 429.35 61.60 425.55 69.64 422.41 77.96 C 418.52 87.47 413.70 96.69 411.01 106.63 C 477.51 134.18 543.50 163.03 609.88 190.87 C 613.74 182.00 617.83 173.22 621.15 164.13 C 625.09 156.23 627.81 147.77 632.01 139.99 L 631.75 139.24 C 641.17 114.97 624.20 87.02 600.11 79.91 C 565.14 64.80 529.87 50.37 495.00 35.04 C 473.66 23.43 445.03 31.90 433.41 53.24 M 339.51 134.50 C 278.87 152.83 222.90 189.97 186.61 242.35 C 158.28 282.38 145.04 335.09 160.25 382.77 C 166.35 404.94 178.95 425.18 195.33 441.25 C 203.51 431.91 191.02 420.11 193.81 409.10 C 193.32 393.55 204.14 379.86 218.26 374.26 C 259.55 357.26 308.49 364.81 346.24 338.19 C 312.99 371.39 260.90 369.65 223.51 395.50 C 215.25 400.97 211.78 411.15 214.37 420.81 C 241.52 395.08 279.10 382.47 316.25 379.12 C 289.47 391.17 262.17 403.36 239.58 422.57 C 225.94 434.12 212.80 450.99 217.15 470.14 C 235.01 432.84 274.06 413.31 312.16 403.10 C 282.40 424.13 249.32 445.77 234.86 480.83 C 229.53 493.64 234.27 508.21 243.28 518.09 C 246.42 496.66 256.48 476.92 270.89 460.90 C 299.03 430.60 337.46 413.11 369.10 387.09 C 386.84 371.97 401.24 351.41 403.75 327.70 C 410.27 349.25 404.14 373.11 390.68 390.70 C 371.95 414.01 346.20 429.77 322.79 447.82 C 306.85 459.48 291.68 472.67 280.04 488.73 C 342.71 508.34 410.15 508.98 474.58 498.60 C 513.55 492.13 552.08 478.66 584.10 455.06 C 571.80 456.28 559.15 456.86 547.18 453.28 C 529.25 449.61 512.02 436.99 508.36 418.32 C 505.28 388.85 524.17 356.94 554.34 350.37 C 582.94 343.94 612.60 348.21 640.94 354.02 C 636.89 343.04 649.75 314.03 634.05 312.92 C 634.00 321.95 633.99 330.98 633.90 340.01 C 625.83 340.16 617.76 339.82 609.73 339.18 C 609.97 330.71 611.03 321.72 609.39 313.66 C 600.97 311.44 590.94 313.68 582.02 313.04 C 576.67 313.01 571.34 312.99 566.02 312.97 C 565.94 304.99 565.94 297.00 566.01 289.02 C 589.07 288.80 612.13 289.32 635.19 288.77 C 631.65 273.63 627.65 257.84 619.50 244.47 C 546.76 212.20 472.87 182.34 400.04 150.22 L 399.22 150.40 C 391.19 147.10 383.29 142.88 375.12 140.27 C 371.02 138.12 366.90 135.41 362.20 134.99 C 355.98 128.54 346.87 132.71 339.51 134.50 M 560.63 365.28 C 541.13 369.23 525.79 386.93 524.72 406.73 C 519.70 429.15 547.19 439.32 565.03 440.02 C 610.01 436.81 651.76 418.01 693.49 402.35 C 681.13 403.96 668.57 403.82 656.34 406.34 C 627.22 409.90 593.85 406.08 568.08 422.12 C 565.29 422.23 562.41 422.11 559.67 421.72 C 559.76 412.87 568.09 408.37 575.21 405.18 C 620.14 391.78 667.73 394.17 714.06 391.41 C 664.48 376.20 613.35 356.79 560.63 365.28 Z" />
<path fill="#ed7c31" opacity="1.00" d=" M 433.41 53.24 C 445.03 31.90 473.66 23.43 495.00 35.04 C 529.87 50.37 565.14 64.80 600.11 79.91 C 624.20 87.02 641.17 114.97 631.75 139.24 C 629.46 131.66 625.72 124.61 621.25 118.09 C 625.67 112.83 623.45 105.87 618.20 101.84 C 605.38 92.00 588.23 83.87 571.83 89.00 C 541.95 76.26 512.11 63.40 482.15 50.87 C 466.26 43.86 448.95 47.49 433.41 53.24 Z" />
<path fill="#d6562b" opacity="1.00" d=" M 433.41 53.24 C 448.95 47.49 466.26 43.86 482.15 50.87 C 512.11 63.40 541.95 76.26 571.83 89.00 C 570.86 93.02 569.63 97.66 573.12 100.83 C 585.08 113.65 603.71 121.41 621.25 118.09 C 625.72 124.61 629.46 131.66 631.75 139.24 L 632.01 139.99 C 627.81 147.77 625.09 156.23 621.15 164.13 C 555.33 134.57 487.40 108.91 422.41 77.96 C 425.55 69.64 429.35 61.60 432.74 53.38 L 433.41 53.24 Z" />
<path fill="#b55232" opacity="1.00" d=" M 411.01 106.63 C 413.70 96.69 418.52 87.47 422.41 77.96 C 487.40 108.91 555.33 134.57 621.15 164.13 C 617.83 173.22 613.74 182.00 609.88 190.87 C 543.50 163.03 477.51 134.18 411.01 106.63 Z" />
<path fill="#ffffff" opacity="1.00" d=" M 571.83 89.00 C 588.23 83.87 605.38 92.00 618.20 101.84 C 623.45 105.87 625.67 112.83 621.25 118.09 C 603.71 121.41 585.08 113.65 573.12 100.83 C 569.63 97.66 570.86 93.02 571.83 89.00 Z" />
<path fill="#e5d3bd" opacity="1.00" d=" M 339.51 134.50 C 346.87 132.71 355.98 128.54 362.20 134.99 C 338.88 140.17 315.22 146.01 293.88 156.99 C 320.32 148.50 347.90 145.09 375.12 140.27 C 383.29 142.88 391.19 147.10 399.22 150.40 C 321.09 159.39 247.80 193.89 186.61 242.35 C 222.90 189.97 278.87 152.83 339.51 134.50 Z" />
<path fill="#ffffff" opacity="1.00" d=" M 293.88 156.99 C 315.22 146.01 338.88 140.17 362.20 134.99 C 366.90 135.41 371.02 138.12 375.12 140.27 C 347.90 145.09 320.32 148.50 293.88 156.99 Z" />
<path fill="#c7b29e" opacity="1.00" d=" M 399.22 150.40 L 400.04 150.22 C 472.87 182.34 546.76 212.20 619.50 244.47 C 627.65 257.84 631.65 273.63 635.19 288.77 C 612.13 289.32 589.07 288.80 566.01 289.02 C 565.94 297.00 565.94 304.99 566.02 312.97 C 571.34 312.99 576.67 313.01 582.02 313.04 C 581.97 321.68 581.99 330.31 582.09 338.96 C 591.29 339.00 600.51 338.87 609.73 339.18 C 617.76 339.82 625.83 340.16 633.90 340.01 C 633.99 330.98 634.00 321.95 634.05 312.92 C 649.75 314.03 636.89 343.04 640.94 354.02 C 612.60 348.21 582.94 343.94 554.34 350.37 C 524.17 356.94 505.28 388.85 508.36 418.32 C 512.02 436.99 529.25 449.61 547.18 453.28 C 528.44 465.55 505.09 469.35 483.45 473.64 C 442.28 481.96 411.78 430.46 370.55 446.44 C 356.10 455.62 337.64 457.24 322.79 447.82 C 346.20 429.77 371.95 414.01 390.68 390.70 C 404.14 373.11 410.27 349.25 403.75 327.70 C 401.24 351.41 386.84 371.97 369.10 387.09 C 337.46 413.11 299.03 430.60 270.89 460.90 C 256.48 476.92 246.42 496.66 243.28 518.09 C 234.27 508.21 229.53 493.64 234.86 480.83 C 249.32 445.77 282.40 424.13 312.16 403.10 C 274.06 413.31 235.01 432.84 217.15 470.14 C 212.80 450.99 225.94 434.12 239.58 422.57 C 262.17 403.36 289.47 391.17 316.25 379.12 C 279.10 382.47 241.52 395.08 214.37 420.81 C 211.78 411.15 215.25 400.97 223.51 395.50 C 260.90 369.65 312.99 371.39 346.24 338.19 C 308.49 364.81 259.55 357.26 218.26 374.26 C 204.14 379.86 193.32 393.55 193.81 409.10 C 181.43 401.89 171.14 391.91 160.25 382.77 C 145.04 335.09 158.28 282.38 186.61 242.35 C 247.80 193.89 321.09 159.39 399.22 150.40 M 342.80 172.54 C 335.17 173.94 321.54 178.40 326.25 188.45 C 338.80 196.87 358.63 192.98 368.97 182.80 C 373.44 168.84 350.69 171.53 342.80 172.54 M 292.72 189.46 C 283.94 188.79 268.18 206.24 284.90 204.97 C 297.32 208.15 316.72 183.96 292.72 189.46 M 363.91 192.50 C 359.68 193.17 353.57 195.51 356.33 201.29 C 364.60 207.48 377.48 207.63 385.55 201.22 C 388.70 189.58 370.57 192.09 363.91 192.50 M 321.43 199.58 C 314.83 200.74 301.56 204.12 306.11 212.84 C 314.36 216.24 325.98 213.63 332.16 206.93 C 336.11 200.27 326.18 198.16 321.43 199.58 M 455.01 292.01 C 454.94 300.00 454.95 307.99 455.02 315.99 C 456.77 315.99 460.27 316.00 462.02 316.01 C 461.95 324.66 461.95 333.31 462.02 341.97 C 474.01 342.05 486.01 342.04 498.01 341.98 L 498.01 342.98 C 505.99 343.06 513.98 343.04 521.98 342.98 C 521.99 334.00 522.00 325.03 522.01 316.05 C 525.04 316.04 527.91 315.93 530.98 315.95 C 531.05 307.97 531.03 300.00 530.99 292.03 C 505.66 291.96 480.34 291.99 455.01 292.01 Z" />
<path fill="#937963" opacity="1.00" d=" M 342.80 172.54 C 350.69 171.53 373.44 168.84 368.97 182.80 C 358.63 192.98 338.80 196.87 326.25 188.45 C 321.54 178.40 335.17 173.94 342.80 172.54 Z" />
<path fill="#937963" opacity="1.00" d=" M 292.72 189.46 C 316.72 183.96 297.32 208.15 284.90 204.97 C 268.18 206.24 283.94 188.79 292.72 189.46 Z" />
<path fill="#937963" opacity="1.00" d=" M 363.91 192.50 C 370.57 192.09 388.70 189.58 385.55 201.22 C 377.48 207.63 364.60 207.48 356.33 201.29 C 353.57 195.51 359.68 193.17 363.91 192.50 Z" />
<path fill="#937963" opacity="1.00" d=" M 321.43 199.58 C 326.18 198.16 336.11 200.27 332.16 206.93 C 325.98 213.63 314.36 216.24 306.11 212.84 C 301.56 204.12 314.83 200.74 321.43 199.58 Z" />
<path fill="#000000" opacity="1.00" d=" M 455.01 292.01 C 480.34 291.99 505.66 291.96 530.99 292.03 C 531.03 300.00 531.05 307.97 530.98 315.95 C 527.91 315.93 525.04 316.04 522.01 316.05 C 522.00 325.03 521.99 334.00 521.98 342.98 C 513.98 343.04 505.99 343.06 498.01 342.98 L 498.01 341.98 C 498.02 333.33 498.00 324.68 497.97 316.03 C 485.98 315.95 474.00 315.97 462.02 316.01 C 460.27 316.00 456.77 315.99 455.02 315.99 C 454.95 307.99 454.94 300.00 455.01 292.01 Z" />
<path fill="#ffffff" opacity="1.00" d=" M 582.02 313.04 C 590.94 313.68 600.97 311.44 609.39 313.66 C 611.03 321.72 609.97 330.71 609.73 339.18 C 600.51 338.87 591.29 339.00 582.09 338.96 C 581.99 330.31 581.97 321.68 582.02 313.04 Z" />
<path fill="#ffffff" opacity="1.00" d=" M 462.02 316.01 C 474.00 315.97 485.98 315.95 497.97 316.03 C 498.00 324.68 498.02 333.33 498.01 341.98 C 486.01 342.04 474.01 342.05 462.02 341.97 C 461.95 333.31 461.95 324.66 462.02 316.01 Z" />
<path fill="#faaf40" opacity="1.00" d=" M 560.63 365.28 C 613.35 356.79 664.48 376.20 714.06 391.41 C 667.73 394.17 620.14 391.78 575.21 405.18 C 568.09 408.37 559.76 412.87 559.67 421.72 C 546.87 419.86 534.73 415.04 524.72 406.73 C 525.79 386.93 541.13 369.23 560.63 365.28 M 559.66 375.84 C 554.37 381.10 565.40 384.33 569.48 384.90 C 577.82 383.96 596.33 388.60 598.14 376.36 C 586.63 370.01 571.16 369.41 559.66 375.84 Z" />
<path fill="#ffffff" opacity="1.00" d=" M 559.66 375.84 C 571.16 369.41 586.63 370.01 598.14 376.36 C 596.33 388.60 577.82 383.96 569.48 384.90 C 565.40 384.33 554.37 381.10 559.66 375.84 Z" />
<path fill="#937963" opacity="1.00" d=" M 160.25 382.77 C 171.14 391.91 181.43 401.89 193.81 409.10 C 191.02 420.11 203.51 431.91 195.33 441.25 C 178.95 425.18 166.35 404.94 160.25 382.77 Z" />
<path fill="#f6921e" opacity="1.00" d=" M 656.34 406.34 C 668.57 403.82 681.13 403.96 693.49 402.35 C 651.76 418.01 610.01 436.81 565.03 440.02 C 547.19 439.32 519.70 429.15 524.72 406.73 C 534.73 415.04 546.87 419.86 559.67 421.72 C 562.41 422.11 565.29 422.23 568.08 422.12 C 598.08 421.25 627.31 413.28 656.34 406.34 Z" />
<path fill="#faaf40" opacity="1.00" d=" M 568.08 422.12 C 593.85 406.08 627.22 409.90 656.34 406.34 C 627.31 413.28 598.08 421.25 568.08 422.12 Z" />
<path fill="#937963" opacity="1.00" d=" M 370.55 446.44 C 411.78 430.46 442.28 481.96 483.45 473.64 C 505.09 469.35 528.44 465.55 547.18 453.28 C 559.15 456.86 571.80 456.28 584.10 455.06 C 552.08 478.66 513.55 492.13 474.58 498.60 C 410.15 508.98 342.71 508.34 280.04 488.73 C 291.68 472.67 306.85 459.48 322.79 447.82 C 337.64 457.24 356.10 455.62 370.55 446.44 Z" />
</svg>
