<?xml version="1.0" encoding="UTF-8" ?>
<!DOCTYPE svg PUBLIC "-//W3C//DTD SVG 1.1//EN" "http://www.w3.org/Graphics/SVG/1.1/DTD/svg11.dtd">
<svg width="927pt" height="633pt" viewBox="0 0 927 633" version="1.1" xmlns="http://www.w3.org/2000/svg">
<path fill="#000000" opacity="1.00" d=" M 592.43 5.98 C 615.11 1.31 638.64 20.53 639.93 43.47 C 641.56 58.47 636.73 73.29 629.08 86.02 C 660.76 97.40 684.79 125.95 692.44 158.49 C 698.28 176.30 692.23 196.20 696.09 213.73 C 771.26 253.80 847.65 291.99 922.31 332.86 C 846.54 333.20 770.78 332.88 695.01 333.01 C 694.98 349.34 694.95 365.66 695.01 381.99 C 741.11 382.19 787.23 381.65 833.33 382.24 C 785.95 408.31 736.99 432.60 689.19 458.23 C 676.64 494.67 641.86 521.76 603.71 525.89 C 531.58 526.33 459.43 525.58 387.30 526.24 C 379.95 526.62 372.60 527.03 365.26 527.24 C 340.51 526.84 315.76 526.99 291.02 527.05 C 283.10 526.96 275.20 527.01 267.29 526.82 C 216.15 526.26 169.98 483.83 166.12 432.64 C 165.73 397.38 166.21 362.11 165.95 326.85 C 137.94 350.88 98.46 371.07 61.40 356.57 C 47.13 349.48 29.59 336.29 33.84 318.30 C 48.69 299.07 76.22 299.84 98.16 295.30 C 73.15 288.16 48.37 275.67 32.37 254.62 C 18.16 235.41 11.36 206.94 24.73 185.77 C 36.56 174.60 55.15 182.31 67.72 188.30 C 103.83 206.99 135.76 232.83 165.60 260.22 C 166.50 235.13 165.81 210.02 165.94 184.91 C 163.96 154.98 178.54 125.87 199.82 105.48 C 198.04 79.38 207.48 49.10 229.67 33.88 C 239.12 51.46 245.51 84.38 271.63 78.92 C 276.68 62.15 284.01 43.22 299.67 33.88 C 305.60 50.18 314.52 65.29 325.34 78.81 C 400.95 79.18 476.56 79.02 552.16 78.89 C 533.36 70.10 514.25 61.21 498.24 47.78 C 492.24 43.16 489.54 32.39 497.24 28.17 C 528.20 9.65 568.82 23.07 592.00 48.08 C 587.94 35.30 578.55 15.10 592.43 5.98 M 293.98 72.04 C 293.33 74.35 292.69 76.65 292.04 78.96 L 296.96 78.96 C 296.31 76.65 295.66 74.35 295.02 72.04 L 293.98 72.04 M 224.37 72.46 C 213.11 99.78 224.97 129.21 238.98 153.02 C 260.47 187.57 291.01 215.34 323.02 239.98 C 279.64 228.57 240.75 200.85 215.69 163.67 C 205.62 172.49 204.65 187.82 210.96 199.08 C 223.36 221.72 246.95 234.60 267.96 248.02 C 294.78 262.74 322.56 275.80 351.25 286.40 C 308.23 285.99 264.63 272.66 228.76 248.38 C 226.07 276.23 240.59 304.38 265.21 317.78 C 295.56 333.66 330.72 338.40 364.58 338.22 C 327.09 344.24 284.80 343.26 249.46 326.53 C 212.71 308.40 204.37 263.24 208.75 226.27 C 202.82 220.42 197.53 213.96 193.59 206.61 C 192.21 259.32 193.33 312.22 193.07 365.00 C 192.99 386.55 192.80 408.11 193.12 429.66 C 195.43 463.83 223.88 493.33 257.35 498.85 C 345.93 499.17 434.53 498.97 523.11 498.94 C 548.33 499.04 573.55 499.04 598.78 499.00 C 637.71 496.72 671.00 459.12 668.07 420.09 C 667.88 341.43 668.10 262.77 667.96 184.11 C 670.37 143.92 635.59 107.64 595.99 105.92 C 490.93 106.19 385.87 105.77 280.82 106.13 C 293.25 119.41 307.56 130.69 320.75 143.18 L 321.69 143.16 L 320.75 143.18 C 376.16 189.47 439.50 247.78 437.34 326.12 C 432.85 289.00 411.51 256.31 386.67 229.33 C 347.60 187.57 299.07 156.48 257.27 117.73 C 243.72 104.79 231.33 90.06 224.37 72.46 M 206.19 138.99 C 203.37 142.19 201.77 146.21 199.91 150.00 C 202.77 147.28 211.36 142.67 206.19 138.99 M 695.11 233.94 C 695.05 238.23 695.02 242.53 695.04 246.84 C 694.89 254.84 694.95 262.85 695.12 270.86 C 694.79 285.57 695.05 300.28 695.01 314.99 C 746.42 314.55 797.89 315.91 849.26 314.32 C 797.64 287.97 746.56 260.63 695.11 233.94 M 695.00 398.02 C 694.99 399.68 694.99 401.35 694.99 403.03 C 695.02 406.05 694.97 409.02 695.05 412.08 C 694.95 420.50 694.67 428.91 694.28 437.33 C 719.08 424.40 743.79 411.34 768.61 398.47 C 744.11 397.28 719.53 398.34 695.00 398.02 Z" />
<path fill="#00adee" opacity="1.00" d=" M 293.98 72.04 L 295.02 72.04 C 295.66 74.35 296.31 76.65 296.96 78.96 L 292.04 78.96 C 292.69 76.65 293.33 74.35 293.98 72.04 Z" />
<path fill="#00adee" opacity="1.00" d=" M 224.37 72.46 C 231.33 90.06 243.72 104.79 257.27 117.73 C 299.07 156.48 347.60 187.57 386.67 229.33 C 411.51 256.31 432.85 289.00 437.34 326.12 C 439.50 247.78 376.16 189.47 320.75 143.18 L 321.69 143.16 C 413.39 142.85 505.11 142.99 596.82 143.07 C 625.70 143.29 652.01 160.80 667.96 184.11 C 668.10 262.77 667.88 341.43 668.07 420.09 C 671.00 459.12 637.71 496.72 598.78 499.00 C 573.55 499.04 548.33 499.04 523.11 498.94 C 500.54 461.51 462.90 436.87 424.99 417.00 C 353.19 381.90 272.89 364.43 193.07 365.00 C 193.33 312.22 192.21 259.32 193.59 206.61 C 197.53 213.96 202.82 220.42 208.75 226.27 C 204.37 263.24 212.71 308.40 249.46 326.53 C 284.80 343.26 327.09 344.24 364.58 338.22 C 330.72 338.40 295.56 333.66 265.21 317.78 C 240.59 304.38 226.07 276.23 228.76 248.38 C 264.63 272.66 308.23 285.99 351.25 286.40 C 322.56 275.80 294.78 262.74 267.96 248.02 C 246.95 234.60 223.36 221.72 210.96 199.08 C 204.65 187.82 205.62 172.49 215.69 163.67 C 240.75 200.85 279.64 228.57 323.02 239.98 C 291.01 215.34 260.47 187.57 238.98 153.02 C 224.97 129.21 213.11 99.78 224.37 72.46 M 504.03 257.03 C 470.77 280.73 462.20 330.92 482.00 365.99 C 497.21 394.44 529.40 413.41 561.84 411.09 C 603.61 411.09 642.28 375.52 644.72 333.71 C 658.80 287.25 623.91 235.07 575.91 229.94 C 549.30 227.52 522.00 236.99 504.03 257.03 M 470.04 398.49 C 459.22 399.75 456.67 413.72 464.27 420.70 C 479.10 436.86 503.36 447.03 525.16 441.33 C 535.08 438.90 534.75 425.61 528.66 419.33 C 514.00 403.69 491.39 395.27 470.04 398.49 Z" />
<path fill="#84d9f4" opacity="1.00" d=" M 280.82 106.13 C 385.87 105.77 490.93 106.19 595.99 105.92 C 635.59 107.64 670.37 143.92 667.96 184.11 C 652.01 160.80 625.70 143.29 596.82 143.07 C 505.11 142.99 413.39 142.85 321.69 143.16 L 320.75 143.18 C 307.56 130.69 293.25 119.41 280.82 106.13 Z" />
<path fill="#5890a2" opacity="1.00" d=" M 206.19 138.99 C 211.36 142.67 202.77 147.28 199.91 150.00 C 201.77 146.21 203.37 142.19 206.19 138.99 Z" />
<path fill="#000000" opacity="1.00" d=" M 504.03 257.03 C 522.00 236.99 549.30 227.52 575.91 229.94 C 623.91 235.07 658.80 287.25 644.72 333.71 C 636.52 359.73 616.04 381.61 589.85 389.88 C 557.99 399.79 520.75 388.10 500.67 361.34 C 477.03 331.31 478.24 285.50 504.03 257.03 M 529.40 255.05 L 529.22 255.72 C 503.56 271.78 491.10 306.67 503.13 334.95 C 516.88 375.09 570.82 391.62 604.39 365.57 L 603.46 365.46 C 628.48 350.30 639.22 315.67 628.36 288.55 C 615.32 249.43 563.53 231.90 529.40 255.05 Z" />
<path fill="#f6921e" opacity="1.00" d=" M 695.11 233.94 C 746.56 260.63 797.64 287.97 849.26 314.32 C 797.89 315.91 746.42 314.55 695.01 314.99 C 695.05 300.28 694.79 285.57 695.12 270.86 C 733.41 280.43 770.98 292.66 809.06 302.98 C 771.11 284.17 733.24 265.17 695.04 246.84 C 695.02 242.53 695.05 238.23 695.11 233.94 Z" />
<path fill="#ffffff" opacity="1.00" d=" M 529.40 255.05 C 563.53 231.90 615.32 249.43 628.36 288.55 C 639.22 315.67 628.48 350.30 603.46 365.46 C 563.96 369.94 524.31 338.58 522.07 298.56 C 519.92 283.64 524.60 269.55 529.22 255.72 L 529.40 255.05 M 562.99 330.93 C 576.51 352.77 614.76 335.21 605.86 310.54 C 603.08 321.88 585.29 321.88 583.26 310.41 C 580.65 302.81 587.83 298.21 593.34 294.89 C 571.52 283.93 548.24 311.66 562.99 330.93 Z" />
<path fill="#ffffff" opacity="1.00" d=" M 695.04 246.84 C 733.24 265.17 771.11 284.17 809.06 302.98 C 770.98 292.66 733.41 280.43 695.12 270.86 C 694.95 262.85 694.89 254.84 695.04 246.84 Z" />
<path fill="#d0d2d3" opacity="1.00" d=" M 503.13 334.95 C 491.10 306.67 503.56 271.78 529.22 255.72 C 524.60 269.55 519.92 283.64 522.07 298.56 C 524.31 338.58 563.96 369.94 603.46 365.46 L 604.39 365.57 C 570.82 391.62 516.88 375.09 503.13 334.95 Z" />
<path fill="#0594c1" opacity="1.00" d=" M 482.00 365.99 C 462.20 330.92 470.77 280.73 504.03 257.03 C 478.24 285.50 477.03 331.31 500.67 361.34 C 520.75 388.10 557.99 399.79 589.85 389.88 C 616.04 381.61 636.52 359.73 644.72 333.71 C 642.28 375.52 603.61 411.09 561.84 411.09 C 529.40 413.41 497.21 394.44 482.00 365.99 Z" />
<path fill="#000000" opacity="1.00" d=" M 562.99 330.93 C 548.24 311.66 571.52 283.93 593.34 294.89 C 587.83 298.21 580.65 302.81 583.26 310.41 C 585.29 321.88 603.08 321.88 605.86 310.54 C 614.76 335.21 576.51 352.77 562.99 330.93 Z" />
<path fill="#ffffff" opacity="1.00" d=" M 193.07 365.00 C 272.89 364.43 353.19 381.90 424.99 417.00 C 462.90 436.87 500.54 461.51 523.11 498.94 C 434.53 498.97 345.93 499.17 257.35 498.85 C 223.88 493.33 195.43 463.83 193.12 429.66 C 192.80 408.11 192.99 386.55 193.07 365.00 Z" />
<path fill="#000000" opacity="1.00" d=" M 470.04 398.49 C 491.39 395.27 514.00 403.69 528.66 419.33 C 534.75 425.61 535.08 438.90 525.16 441.33 C 503.36 447.03 479.10 436.86 464.27 420.70 C 456.67 413.72 459.22 399.75 470.04 398.49 Z" />
<path fill="#f6921e" opacity="1.00" d=" M 695.00 398.02 C 719.53 398.34 744.11 397.28 768.61 398.47 C 743.79 411.34 719.08 424.40 694.28 437.33 C 694.67 428.91 694.95 420.50 695.05 412.08 C 711.96 410.02 728.58 406.25 745.35 403.34 C 728.57 402.72 711.78 403.02 694.99 403.03 C 694.99 401.35 694.99 399.68 695.00 398.02 Z" />
<path fill="#ffffff" opacity="1.00" d=" M 694.99 403.03 C 711.78 403.02 728.57 402.72 745.35 403.34 C 728.58 406.25 711.96 410.02 695.05 412.08 C 694.97 409.02 695.02 406.05 694.99 403.03 Z" />
<path fill="#f6921e" opacity="1.00" d=" M 365.26 527.24 C 372.60 527.03 379.95 526.62 387.30 526.24 C 383.09 542.76 362.11 554.36 368.29 571.89 C 372.24 590.50 360.62 607.88 346.98 619.30 C 343.01 614.40 339.65 609.04 335.94 603.97 C 344.07 596.10 351.79 586.18 349.94 574.01 C 336.65 581.08 323.41 589.29 308.39 592.03 C 306.56 586.22 304.72 580.36 303.95 574.30 C 329.12 566.83 354.23 552.14 365.26 527.24 Z" />
<path fill="#f6921e" opacity="1.00" d=" M 266.33 526.79 L 267.29 526.82 C 275.20 527.01 283.10 526.96 291.02 527.05 C 285.04 539.64 273.96 549.01 265.23 559.33 C 270.96 583.20 258.64 610.78 235.54 620.05 C 233.00 613.97 229.61 608.31 227.03 602.26 C 236.96 595.47 246.82 585.25 245.01 572.07 C 229.87 578.92 213.92 584.57 197.23 585.89 C 196.97 578.95 196.11 572.09 195.17 565.22 C 222.54 562.81 250.10 549.43 266.33 526.79 Z" />
</svg>
