<?xml version="1.0" encoding="UTF-8" ?>
<!DOCTYPE svg PUBLIC "-//W3C//DTD SVG 1.1//EN" "http://www.w3.org/Graphics/SVG/1.1/DTD/svg11.dtd">
<svg width="1346pt" height="1055pt" viewBox="0 0 1346 1055" version="1.1" xmlns="http://www.w3.org/2000/svg">
<path fill="#000000" opacity="1.00" d=" M 792.93 21.96 C 825.22 18.74 857.21 12.12 889.74 12.05 C 930.63 14.03 965.30 49.58 969.20 89.89 C 969.99 111.79 975.04 133.18 977.06 154.94 C 1001.12 153.05 1025.96 146.93 1049.65 154.38 C 1085.46 163.13 1116.23 194.68 1117.24 232.66 C 1129.24 278.07 1095.42 322.92 1053.12 336.15 C 1065.96 357.10 1083.41 375.84 1095.24 397.82 C 1132.52 383.82 1171.66 406.63 1190.13 438.87 C 1225.95 499.30 1220.37 589.91 1163.22 635.41 C 1164.48 653.92 1160.04 671.82 1157.31 689.92 C 1200.03 697.35 1242.46 708.02 1282.84 724.14 C 1300.76 732.30 1320.61 742.34 1328.48 761.61 C 1334.65 778.56 1323.68 796.79 1309.05 805.06 C 1268.61 832.60 1218.48 837.66 1171.17 843.16 C 1134.58 845.04 1097.44 843.93 1061.10 843.02 C 981.00 907.23 877.58 932.48 777.22 941.21 C 648.84 949.42 512.09 937.64 398.94 871.07 C 358.93 846.91 322.62 815.17 297.75 775.26 C 270.18 732.68 258.39 681.94 255.37 631.78 C 197.18 672.20 127.86 700.35 56.26 699.87 C 39.09 697.89 18.06 692.53 11.05 674.74 C 4.99 650.76 23.60 631.51 37.85 614.85 C 73.08 581.32 116.73 557.61 162.33 541.35 C 163.90 540.43 166.70 540.43 166.88 538.18 C 120.96 507.66 77.25 469.98 51.81 420.18 C 45.12 404.61 38.26 384.53 49.64 369.58 C 63.22 351.40 90.47 355.67 109.99 360.04 C 178.53 380.17 238.74 424.92 283.27 480.11 C 292.46 456.55 304.36 434.19 315.60 411.58 C 315.58 405.54 312.39 399.61 311.52 393.59 C 286.26 372.98 282.91 337.86 283.48 307.70 C 291.74 258.81 340.67 227.88 387.91 227.69 C 387.84 206.37 381.43 185.68 380.72 164.40 C 371.15 119.14 405.51 70.72 451.05 64.03 C 565.02 49.80 678.96 35.81 792.93 21.96 M 834.31 56.30 C 708.95 71.39 583.66 87.25 458.29 102.22 C 423.22 108.03 411.08 148.61 422.14 179.03 C 424.61 192.31 424.52 205.93 427.18 219.16 C 460.48 215.63 493.59 210.79 526.87 207.30 C 534.56 197.63 540.24 186.43 548.00 176.76 C 557.95 183.99 564.32 197.48 576.16 201.09 C 696.39 186.10 816.78 171.91 937.00 156.67 C 936.35 143.27 933.68 130.07 932.01 116.78 C 933.17 91.98 924.91 63.07 899.29 53.71 C 878.20 47.64 855.66 53.97 834.31 56.30 M 1007.29 191.26 C 794.87 217.56 582.21 243.37 369.81 269.69 C 363.87 271.75 357.33 272.73 352.11 276.42 C 360.51 303.29 378.84 326.02 396.60 347.53 C 405.83 356.91 414.84 366.54 424.10 375.92 C 444.88 373.41 465.72 371.49 486.46 368.57 C 490.43 361.62 494.89 354.93 500.02 348.77 C 505.99 353.53 510.51 360.43 516.50 364.77 C 544.35 360.71 572.48 358.54 600.39 354.51 C 607.28 342.95 616.39 332.81 622.55 320.80 C 624.58 318.42 626.39 315.85 628.50 313.53 C 629.84 315.01 632.51 317.95 633.84 319.42 L 634.71 319.32 L 633.85 319.42 C 643.13 328.28 652.03 337.53 660.94 346.77 C 783.59 332.17 906.16 316.79 1028.73 301.72 C 1051.57 298.12 1076.20 281.93 1078.67 257.29 C 1082.30 247.82 1077.31 237.66 1077.08 228.01 C 1070.48 198.67 1034.46 184.73 1007.29 191.26 M 347.59 407.40 C 375.31 467.36 425.44 513.37 476.97 553.04 C 417.52 537.89 364.60 499.26 329.80 448.91 C 316.55 459.74 314.45 479.17 321.76 494.19 C 332.09 515.71 351.49 530.86 370.45 544.56 C 415.79 575.42 466.07 598.16 517.23 617.50 C 457.74 615.22 396.87 599.06 347.74 564.20 C 345.81 596.61 357.53 631.82 385.06 650.94 C 427.77 681.30 482.48 686.49 533.30 688.66 C 484.06 693.65 431.64 695.31 385.00 676.02 C 359.89 665.24 338.68 644.74 329.13 618.89 C 317.33 592.79 320.39 563.65 320.70 535.91 C 316.29 531.40 313.03 523.41 307.16 521.31 C 291.88 578.31 282.88 641.17 303.03 697.89 C 322.05 773.76 386.50 829.35 455.71 860.29 C 568.09 909.10 694.72 914.61 814.97 901.01 C 883.56 891.08 952.30 872.18 1011.27 834.68 C 994.70 830.54 975.58 826.92 965.94 811.04 C 948.89 782.21 952.81 745.77 963.25 715.26 C 971.11 693.99 988.12 673.34 1011.92 670.74 C 1048.91 670.93 1085.33 677.28 1121.78 682.82 C 1123.28 672.16 1127.20 661.76 1125.56 650.83 C 1125.00 650.99 1123.87 651.32 1123.31 651.48 C 1084.55 651.97 1053.03 621.85 1039.32 587.70 C 1019.27 540.71 1023.32 485.00 1047.15 440.18 C 1053.17 432.82 1057.81 424.28 1065.00 417.86 C 1048.85 391.83 1031.46 365.60 1009.59 344.10 C 827.83 366.92 645.74 388.15 464.00 411.66 C 507.18 449.37 551.66 486.67 586.05 532.94 C 615.41 572.67 635.48 621.32 633.69 671.24 C 627.48 624.79 603.02 583.15 572.66 548.33 C 527.76 497.10 471.70 457.72 419.55 414.45 C 389.17 388.41 356.35 361.34 341.75 322.88 C 330.26 350.15 336.99 380.97 347.59 407.40 M 1108.16 419.99 C 1075.57 430.56 1057.21 466.40 1054.21 498.45 C 1045.72 543.05 1059.35 605.43 1106.93 624.06 C 1134.95 633.11 1161.09 610.06 1172.27 586.29 C 1189.79 552.06 1192.34 510.00 1179.10 473.90 C 1169.87 444.54 1142.59 411.66 1108.16 419.99 M 1012.94 707.32 C 996.28 718.46 991.89 741.31 990.82 760.00 C 991.97 771.29 988.88 790.50 1002.93 795.11 C 1056.59 810.37 1113.07 808.94 1168.30 807.33 C 1206.89 802.98 1248.00 799.30 1281.94 779.00 C 1285.73 777.58 1290.10 775.64 1292.14 771.99 C 1286.07 764.46 1275.87 762.00 1267.85 757.16 C 1226.50 739.92 1182.25 731.56 1138.60 722.40 C 1097.10 714.87 1055.26 706.86 1012.94 707.32 Z" />
<path fill="#ee4036" opacity="1.00" d=" M 834.31 56.30 C 855.66 53.97 878.20 47.64 899.29 53.71 C 924.91 63.07 933.17 91.98 932.01 116.78 C 762.03 137.33 592.16 158.85 422.14 179.03 C 411.08 148.61 423.22 108.03 458.29 102.22 C 583.66 87.25 708.95 71.39 834.31 56.30 Z" />
<path fill="#be1e2d" opacity="1.00" d=" M 422.14 179.03 C 592.16 158.85 762.03 137.33 932.01 116.78 C 933.68 130.07 936.35 143.27 937.00 156.67 C 816.78 171.91 696.39 186.10 576.16 201.09 C 564.32 197.48 557.95 183.99 548.00 176.76 C 540.24 186.43 534.56 197.63 526.87 207.30 C 493.59 210.79 460.48 215.63 427.18 219.16 C 424.52 205.93 424.61 192.31 422.14 179.03 Z" />
<path fill="#ffffff" opacity="1.00" d=" M 1007.29 191.26 C 1034.46 184.73 1070.48 198.67 1077.08 228.01 C 1077.31 237.66 1082.30 247.82 1078.67 257.29 C 1059.74 267.23 1038.55 270.88 1017.44 272.42 C 889.86 288.06 762.31 303.85 634.71 319.32 L 633.84 319.42 C 632.51 317.95 629.84 315.01 628.50 313.53 C 626.39 315.85 624.58 318.42 622.55 320.80 C 547.24 329.61 472.04 340.70 396.60 347.53 C 378.84 326.02 360.51 303.29 352.11 276.42 C 357.33 272.73 363.87 271.75 369.81 269.69 C 582.21 243.37 794.87 217.56 1007.29 191.26 Z" />
<path fill="#bbbdbf" opacity="1.00" d=" M 1017.44 272.42 C 1038.55 270.88 1059.74 267.23 1078.67 257.29 C 1076.20 281.93 1051.57 298.12 1028.73 301.72 C 906.16 316.79 783.59 332.17 660.94 346.77 C 652.03 337.53 643.13 328.28 633.85 319.42 L 634.71 319.32 C 762.31 303.85 889.86 288.06 1017.44 272.42 Z" />
<path fill="#bbbdbf" opacity="1.00" d=" M 396.60 347.53 C 472.04 340.70 547.24 329.61 622.55 320.80 C 616.39 332.81 607.28 342.95 600.39 354.51 C 572.48 358.54 544.35 360.71 516.50 364.77 C 510.51 360.43 505.99 353.53 500.02 348.77 C 494.89 354.93 490.43 361.62 486.46 368.57 C 465.72 371.49 444.88 373.41 424.10 375.92 C 414.84 366.54 405.83 356.91 396.60 347.53 Z" />
<path fill="#ffcc00" opacity="1.00" d=" M 347.59 407.40 C 336.99 380.97 330.26 350.15 341.75 322.88 C 356.35 361.34 389.17 388.41 419.55 414.45 C 471.70 457.72 527.76 497.10 572.66 548.33 C 603.02 583.15 627.48 624.79 633.69 671.24 C 635.48 621.32 615.41 572.67 586.05 532.94 C 551.66 486.67 507.18 449.37 464.00 411.66 C 645.74 388.15 827.83 366.92 1009.59 344.10 C 1031.46 365.60 1048.85 391.83 1065.00 417.86 C 1057.81 424.28 1053.17 432.82 1047.15 440.18 C 992.35 488.16 991.02 583.87 1041.65 635.34 C 1061.96 657.23 1096.22 664.57 1123.31 651.48 C 1123.87 651.32 1125.00 650.99 1125.56 650.83 C 1127.20 661.76 1123.28 672.16 1121.78 682.82 C 1085.33 677.28 1048.91 670.93 1011.92 670.74 C 1013.49 670.47 1016.63 669.94 1018.21 669.68 C 998.30 650.76 966.07 655.03 947.01 673.00 C 911.86 704.89 899.71 758.10 912.12 803.16 C 874.42 811.70 836.04 819.60 797.28 819.90 C 762.62 816.02 729.76 801.89 694.78 800.22 C 665.36 798.26 642.58 825.71 612.72 820.67 C 584.18 815.65 561.44 794.66 533.28 788.47 C 516.06 784.14 502.85 803.19 485.71 797.48 C 463.35 787.25 452.79 761.89 431.10 750.74 C 412.48 742.73 394.38 762.47 376.10 753.01 C 349.39 738.04 325.02 719.15 303.03 697.89 C 282.88 641.17 291.88 578.31 307.16 521.31 C 313.03 523.41 316.29 531.40 320.70 535.91 C 320.39 563.65 317.33 592.79 329.13 618.89 C 338.68 644.74 359.89 665.24 385.00 676.02 C 431.64 695.31 484.06 693.65 533.30 688.66 C 482.48 686.49 427.77 681.30 385.06 650.94 C 357.53 631.82 345.81 596.61 347.74 564.20 C 396.87 599.06 457.74 615.22 517.23 617.50 C 466.07 598.16 415.79 575.42 370.45 544.56 C 351.49 530.86 332.09 515.71 321.76 494.19 C 314.45 479.17 316.55 459.74 329.80 448.91 C 364.60 499.26 417.52 537.89 476.97 553.04 C 425.44 513.37 375.31 467.36 347.59 407.40 M 847.06 391.83 C 817.95 393.31 793.44 414.05 775.99 435.99 C 735.06 491.58 733.47 572.76 771.43 630.29 C 752.92 643.63 734.82 657.59 715.90 670.35 C 721.03 678.98 727.34 686.82 733.21 694.95 C 753.11 681.96 771.77 667.06 791.32 653.52 C 795.70 658.61 801.36 662.62 807.16 665.97 C 797.14 686.69 784.43 706.00 774.89 726.95 C 783.23 732.25 792.09 736.63 800.95 740.99 C 812.00 720.46 823.57 700.09 833.94 679.28 C 877.48 693.12 927.25 672.19 950.94 633.95 C 1008.25 573.94 1009.36 467.49 951.29 407.71 C 925.20 379.87 879.99 371.39 847.06 391.83 Z" />
<path fill="#000000" opacity="1.00" d=" M 847.06 391.83 C 879.99 371.39 925.20 379.87 951.29 407.71 C 1009.36 467.49 1008.25 573.94 950.94 633.95 C 920.49 666.00 865.69 669.28 833.03 638.97 C 763.00 575.99 766.93 444.70 847.06 391.83 M 868.94 411.95 C 837.80 425.78 819.28 459.61 814.79 492.20 L 814.40 491.40 C 805.40 540.68 819.15 604.85 868.37 628.64 C 901.12 643.99 936.07 617.99 950.04 589.04 C 967.14 558.04 969.64 520.56 962.79 486.28 C 955.76 456.12 939.29 425.48 909.92 412.12 C 897.11 405.68 882.09 407.87 868.94 411.95 Z" />
<path fill="#cea806" opacity="1.00" d=" M 775.99 435.99 C 793.44 414.05 817.95 393.31 847.06 391.83 C 766.93 444.70 763.00 575.99 833.03 638.97 C 865.69 669.28 920.49 666.00 950.94 633.95 C 927.25 672.19 877.48 693.12 833.94 679.28 C 824.73 675.43 816.32 669.93 807.16 665.97 C 801.36 662.62 795.70 658.61 791.32 653.52 C 786.17 644.86 780.43 636.59 774.02 628.83 C 773.14 629.29 772.28 629.78 771.43 630.29 C 733.47 572.76 735.06 491.58 775.99 435.99 Z" />
<path fill="#ffffff" opacity="1.00" d=" M 868.94 411.95 C 882.09 407.87 897.11 405.68 909.92 412.12 C 939.29 425.48 955.76 456.12 962.79 486.28 C 969.64 520.56 967.14 558.04 950.04 589.04 C 928.49 606.57 896.10 610.76 872.00 596.01 C 835.34 575.20 818.52 532.33 814.79 492.20 C 819.28 459.61 837.80 425.78 868.94 411.95 M 894.72 495.71 C 884.05 520.55 885.91 558.72 912.20 573.07 C 934.79 579.80 947.35 553.41 948.98 535.18 C 939.30 533.26 929.57 531.56 920.05 528.91 C 927.98 518.91 936.55 509.43 944.69 499.61 C 943.13 489.62 935.20 480.73 926.26 476.47 C 911.86 472.09 899.56 483.26 894.72 495.71 Z" />
<path fill="#ffffff" opacity="1.00" d=" M 1108.16 419.99 C 1142.59 411.66 1169.87 444.54 1179.10 473.90 C 1192.34 510.00 1189.79 552.06 1172.27 586.29 C 1153.89 600.17 1127.43 605.20 1106.92 593.06 C 1073.05 574.67 1057.95 534.90 1054.21 498.45 C 1057.21 466.40 1075.57 430.56 1108.16 419.99 M 1124.16 500.15 C 1114.31 523.34 1116.84 557.42 1140.33 571.06 C 1160.31 576.17 1171.45 551.93 1171.81 535.47 C 1163.38 534.59 1155.22 532.34 1146.96 530.63 C 1152.98 520.51 1162.00 512.46 1168.88 502.88 C 1165.73 494.01 1160.44 484.96 1151.36 481.28 C 1138.53 478.39 1128.25 489.16 1124.16 500.15 Z" />
<path fill="#cea806" opacity="1.00" d=" M 1041.65 635.34 C 991.02 583.87 992.35 488.16 1047.15 440.18 C 1023.32 485.00 1019.27 540.71 1039.32 587.70 C 1053.03 621.85 1084.55 651.97 1123.31 651.48 C 1096.22 664.57 1061.96 657.23 1041.65 635.34 Z" />
<path fill="#000000" opacity="1.00" d=" M 894.72 495.71 C 899.56 483.26 911.86 472.09 926.26 476.47 C 935.20 480.73 943.13 489.62 944.69 499.61 C 936.55 509.43 927.98 518.91 920.05 528.91 C 929.57 531.56 939.30 533.26 948.98 535.18 C 947.35 553.41 934.79 579.80 912.20 573.07 C 885.91 558.72 884.05 520.55 894.72 495.71 Z" />
<path fill="#000000" opacity="1.00" d=" M 1124.16 500.15 C 1128.25 489.16 1138.53 478.39 1151.36 481.28 C 1160.44 484.96 1165.73 494.01 1168.88 502.88 C 1162.00 512.46 1152.98 520.51 1146.96 530.63 C 1155.22 532.34 1163.38 534.59 1171.81 535.47 C 1171.45 551.93 1160.31 576.17 1140.33 571.06 C 1116.84 557.42 1114.31 523.34 1124.16 500.15 Z" />
<path fill="#d0d2d3" opacity="1.00" d=" M 814.40 491.40 L 814.79 492.20 C 818.52 532.33 835.34 575.20 872.00 596.01 C 896.10 610.76 928.49 606.57 950.04 589.04 C 936.07 617.99 901.12 643.99 868.37 628.64 C 819.15 604.85 805.40 540.68 814.40 491.40 Z" />
<path fill="#d0d2d3" opacity="1.00" d=" M 1106.93 624.06 C 1059.35 605.43 1045.72 543.05 1054.21 498.45 C 1057.95 534.90 1073.05 574.67 1106.92 593.06 C 1127.43 605.20 1153.89 600.17 1172.27 586.29 C 1161.09 610.06 1134.95 633.11 1106.93 624.06 Z" />
<path fill="#000000" opacity="1.00" d=" M 771.43 630.29 C 772.28 629.78 773.14 629.29 774.02 628.83 C 780.43 636.59 786.17 644.86 791.32 653.52 C 771.77 667.06 753.11 681.96 733.21 694.95 C 727.34 686.82 721.03 678.98 715.90 670.35 C 734.82 657.59 752.92 643.63 771.43 630.29 Z" />
<path fill="#cea806" opacity="1.00" d=" M 947.01 673.00 C 966.07 655.03 998.30 650.76 1018.21 669.68 C 1016.63 669.94 1013.49 670.47 1011.92 670.74 C 988.12 673.34 971.11 693.99 963.25 715.26 C 952.81 745.77 948.89 782.21 965.94 811.04 C 975.58 826.92 994.70 830.54 1011.27 834.68 C 952.30 872.18 883.56 891.08 814.97 901.01 C 694.72 914.61 568.09 909.10 455.71 860.29 C 386.50 829.35 322.05 773.76 303.03 697.89 C 325.02 719.15 349.39 738.04 376.10 753.01 C 394.38 762.47 412.48 742.73 431.10 750.74 C 452.79 761.89 463.35 787.25 485.71 797.48 C 502.85 803.19 516.06 784.14 533.28 788.47 C 561.44 794.66 584.18 815.65 612.72 820.67 C 642.58 825.71 665.36 798.26 694.78 800.22 C 729.76 801.89 762.62 816.02 797.28 819.90 C 836.04 819.60 874.42 811.70 912.12 803.16 C 899.71 758.10 911.86 704.89 947.01 673.00 Z" />
<path fill="#000000" opacity="1.00" d=" M 807.16 665.97 C 816.32 669.93 824.73 675.43 833.94 679.28 C 823.57 700.09 812.00 720.46 800.95 740.99 C 792.09 736.63 783.23 732.25 774.89 726.95 C 784.43 706.00 797.14 686.69 807.16 665.97 Z" />
<path fill="#ff6600" opacity="1.00" d=" M 1012.94 707.32 C 1055.26 706.86 1097.10 714.87 1138.60 722.40 C 1182.25 731.56 1226.50 739.92 1267.85 757.16 C 1275.87 762.00 1286.07 764.46 1292.14 771.99 C 1290.10 775.64 1285.73 777.58 1281.94 779.00 C 1184.77 791.50 1086.66 776.24 990.82 760.00 C 991.89 741.31 996.28 718.46 1012.94 707.32 Z" />
<path fill="#cc3300" opacity="1.00" d=" M 990.82 760.00 C 1086.66 776.24 1184.77 791.50 1281.94 779.00 C 1248.00 799.30 1206.89 802.98 1168.30 807.33 C 1113.07 808.94 1056.59 810.37 1002.93 795.11 C 988.88 790.50 991.97 771.29 990.82 760.00 Z" />
</svg>
