<?xml version="1.0" encoding="UTF-8" ?>
<!DOCTYPE svg PUBLIC "-//W3C//DTD SVG 1.1//EN" "http://www.w3.org/Graphics/SVG/1.1/DTD/svg11.dtd">
<svg width="1412pt" height="1300pt" viewBox="0 0 1412 1300" version="1.1" xmlns="http://www.w3.org/2000/svg">
<path fill="#000000" opacity="1.00" d=" M 740.71 147.70 C 778.77 129.24 828.78 142.57 851.43 178.58 C 864.28 202.14 874.12 227.20 886.30 251.10 C 908.67 240.16 931.65 228.15 957.16 227.93 C 991.41 226.15 1026.84 244.97 1041.36 276.66 C 1045.71 287.80 1052.53 298.06 1053.81 310.25 C 1060.83 350.06 1035.68 389.74 1001.21 408.21 C 976.80 420.71 951.47 431.20 926.83 443.21 C 1004.40 479.61 1073.51 534.64 1123.97 604.09 C 1125.86 607.67 1130.28 604.78 1132.85 604.06 C 1152.88 595.49 1175.70 600.60 1194.03 610.96 C 1224.35 629.57 1242.48 663.19 1249.71 697.27 C 1261.12 744.96 1251.79 801.46 1215.46 836.50 C 1214.25 854.64 1216.05 872.91 1213.89 891.00 C 1260.15 896.37 1306.90 902.06 1350.92 918.08 C 1367.16 924.25 1384.72 933.65 1391.32 950.80 C 1396.56 964.26 1390.27 978.96 1380.26 988.30 C 1357.62 1009.41 1328.25 1021.14 1299.10 1030.11 C 1244.83 1044.83 1188.53 1051.95 1132.30 1051.26 C 1062.65 1120.11 966.52 1154.49 872.26 1173.29 C 834.93 1178.73 797.57 1185.20 759.78 1186.10 C 740.26 1217.66 722.66 1252.96 724.56 1291.18 C 683.66 1278.05 657.38 1234.32 656.66 1192.45 C 642.69 1178.25 620.81 1184.50 603.17 1179.78 C 582.89 1213.58 562.47 1250.32 564.57 1291.16 C 523.65 1278.07 497.37 1234.30 496.66 1192.43 C 476.84 1178.85 459.64 1157.51 459.70 1132.44 C 401.01 1101.01 351.45 1049.47 328.04 987.46 C 304.10 1028.77 273.86 1070.35 231.86 1095.85 C 219.65 1102.20 204.45 1108.80 190.82 1103.26 C 167.04 1093.43 168.52 1061.65 170.49 1040.63 C 178.56 988.87 202.51 940.80 232.08 898.05 C 180.26 900.60 126.59 896.57 78.58 875.42 C 61.41 867.74 42.98 856.77 36.94 837.82 C 32.44 823.31 42.60 809.67 53.83 801.82 C 78.05 784.10 108.15 778.06 137.10 773.03 C 197.30 766.51 260.24 768.40 316.78 792.10 C 324.19 757.30 335.86 723.64 350.19 691.13 C 298.82 682.87 264.72 627.05 274.39 577.39 C 282.93 540.41 313.58 515.00 346.98 500.81 C 334.76 465.24 307.05 433.20 312.18 393.35 C 315.06 362.10 336.81 333.63 365.83 321.84 C 490.72 263.65 615.70 205.65 740.71 147.70 M 756.01 184.07 C 634.44 240.43 512.94 296.96 391.41 353.41 C 379.35 358.79 366.16 364.12 359.10 376.07 C 343.09 397.59 353.51 424.66 365.68 445.17 C 370.90 457.34 376.29 469.46 382.27 481.28 C 413.22 468.59 442.95 452.97 473.65 439.66 C 477.77 427.88 480.42 415.67 484.27 403.82 C 498.54 406.50 511.32 425.62 526.06 415.14 C 633.66 364.99 741.40 315.16 849.01 265.03 C 843.38 252.93 838.30 240.56 831.94 228.81 C 827.87 218.40 823.03 208.26 817.44 198.59 C 803.94 179.77 776.50 173.04 756.01 184.07 M 918.52 279.52 C 736.42 364.09 554.38 448.79 372.21 533.21 C 353.15 542.42 331.59 549.82 320.13 569.12 C 304.98 589.46 313.41 618.25 328.06 635.18 C 346.30 660.34 384.50 654.86 408.59 640.59 C 434.00 629.12 459.04 616.83 484.50 605.49 C 486.23 597.79 489.21 590.50 491.50 582.99 C 500.74 585.24 509.40 596.39 519.15 589.24 C 542.62 577.85 566.93 568.08 589.91 555.78 C 591.99 542.87 597.13 530.77 600.15 518.13 C 602.08 515.58 601.89 511.96 602.92 509.07 C 605.88 510.57 608.84 512.15 611.83 513.63 C 625.75 518.58 639.77 535.43 655.20 526.25 C 761.77 476.31 868.66 427.06 975.33 377.33 C 999.37 367.26 1019.65 342.15 1014.68 314.83 C 1008.94 297.13 1000.27 277.10 980.98 271.07 C 960.30 262.11 937.37 269.56 918.52 279.52 M 874.53 467.47 C 722.80 538.18 570.81 608.31 419.20 679.20 C 407.89 686.49 389.62 684.36 385.82 699.88 C 346.43 784.71 327.69 886.13 362.78 975.22 C 379.16 1021.01 412.91 1060.08 453.75 1086.08 C 448.55 1056.75 467.06 1032.15 489.18 1015.84 L 488.36 1015.94 C 529.80 989.60 581.44 974.65 611.03 933.01 C 598.37 978.19 554.01 1002.31 519.17 1029.17 C 500.62 1043.94 475.15 1060.96 478.36 1087.81 C 506.67 1055.06 547.51 1035.84 588.15 1023.12 C 557.71 1047.80 522.67 1069.66 501.95 1103.92 C 490.03 1120.59 494.12 1145.74 508.08 1158.70 C 520.06 1094.42 581.31 1054.83 635.96 1026.94 C 595.81 1067.29 552.08 1109.15 535.50 1165.48 C 529.68 1190.01 529.33 1217.55 540.58 1240.47 C 548.24 1180.18 594.19 1135.57 628.92 1088.91 C 667.49 1041.74 705.33 982.64 690.16 918.66 C 707.27 968.50 692.73 1022.36 670.64 1068.24 L 669.83 1068.01 C 657.21 1095.39 640.16 1120.43 624.11 1145.86 C 695.00 1156.05 767.38 1152.09 838.07 1142.13 C 924.23 1128.82 1011.14 1102.69 1081.06 1048.80 C 1063.25 1046.09 1042.06 1043.04 1031.66 1026.33 C 1013.13 998.42 1015.18 961.81 1023.76 930.76 C 1030.39 906.31 1051.50 884.22 1078.06 884.17 C 1111.33 884.09 1144.56 885.56 1177.72 887.99 C 1178.46 876.99 1179.07 865.99 1179.01 854.97 C 1178.10 855.42 1177.20 855.88 1176.32 856.35 C 1147.84 858.91 1119.61 844.99 1102.22 822.77 C 1064.30 776.17 1058.15 708.72 1080.95 653.95 C 1085.64 645.06 1093.22 636.35 1096.49 627.47 C 1044.40 556.34 972.10 499.11 889.57 467.35 C 884.82 465.22 879.16 464.82 874.53 467.47 M 1141.10 627.15 C 1110.00 640.50 1095.12 675.76 1093.28 707.70 C 1090.05 753.10 1105.59 808.52 1150.55 828.72 C 1180.86 840.27 1210.00 814.38 1219.05 787.05 C 1240.40 738.09 1229.43 671.71 1187.38 636.63 C 1174.60 626.56 1156.93 620.94 1141.10 627.15 M 1085.41 920.46 C 1056.77 918.43 1053.39 954.87 1053.64 976.25 C 1055.19 988.17 1054.84 1007.18 1069.69 1010.40 C 1111.75 1018.05 1154.99 1015.68 1197.43 1012.47 C 1247.92 1005.50 1301.49 999.19 1344.89 970.18 L 1344.10 970.33 C 1348.92 968.62 1352.54 964.79 1356.44 961.65 C 1330.06 943.52 1297.00 941.67 1266.79 934.20 C 1206.82 925.05 1146.07 920.06 1085.41 920.46 M 692.01 1188.13 C 691.24 1205.73 692.26 1224.54 700.54 1240.45 C 702.35 1221.99 709.43 1204.74 717.11 1188.05 C 708.73 1187.94 700.37 1187.95 692.01 1188.13 Z" />
<path fill="#f05a28" opacity="1.00" d=" M 961.57 161.52 C 964.17 154.25 967.54 147.23 971.86 140.82 C 975.36 147.76 978.81 154.74 982.41 161.64 C 990.65 162.45 998.72 164.36 1006.95 165.35 C 1001.24 170.61 995.63 175.98 990.04 181.35 C 989.58 189.70 991.61 197.80 993.14 205.93 C 986.93 203.23 981.13 199.67 975.04 196.79 C 966.04 194.67 959.55 203.37 951.29 205.29 C 951.65 197.67 953.95 190.18 953.74 182.56 C 948.59 176.54 942.72 171.21 937.04 165.71 C 945.29 164.87 953.49 163.46 961.57 161.52 Z" />
<path fill="#ee4036" opacity="1.00" d=" M 756.01 184.07 C 776.50 173.04 803.94 179.77 817.44 198.59 C 823.03 208.26 827.87 218.40 831.94 228.81 C 676.23 300.28 520.99 372.82 365.68 445.17 C 353.51 424.66 343.09 397.59 359.10 376.07 C 366.16 364.12 379.35 358.79 391.41 353.41 C 512.94 296.96 634.44 240.43 756.01 184.07 Z" />
<path fill="#be1e2d" opacity="1.00" d=" M 365.68 445.17 C 520.99 372.82 676.23 300.28 831.94 228.81 C 838.30 240.56 843.38 252.93 849.01 265.03 C 741.40 315.16 633.66 364.99 526.06 415.14 C 511.32 425.62 498.54 406.50 484.27 403.82 C 480.42 415.67 477.77 427.88 473.65 439.66 C 442.95 452.97 413.22 468.59 382.27 481.28 C 376.29 469.46 370.90 457.34 365.68 445.17 Z" />
<path fill="#f05a28" opacity="1.00" d=" M 1118.52 270.54 C 1122.24 260.84 1127.11 251.61 1132.64 242.82 C 1137.07 252.17 1141.56 261.50 1146.43 270.65 C 1156.83 270.67 1166.74 274.28 1177.15 274.39 C 1170.25 282.20 1161.52 288.41 1155.37 296.82 C 1154.68 307.39 1158.39 317.59 1160.16 327.90 C 1151.39 322.22 1141.68 318.26 1132.76 312.86 C 1123.28 317.16 1114.42 322.67 1104.93 326.95 C 1105.70 316.77 1108.72 306.88 1108.99 296.68 C 1103.65 287.88 1093.49 283.15 1087.75 274.51 C 1098.06 273.64 1108.23 271.67 1118.52 270.54 Z" />
<path fill="#f05a28" opacity="1.00" d=" M 199.21 264.68 C 201.44 268.93 203.73 273.17 205.34 277.70 C 210.30 278.43 215.29 279.01 220.29 279.41 C 211.76 284.72 208.00 293.41 210.85 303.03 C 203.54 296.75 194.59 297.57 187.20 303.09 C 190.85 293.42 187.16 284.86 178.67 279.37 C 183.40 278.88 188.14 278.41 192.87 277.87 C 194.89 273.43 197.02 269.04 199.21 264.68 Z" />
<path fill="#ffffff" opacity="1.00" d=" M 918.52 279.52 C 937.37 269.56 960.30 262.11 980.98 271.07 C 1000.27 277.10 1008.94 297.13 1014.68 314.83 C 997.69 337.60 969.20 345.65 944.85 357.85 C 834.02 410.10 721.92 459.97 611.83 513.63 C 608.84 512.15 605.88 510.57 602.92 509.07 C 601.89 511.96 602.08 515.58 600.15 518.13 C 522.07 553.85 444.48 590.65 366.38 626.34 C 354.45 632.18 341.15 634.09 328.06 635.18 C 313.41 618.25 304.98 589.46 320.13 569.12 C 331.59 549.82 353.15 542.42 372.21 533.21 C 554.38 448.79 736.42 364.09 918.52 279.52 Z" />
<path fill="#f05a28" opacity="1.00" d=" M 55.75 330.84 C 61.22 321.77 64.78 311.66 70.62 302.83 C 74.91 312.23 80.15 321.15 84.43 330.56 C 94.64 332.41 105.03 332.75 115.28 334.31 C 107.94 341.69 100.54 349.01 93.05 356.25 C 93.50 366.73 96.65 376.80 97.82 387.18 C 88.27 383.00 79.71 376.83 69.94 373.09 C 60.58 376.90 52.34 383.20 42.82 386.81 C 43.33 376.33 47.63 366.32 46.85 355.76 C 39.91 348.61 31.84 342.52 25.77 334.52 C 35.82 333.70 45.70 331.63 55.75 330.84 Z" />
<path fill="#bbbdbf" opacity="1.00" d=" M 1014.68 314.83 C 1019.65 342.15 999.37 367.26 975.33 377.33 C 868.66 427.06 761.77 476.31 655.20 526.25 C 639.77 535.43 625.75 518.58 611.83 513.63 C 721.92 459.97 834.02 410.10 944.85 357.85 C 969.20 345.65 997.69 337.60 1014.68 314.83 Z" />
<path fill="#f05a28" opacity="1.00" d=" M 1137.21 427.17 C 1142.19 429.63 1143.10 437.86 1146.24 442.68 C 1152.55 443.67 1158.81 444.73 1165.18 445.39 C 1160.64 449.55 1156.43 454.05 1152.04 458.36 C 1152.01 464.35 1153.16 470.25 1153.84 476.18 C 1143.35 467.97 1132.03 468.68 1121.83 476.84 C 1126.90 463.83 1122.94 453.21 1111.84 445.39 C 1126.59 448.59 1134.35 440.51 1137.21 427.17 Z" />
<path fill="#f05a28" opacity="1.00" d=" M 195.72 481.79 C 199.76 476.40 200.70 468.26 205.86 464.08 C 208.28 479.96 219.73 484.54 234.27 483.36 C 222.06 491.32 217.08 502.97 222.00 517.05 C 216.07 514.55 210.71 510.07 204.22 509.19 C 198.59 511.13 194.03 515.50 188.23 517.17 C 190.88 503.73 189.14 491.75 176.53 483.78 C 182.86 482.60 189.30 482.19 195.72 481.79 Z" />
<path fill="#ffcc00" opacity="1.00" d=" M 874.53 467.47 C 879.16 464.82 884.82 465.22 889.57 467.35 C 972.10 499.11 1044.40 556.34 1096.49 627.47 C 1093.22 636.35 1085.64 645.06 1080.95 653.95 C 1031.80 705.80 1039.04 798.34 1091.25 845.75 C 1113.67 866.60 1149.63 872.88 1176.32 856.35 C 1177.20 855.88 1178.10 855.42 1179.01 854.97 C 1179.07 865.99 1178.46 876.99 1177.72 887.99 C 1144.56 885.56 1111.33 884.09 1078.06 884.17 C 1068.35 883.17 1061.08 874.78 1051.02 874.70 C 1029.52 871.03 1009.30 884.31 996.51 900.51 C 969.79 936.10 964.55 985.09 978.96 1026.70 C 948.02 1037.00 916.46 1045.41 884.44 1051.57 C 838.54 1059.02 793.32 1035.29 747.60 1045.62 C 722.84 1055.01 699.16 1078.60 670.64 1068.24 C 692.73 1022.36 707.27 968.50 690.16 918.66 C 705.33 982.64 667.49 1041.74 628.92 1088.91 C 594.19 1135.57 548.24 1180.18 540.58 1240.47 C 529.33 1217.55 529.68 1190.01 535.50 1165.48 C 552.08 1109.15 595.81 1067.29 635.96 1026.94 C 581.31 1054.83 520.06 1094.42 508.08 1158.70 C 494.12 1145.74 490.03 1120.59 501.95 1103.92 C 522.67 1069.66 557.71 1047.80 588.15 1023.12 C 547.51 1035.84 506.67 1055.06 478.36 1087.81 C 475.15 1060.96 500.62 1043.94 519.17 1029.17 C 554.01 1002.31 598.37 978.19 611.03 933.01 C 581.44 974.65 529.80 989.60 488.36 1015.94 C 472.64 1015.85 459.30 1029.20 443.38 1024.92 C 414.14 1012.72 387.32 995.15 362.78 975.22 C 327.69 886.13 346.43 784.71 385.82 699.88 C 389.62 684.36 407.89 686.49 419.20 679.20 C 570.81 608.31 722.80 538.18 874.53 467.47 M 879.38 621.40 C 854.13 625.52 833.31 643.42 817.95 662.95 C 774.45 722.29 778.96 809.96 824.11 867.14 C 807.15 882.12 789.06 896.17 773.21 912.20 C 777.68 920.18 785.72 927.05 791.99 934.24 C 810.71 920.08 826.81 902.74 845.75 888.88 C 851.39 892.39 856.97 896.03 862.26 900.08 C 853.63 921.08 844.42 941.85 835.84 962.87 C 844.77 966.84 853.89 970.35 862.85 974.25 C 873.39 953.38 881.28 931.33 891.02 910.09 C 934.82 919.63 981.45 895.05 1002.10 856.09 C 1043.44 806.32 1045.88 732.30 1018.85 675.16 C 1005.17 645.33 980.02 619.56 948.19 609.85 C 924.97 602.60 899.43 608.42 879.38 621.40 Z" />
<path fill="#f05a28" opacity="1.00" d=" M 1195.69 539.59 C 1198.48 531.13 1202.53 523.13 1207.65 515.83 C 1211.41 523.82 1215.18 531.83 1219.43 539.58 C 1228.44 540.68 1237.57 542.16 1246.28 544.37 C 1239.87 550.55 1231.85 555.56 1227.27 563.36 C 1227.84 572.02 1229.58 580.56 1230.93 589.12 C 1223.22 585.00 1215.24 581.39 1207.76 576.86 C 1199.59 580.49 1192.01 585.27 1183.88 588.96 C 1184.89 579.95 1187.27 571.01 1186.71 561.90 C 1180.48 555.59 1173.76 549.77 1167.93 543.08 C 1177.19 542.18 1186.64 542.05 1195.69 539.59 Z" />
<path fill="#bbbdbf" opacity="1.00" d=" M 366.38 626.34 C 444.48 590.65 522.07 553.85 600.15 518.13 C 597.13 530.77 591.99 542.87 589.91 555.78 C 566.93 568.08 542.62 577.85 519.15 589.24 C 509.40 596.39 500.74 585.24 491.50 582.99 C 489.21 590.50 486.23 597.79 484.50 605.49 C 459.04 616.83 434.00 629.12 408.59 640.59 C 384.50 654.86 346.30 660.34 328.06 635.18 C 341.15 634.09 354.45 632.18 366.38 626.34 Z" />
<path fill="#f05a28" opacity="1.00" d=" M 70.15 577.99 C 74.07 587.95 79.29 597.32 84.51 606.65 C 94.61 606.87 104.54 608.87 114.23 611.65 C 107.36 618.75 99.14 624.81 93.38 632.86 C 92.36 643.15 96.04 653.08 97.99 663.05 C 88.32 659.35 79.84 652.67 70.11 649.41 C 60.43 652.43 52.31 659.12 42.91 662.96 C 44.28 652.87 46.82 642.92 47.01 632.70 C 41.61 623.92 31.52 619.11 25.70 610.49 C 35.94 608.58 46.67 608.39 56.65 605.83 C 60.89 596.44 65.59 587.24 70.15 577.99 Z" />
<path fill="#000000" opacity="1.00" d=" M 879.38 621.40 C 899.43 608.42 924.97 602.60 948.19 609.85 C 980.02 619.56 1005.17 645.33 1018.85 675.16 C 1045.88 732.30 1043.44 806.32 1002.10 856.09 C 972.01 892.08 913.92 896.22 879.22 864.78 C 810.45 804.77 804.68 678.83 879.38 621.40 M 911.49 636.37 C 875.14 648.90 856.23 689.37 854.89 725.53 C 852.49 736.57 854.32 748.07 854.62 759.26 C 860.44 800.29 881.95 846.22 925.15 857.98 C 957.44 865.66 985.79 839.42 997.30 811.72 C 1018.28 764.24 1011.35 704.77 979.40 663.61 C 963.39 643.87 937.66 628.88 911.49 636.37 Z" />
<path fill="#cea806" opacity="1.00" d=" M 817.95 662.95 C 833.31 643.42 854.13 625.52 879.38 621.40 C 804.68 678.83 810.45 804.77 879.22 864.78 C 913.92 896.22 972.01 892.08 1002.10 856.09 C 981.45 895.05 934.82 919.63 891.02 910.09 C 881.55 907.70 873.14 902.52 864.15 898.88 C 863.68 899.18 862.74 899.78 862.26 900.08 C 856.97 896.03 851.39 892.39 845.75 888.88 C 841.05 879.78 832.98 873.04 826.85 864.98 C 825.92 865.68 825.00 866.40 824.11 867.14 C 778.96 809.96 774.45 722.29 817.95 662.95 Z" />
<path fill="#ffffff" opacity="1.00" d=" M 1141.10 627.15 C 1156.93 620.94 1174.60 626.56 1187.38 636.63 C 1229.43 671.71 1240.40 738.09 1219.05 787.05 C 1194.47 812.34 1151.41 807.99 1128.87 782.13 C 1109.26 761.98 1098.49 734.96 1093.28 707.70 C 1095.12 675.76 1110.00 640.50 1141.10 627.15 M 1169.35 658.07 C 1156.25 691.34 1143.11 724.60 1130.09 757.90 C 1145.07 766.97 1159.50 776.93 1173.90 786.91 C 1177.94 780.68 1181.98 774.44 1185.96 768.16 C 1177.40 760.72 1166.35 756.39 1158.17 748.72 C 1167.50 720.56 1180.43 693.55 1189.88 665.37 C 1182.91 663.29 1176.39 659.95 1169.35 658.07 Z" />
<path fill="#ffffff" opacity="1.00" d=" M 911.49 636.37 C 937.66 628.88 963.39 643.87 979.40 663.61 C 1011.35 704.77 1018.28 764.24 997.30 811.72 C 974.24 830.90 939.99 836.37 913.82 820.15 C 880.17 800.55 861.74 762.65 854.89 725.53 C 856.23 689.37 875.14 648.90 911.49 636.37 M 900.89 687.06 C 916.46 710.92 933.58 733.75 949.93 757.09 C 951.66 759.82 955.81 763.35 952.74 766.60 C 942.51 778.73 931.28 789.99 920.88 801.98 C 928.30 808.68 935.88 815.23 943.14 822.12 C 959.88 803.73 977.97 785.51 992.87 766.07 C 970.69 733.80 947.88 701.68 924.96 669.84 C 917.05 675.74 908.35 680.65 900.89 687.06 Z" />
<path fill="#cea806" opacity="1.00" d=" M 1091.25 845.75 C 1039.04 798.34 1031.80 705.80 1080.95 653.95 C 1058.15 708.72 1064.30 776.17 1102.22 822.77 C 1119.61 844.99 1147.84 858.91 1176.32 856.35 C 1149.63 872.88 1113.67 866.60 1091.25 845.75 Z" />
<path fill="#000000" opacity="1.00" d=" M 1169.35 658.07 C 1176.39 659.95 1182.91 663.29 1189.88 665.37 C 1180.43 693.55 1167.50 720.56 1158.17 748.72 C 1166.35 756.39 1177.40 760.72 1185.96 768.16 C 1181.98 774.44 1177.94 780.68 1173.90 786.91 C 1159.50 776.93 1145.07 766.97 1130.09 757.90 C 1143.11 724.60 1156.25 691.34 1169.35 658.07 Z" />
<path fill="#f05a28" opacity="1.00" d=" M 235.22 668.76 C 238.58 675.13 241.83 681.57 245.13 687.99 C 252.21 688.70 259.29 689.48 266.33 690.58 C 252.18 698.20 247.81 711.55 253.95 726.13 C 247.59 723.22 241.61 719.27 234.95 717.13 C 228.15 718.75 222.95 724.35 216.14 726.20 C 221.94 711.77 217.40 698.97 204.83 690.48 C 211.77 689.47 218.70 688.44 225.68 687.72 C 228.77 681.35 232.00 675.06 235.22 668.76 Z" />
<path fill="#000000" opacity="1.00" d=" M 900.89 687.06 C 908.35 680.65 917.05 675.74 924.96 669.84 C 947.88 701.68 970.69 733.80 992.87 766.07 C 977.97 785.51 959.88 803.73 943.14 822.12 C 935.88 815.23 928.30 808.68 920.88 801.98 C 931.28 789.99 942.51 778.73 952.74 766.60 C 955.81 763.35 951.66 759.82 949.93 757.09 C 933.58 733.75 916.46 710.92 900.89 687.06 Z" />
<path fill="#d0d2d3" opacity="1.00" d=" M 1093.28 707.70 C 1098.49 734.96 1109.26 761.98 1128.87 782.13 C 1151.41 807.99 1194.47 812.34 1219.05 787.05 C 1210.00 814.38 1180.86 840.27 1150.55 828.72 C 1105.59 808.52 1090.05 753.10 1093.28 707.70 Z" />
<path fill="#d0d2d3" opacity="1.00" d=" M 854.62 759.26 C 854.32 748.07 852.49 736.57 854.89 725.53 C 861.74 762.65 880.17 800.55 913.82 820.15 C 939.99 836.37 974.24 830.90 997.30 811.72 C 985.79 839.42 957.44 865.66 925.15 857.98 C 881.95 846.22 860.44 800.29 854.62 759.26 Z" />
<path fill="#000000" opacity="1.00" d=" M 824.11 867.14 C 825.00 866.40 825.92 865.68 826.85 864.98 C 832.98 873.04 841.05 879.78 845.75 888.88 C 826.81 902.74 810.71 920.08 791.99 934.24 C 785.72 927.05 777.68 920.18 773.21 912.20 C 789.06 896.17 807.15 882.12 824.11 867.14 Z" />
<path fill="#cea806" opacity="1.00" d=" M 996.51 900.51 C 1009.30 884.31 1029.52 871.03 1051.02 874.70 C 1061.08 874.78 1068.35 883.17 1078.06 884.17 C 1051.50 884.22 1030.39 906.31 1023.76 930.76 C 1015.18 961.81 1013.13 998.42 1031.66 1026.33 C 1042.06 1043.04 1063.25 1046.09 1081.06 1048.80 C 1011.14 1102.69 924.23 1128.82 838.07 1142.13 C 767.38 1152.09 695.00 1156.05 624.11 1145.86 C 640.16 1120.43 657.21 1095.39 669.83 1068.01 L 670.64 1068.24 C 699.16 1078.60 722.84 1055.01 747.60 1045.62 C 793.32 1035.29 838.54 1059.02 884.44 1051.57 C 916.46 1045.41 948.02 1037.00 978.96 1026.70 C 964.55 985.09 969.79 936.10 996.51 900.51 Z" />
<path fill="#000000" opacity="1.00" d=" M 862.26 900.08 C 862.74 899.78 863.68 899.18 864.15 898.88 C 873.14 902.52 881.55 907.70 891.02 910.09 C 881.28 931.33 873.39 953.38 862.85 974.25 C 853.89 970.35 844.77 966.84 835.84 962.87 C 844.42 941.85 853.63 921.08 862.26 900.08 Z" />
<path fill="#ff6600" opacity="1.00" d=" M 1085.41 920.46 C 1146.07 920.06 1206.82 925.05 1266.79 934.20 C 1297.00 941.67 1330.06 943.52 1356.44 961.65 C 1352.54 964.79 1348.92 968.62 1344.10 970.33 C 1248.56 989.48 1150.14 984.35 1053.64 976.25 C 1053.39 954.87 1056.77 918.43 1085.41 920.46 Z" />
<path fill="#cc3300" opacity="1.00" d=" M 1053.64 976.25 C 1150.14 984.35 1248.56 989.48 1344.10 970.33 L 1344.89 970.18 C 1301.49 999.19 1247.92 1005.50 1197.43 1012.47 C 1154.99 1015.68 1111.75 1018.05 1069.69 1010.40 C 1054.84 1007.18 1055.19 988.17 1053.64 976.25 Z" />
<path fill="#cea806" opacity="1.00" d=" M 362.78 975.22 C 387.32 995.15 414.14 1012.72 443.38 1024.92 C 459.30 1029.20 472.64 1015.85 488.36 1015.94 L 489.18 1015.84 C 467.06 1032.15 448.55 1056.75 453.75 1086.08 C 412.91 1060.08 379.16 1021.01 362.78 975.22 Z" />
<path fill="#ffcc00" opacity="1.00" d=" M 692.01 1188.13 C 700.37 1187.95 708.73 1187.94 717.11 1188.05 C 709.43 1204.74 702.35 1221.99 700.54 1240.45 C 692.26 1224.54 691.24 1205.73 692.01 1188.13 Z" />
</svg>
