<?xml version="1.0" encoding="UTF-8" ?>
<!DOCTYPE svg PUBLIC "-//W3C//DTD SVG 1.1//EN" "http://www.w3.org/Graphics/SVG/1.1/DTD/svg11.dtd">
<svg width="734pt" height="672pt" viewBox="0 0 734 672" version="1.1" xmlns="http://www.w3.org/2000/svg">
<path fill="#000000" opacity="1.00" d=" M 255.29 70.29 C 301.75 28.86 364.34 10.90 425.37 7.25 C 483.71 5.11 543.91 17.09 594.06 47.93 C 634.26 71.70 666.44 112.06 671.61 159.51 C 689.07 160.74 703.07 175.33 707.24 191.76 C 715.22 220.56 706.37 252.07 688.28 275.23 C 717.15 323.67 715.07 391.67 676.69 434.65 C 669.75 439.58 665.75 447.05 662.79 454.82 C 682.16 463.33 702.35 469.86 722.19 477.20 C 694.73 483.77 666.09 485.87 638.32 491.10 C 594.74 534.47 533.72 556.23 473.47 562.40 C 417.13 570.58 359.40 566.03 304.13 553.28 C 280.03 561.94 257.25 574.26 233.18 583.04 C 228.91 574.75 225.07 566.14 222.01 557.32 C 235.70 551.20 249.95 546.31 263.15 539.16 C 252.29 533.19 240.96 528.01 230.00 522.28 C 207.08 531.73 184.67 543.03 161.27 551.09 C 157.64 542.85 154.24 534.50 150.88 526.15 C 168.37 517.84 186.27 510.43 204.02 502.72 C 174.88 477.08 157.12 440.45 151.30 402.59 C 107.37 405.04 57.53 409.95 18.02 385.08 C 8.78 381.10 3.84 364.13 17.19 361.95 C 53.64 351.79 91.91 352.80 129.18 347.65 C 99.06 323.41 62.54 306.53 35.62 278.30 C 28.41 269.78 38.54 260.46 47.36 259.84 C 76.35 256.25 104.66 269.61 130.16 280.73 C 128.42 266.02 135.62 251.66 145.91 240.75 C 134.92 212.11 137.97 175.14 163.03 154.72 C 167.28 161.65 169.07 170.08 174.75 176.09 C 181.79 160.70 195.39 148.87 211.25 143.17 C 217.68 114.97 234.46 89.97 255.29 70.29 M 391.97 42.00 C 346.56 49.22 300.60 67.19 268.58 101.28 L 267.79 101.04 C 257.38 113.57 248.08 127.32 243.12 142.98 C 309.10 149.41 374.91 157.07 441.10 160.88 C 507.12 165.41 573.61 172.13 639.74 165.48 C 640.51 149.68 634.54 134.41 626.57 121.04 C 606.31 88.06 571.36 67.41 535.94 54.07 C 490.02 37.70 439.96 33.48 391.97 42.00 M 199.29 207.14 C 203.72 213.45 210.22 218.15 216.14 223.02 C 231.54 236.84 246.19 252.54 263.67 263.45 C 390.56 285.19 522.02 285.51 648.61 261.58 C 667.24 260.90 674.17 241.31 678.01 226.03 C 679.37 214.92 682.26 195.07 668.82 190.04 C 626.13 203.27 581.04 197.07 537.13 197.93 C 433.36 193.29 330.10 182.54 226.83 172.36 C 209.65 172.12 197.60 191.22 199.29 207.14 M 160.01 226.09 C 174.43 265.57 206.96 294.52 239.00 320.00 C 204.46 309.94 172.94 288.80 152.81 258.70 C 140.48 268.10 146.20 287.04 155.72 296.31 C 184.82 325.92 224.25 341.58 262.03 356.99 C 227.12 356.17 192.11 345.60 163.08 326.02 C 161.22 347.06 171.42 369.44 190.19 379.85 C 214.82 394.50 244.25 397.69 272.32 398.66 C 238.70 401.90 201.58 402.81 171.92 384.10 C 171.96 397.19 173.69 410.65 177.92 423.06 C 190.37 471.41 233.63 505.50 278.80 522.20 C 326.37 541.08 378.14 546.65 428.99 545.08 C 487.82 542.96 549.27 531.83 598.27 497.21 C 577.87 499.90 557.57 504.77 537.00 505.31 C 543.00 485.25 551.49 465.99 558.13 446.13 C 550.01 452.96 540.46 457.45 531.14 462.16 C 503.03 470.92 470.94 464.87 448.44 445.56 C 410.08 412.84 397.08 356.39 411.75 308.94 C 410.16 308.88 406.97 308.77 405.38 308.72 C 368.86 308.06 332.23 305.26 296.09 299.88 C 316.22 324.45 331.87 355.59 329.48 388.11 C 324.55 347.00 295.20 314.00 265.16 287.85 C 229.97 254.08 181.42 230.96 159.77 185.44 C 154.88 198.19 156.10 213.23 160.01 226.09 M 445.00 309.89 C 442.38 309.94 437.15 310.05 434.53 310.11 C 420.33 348.98 428.32 397.02 458.96 426.04 C 475.57 441.75 500.69 448.56 522.66 441.46 L 521.81 441.34 C 546.11 435.59 559.89 413.10 572.78 393.86 C 577.51 400.95 580.77 409.01 586.77 415.21 C 598.54 431.18 622.38 443.19 641.33 432.69 C 654.56 429.56 663.71 417.02 670.98 405.99 C 692.29 370.42 690.55 324.02 670.96 288.07 C 597.14 305.92 520.73 310.55 445.00 309.89 M 580.28 447.85 C 576.04 458.34 571.74 468.92 568.95 479.89 C 592.77 477.52 616.25 472.39 640.06 469.83 C 620.40 461.87 600.41 454.56 580.28 447.85 Z" />
<path fill="#cc0000" opacity="1.00" d=" M 391.97 42.00 C 439.96 33.48 490.02 37.70 535.94 54.07 C 571.36 67.41 606.31 88.06 626.57 121.04 C 589.49 131.34 549.50 125.66 511.38 125.64 C 430.23 120.59 348.89 113.77 268.58 101.28 C 300.60 67.19 346.56 49.22 391.97 42.00 M 499.97 66.31 C 491.73 67.75 494.71 78.65 499.72 82.31 C 517.10 97.39 539.43 106.12 561.89 110.28 C 568.87 110.63 579.04 113.07 583.93 106.36 C 585.18 97.50 577.41 91.35 570.78 87.17 C 549.99 73.64 525.22 63.28 499.97 66.31 Z" />
<path fill="#ffffff" opacity="1.00" d=" M 499.97 66.31 C 525.22 63.28 549.99 73.64 570.78 87.17 C 577.41 91.35 585.18 97.50 583.93 106.36 C 579.04 113.07 568.87 110.63 561.89 110.28 C 539.43 106.12 517.10 97.39 499.72 82.31 C 494.71 78.65 491.73 67.75 499.97 66.31 Z" />
<path fill="#990000" opacity="1.00" d=" M 267.79 101.04 L 268.58 101.28 C 348.89 113.77 430.23 120.59 511.38 125.64 C 549.50 125.66 589.49 131.34 626.57 121.04 C 634.54 134.41 640.51 149.68 639.74 165.48 C 573.61 172.13 507.12 165.41 441.10 160.88 C 374.91 157.07 309.10 149.41 243.12 142.98 C 248.08 127.32 257.38 113.57 267.79 101.04 Z" />
<path fill="#666666" opacity="1.00" d=" M 199.29 207.14 C 197.60 191.22 209.65 172.12 226.83 172.36 C 330.10 182.54 433.36 193.29 537.13 197.93 C 581.04 197.07 626.13 203.27 668.82 190.04 C 682.26 195.07 679.37 214.92 678.01 226.03 C 568.78 245.94 456.86 247.15 346.31 240.71 C 302.63 237.53 258.81 233.28 216.14 223.02 C 210.22 218.15 203.72 213.45 199.29 207.14 Z" />
<path fill="#99cc00" opacity="1.00" d=" M 160.01 226.09 C 156.10 213.23 154.88 198.19 159.77 185.44 C 181.42 230.96 229.97 254.08 265.16 287.85 C 295.20 314.00 324.55 347.00 329.48 388.11 C 331.87 355.59 316.22 324.45 296.09 299.88 C 332.23 305.26 368.86 308.06 405.38 308.72 C 398.64 342.89 395.40 379.26 408.42 412.58 C 417.67 437.80 433.95 462.45 459.14 473.81 C 482.57 485.32 512.30 479.95 531.14 462.16 C 540.46 457.45 550.01 452.96 558.13 446.13 C 551.49 465.99 543.00 485.25 537.00 505.31 C 520.16 510.07 503.02 514.96 485.37 514.95 C 457.74 508.64 435.57 487.37 407.42 483.00 C 390.19 480.27 377.48 496.46 360.37 494.61 C 341.58 492.30 327.15 477.00 308.20 475.14 C 300.52 476.41 293.66 482.16 285.59 480.82 C 272.02 476.32 266.25 461.36 254.36 454.39 C 242.38 449.65 228.56 460.62 217.22 452.85 C 202.89 444.67 190.05 434.18 177.92 423.06 C 173.69 410.65 171.96 397.19 171.92 384.10 C 201.58 402.81 238.70 401.90 272.32 398.66 C 244.25 397.69 214.82 394.50 190.19 379.85 C 171.42 369.44 161.22 347.06 163.08 326.02 C 192.11 345.60 227.12 356.17 262.03 356.99 C 224.25 341.58 184.82 325.92 155.72 296.31 C 146.20 287.04 140.48 268.10 152.81 258.70 C 172.94 288.80 204.46 309.94 239.00 320.00 C 206.96 294.52 174.43 265.57 160.01 226.09 M 373.42 430.20 C 366.42 431.63 365.82 442.74 372.96 444.33 C 386.13 447.09 402.46 440.90 409.11 429.19 C 397.27 429.17 385.07 427.75 373.42 430.20 M 380.93 468.20 C 381.13 475.97 392.38 474.48 397.82 475.08 C 413.79 475.87 418.89 456.83 417.72 444.15 C 404.37 449.95 389.81 456.18 380.93 468.20 Z" />
<path fill="#404041" opacity="1.00" d=" M 216.14 223.02 C 258.81 233.28 302.63 237.53 346.31 240.71 C 456.86 247.15 568.78 245.94 678.01 226.03 C 674.17 241.31 667.24 260.90 648.61 261.58 C 522.02 285.51 390.56 285.19 263.67 263.45 C 246.19 252.54 231.54 236.84 216.14 223.02 Z" />
<path fill="#ffffff" opacity="1.00" d=" M 445.00 309.89 C 520.73 310.55 597.14 305.92 670.96 288.07 C 690.55 324.02 692.29 370.42 670.98 405.99 C 663.71 417.02 654.56 429.56 641.33 432.69 C 622.96 428.81 608.27 415.91 597.90 400.78 C 594.09 405.51 590.39 410.33 586.77 415.21 C 580.77 409.01 577.51 400.95 572.78 393.86 C 559.89 413.10 546.11 435.59 521.81 441.34 C 462.26 433.44 432.94 363.56 445.00 309.89 M 535.47 322.25 C 519.52 337.68 518.40 369.76 536.92 383.47 C 553.69 387.97 560.15 364.99 558.81 352.44 C 554.15 351.64 549.50 350.85 544.88 349.90 C 548.33 345.12 553.72 341.44 555.89 335.82 C 554.70 327.19 544.81 314.90 535.47 322.25 M 641.88 351.87 C 642.31 361.78 643.73 380.30 657.35 379.65 C 667.62 373.30 673.47 347.83 657.14 348.39 C 666.10 341.88 667.37 329.39 657.47 323.00 C 643.86 322.85 641.38 341.54 641.88 351.87 Z" />
<path fill="#669900" opacity="1.00" d=" M 405.38 308.72 C 406.97 308.77 410.16 308.88 411.75 308.94 C 397.08 356.39 410.08 412.84 448.44 445.56 C 470.94 464.87 503.03 470.92 531.14 462.16 C 512.30 479.95 482.57 485.32 459.14 473.81 C 433.95 462.45 417.67 437.80 408.42 412.58 C 395.40 379.26 398.64 342.89 405.38 308.72 Z" />
<path fill="#d0d2d3" opacity="1.00" d=" M 434.53 310.11 C 437.15 310.05 442.38 309.94 445.00 309.89 C 432.94 363.56 462.26 433.44 521.81 441.34 L 522.66 441.46 C 500.69 448.56 475.57 441.75 458.96 426.04 C 428.32 397.02 420.33 348.98 434.53 310.11 Z" />
<path fill="#000000" opacity="1.00" d=" M 535.47 322.25 C 544.81 314.90 554.70 327.19 555.89 335.82 C 553.72 341.44 548.33 345.12 544.88 349.90 C 549.50 350.85 554.15 351.64 558.81 352.44 C 560.15 364.99 553.69 387.97 536.92 383.47 C 518.40 369.76 519.52 337.68 535.47 322.25 Z" />
<path fill="#000000" opacity="1.00" d=" M 641.88 351.87 C 641.38 341.54 643.86 322.85 657.47 323.00 C 667.37 329.39 666.10 341.88 657.14 348.39 C 673.47 347.83 667.62 373.30 657.35 379.65 C 643.73 380.30 642.31 361.78 641.88 351.87 Z" />
<path fill="#d0d2d3" opacity="1.00" d=" M 586.77 415.21 C 590.39 410.33 594.09 405.51 597.90 400.78 C 608.27 415.91 622.96 428.81 641.33 432.69 C 622.38 443.19 598.54 431.18 586.77 415.21 Z" />
<path fill="#669900" opacity="1.00" d=" M 177.92 423.06 C 190.05 434.18 202.89 444.67 217.22 452.85 C 228.56 460.62 242.38 449.65 254.36 454.39 C 266.25 461.36 272.02 476.32 285.59 480.82 C 293.66 482.16 300.52 476.41 308.20 475.14 C 327.15 477.00 341.58 492.30 360.37 494.61 C 377.48 496.46 390.19 480.27 407.42 483.00 C 435.57 487.37 457.74 508.64 485.37 514.95 C 503.02 514.96 520.16 510.07 537.00 505.31 C 557.57 504.77 577.87 499.90 598.27 497.21 C 549.27 531.83 487.82 542.96 428.99 545.08 C 378.14 546.65 326.37 541.08 278.80 522.20 C 233.63 505.50 190.37 471.41 177.92 423.06 Z" />
<path fill="#000000" opacity="1.00" d=" M 373.42 430.20 C 385.07 427.75 397.27 429.17 409.11 429.19 C 402.46 440.90 386.13 447.09 372.96 444.33 C 365.82 442.74 366.42 431.63 373.42 430.20 Z" />
<path fill="#000000" opacity="1.00" d=" M 380.93 468.20 C 389.81 456.18 404.37 449.95 417.72 444.15 C 418.89 456.83 413.79 475.87 397.82 475.08 C 392.38 474.48 381.13 475.97 380.93 468.20 Z" />
<path fill="#f05a28" opacity="1.00" d=" M 580.28 447.85 C 600.41 454.56 620.40 461.87 640.06 469.83 C 616.25 472.39 592.77 477.52 568.95 479.89 C 571.74 468.92 576.04 458.34 580.28 447.85 Z" />
</svg>
