<?xml version="1.0" encoding="UTF-8" ?>
<!DOCTYPE svg PUBLIC "-//W3C//DTD SVG 1.1//EN" "http://www.w3.org/Graphics/SVG/1.1/DTD/svg11.dtd">
<svg width="927pt" height="633pt" viewBox="0 0 927 633" version="1.1" xmlns="http://www.w3.org/2000/svg">
<path fill="#000000" opacity="1.00" d=" M 576.20 11.19 C 595.66 3.40 620.07 13.40 628.25 32.70 C 636.74 49.26 632.42 68.27 627.03 85.02 C 671.25 100.13 700.07 147.54 695.13 193.72 C 771.01 233.03 847.29 272.10 922.30 312.88 C 846.54 313.18 770.78 312.89 695.01 313.01 C 694.98 339.34 694.97 365.66 695.01 391.99 C 741.12 392.19 787.23 391.67 833.33 392.22 C 784.10 419.44 732.99 444.40 683.47 471.46 C 667.95 501.26 637.00 522.16 603.71 525.89 C 531.00 526.59 458.23 525.08 385.54 526.62 C 378.12 526.91 370.69 527.09 363.27 527.21 C 339.18 526.83 315.09 527.06 290.99 526.98 C 281.81 526.95 272.64 526.86 263.47 526.75 C 213.79 524.12 169.92 482.53 166.11 432.64 C 165.54 399.92 166.58 367.18 165.71 334.48 C 139.62 364.03 93.02 389.26 55.30 365.70 C 44.51 359.70 31.56 344.20 42.33 332.33 C 57.64 318.25 78.63 313.14 98.19 307.96 C 76.20 303.91 54.17 296.56 36.39 282.62 C 15.70 267.67 4.34 240.47 9.04 215.32 C 15.71 194.54 42.10 200.34 57.55 206.48 C 96.59 220.41 131.39 243.68 165.98 266.04 C 166.15 234.42 165.82 202.79 166.06 171.17 C 171.06 123.33 212.37 82.63 260.46 79.21 C 345.00 78.63 429.57 79.30 514.13 78.89 C 504.95 75.78 496.29 71.09 488.31 65.65 C 480.49 60.30 484.80 47.68 492.90 44.87 C 520.67 25.97 557.96 33.75 583.95 52.09 C 577.00 40.26 567.97 24.31 576.20 11.19 M 193.05 184.11 C 192.84 194.94 192.91 205.77 193.22 216.60 C 253.91 245.17 324.11 241.54 385.23 268.79 C 409.97 278.82 432.05 299.26 437.97 326.01 C 425.91 310.51 412.24 295.34 394.18 286.83 C 359.01 268.21 318.13 269.31 279.94 262.09 C 257.84 258.80 236.41 252.44 215.16 245.91 C 224.30 262.51 243.03 270.33 259.83 277.18 C 285.22 286.72 311.56 294.06 338.50 297.55 C 294.11 300.22 246.72 294.19 208.97 269.03 C 215.33 280.99 228.23 287.48 240.05 292.94 C 276.64 308.95 317.16 312.16 356.50 315.13 C 311.01 321.16 262.45 320.30 219.98 300.98 C 229.35 313.49 244.13 320.37 258.93 324.08 C 294.51 334.05 331.76 333.69 368.32 336.44 C 320.21 344.48 266.63 348.30 222.16 324.83 C 205.03 317.60 203.53 297.87 193.37 285.33 C 192.44 311.86 193.21 338.45 193.08 365.00 C 193.20 388.43 192.28 411.90 193.62 435.30 C 199.09 467.99 227.76 496.34 261.16 498.89 C 348.47 499.12 435.78 499.00 523.09 498.94 C 547.34 499.07 571.59 499.01 595.85 499.01 C 632.82 498.71 665.15 466.08 667.98 429.83 C 667.99 347.92 668.07 266.01 667.94 184.10 C 670.36 144.20 636.14 108.24 596.91 105.95 C 486.97 106.04 377.03 106.01 267.09 105.96 C 226.74 106.25 190.79 143.67 193.05 184.11 M 695.10 213.95 C 695.04 218.24 695.01 222.53 695.03 226.83 C 694.88 234.84 694.94 242.84 695.12 250.86 C 694.78 265.56 695.05 280.28 695.01 294.99 C 746.42 294.56 797.90 295.91 849.26 294.32 C 797.64 267.97 746.55 240.63 695.10 213.95 M 695.00 408.02 C 694.99 409.69 694.98 411.36 694.99 413.04 C 695.03 416.06 694.99 419.04 695.09 422.10 C 694.68 430.88 693.79 439.64 692.24 448.30 C 717.78 435.27 743.12 421.62 768.63 408.48 C 744.13 407.24 719.54 408.35 695.00 408.02 Z" />
<path fill="#84d9f4" opacity="1.00" d=" M 193.05 184.11 C 190.79 143.67 226.74 106.25 267.09 105.96 C 377.03 106.01 486.97 106.04 596.91 105.95 C 636.14 108.24 670.36 144.20 667.94 184.10 C 651.44 159.42 623.01 142.18 592.84 143.08 C 484.55 142.82 376.25 143.19 267.96 142.90 C 237.81 141.81 209.69 159.74 193.05 184.11 Z" />
<path fill="#00adee" opacity="1.00" d=" M 193.05 184.11 C 209.69 159.74 237.81 141.81 267.96 142.90 C 376.25 143.19 484.55 142.82 592.84 143.08 C 623.01 142.18 651.44 159.42 667.94 184.10 C 668.07 266.01 667.99 347.92 667.98 429.83 C 665.15 466.08 632.82 498.71 595.85 499.01 C 571.59 499.01 547.34 499.07 523.09 498.94 C 500.12 460.87 461.65 435.98 422.99 416.00 C 351.66 381.73 272.17 364.19 193.08 365.00 C 193.21 338.45 192.44 311.86 193.37 285.33 C 203.53 297.87 205.03 317.60 222.16 324.83 C 266.63 348.30 320.21 344.48 368.32 336.44 C 331.76 333.69 294.51 334.05 258.93 324.08 C 244.13 320.37 229.35 313.49 219.98 300.98 C 262.45 320.30 311.01 321.16 356.50 315.13 C 317.16 312.16 276.64 308.95 240.05 292.94 C 228.23 287.48 215.33 280.99 208.97 269.03 C 246.72 294.19 294.11 300.22 338.50 297.55 C 311.56 294.06 285.22 286.72 259.83 277.18 C 243.03 270.33 224.30 262.51 215.16 245.91 C 236.41 252.44 257.84 258.80 279.94 262.09 C 318.13 269.31 359.01 268.21 394.18 286.83 C 412.24 295.34 425.91 310.51 437.97 326.01 C 432.05 299.26 409.97 278.82 385.23 268.79 C 324.11 241.54 253.91 245.17 193.22 216.60 C 192.91 205.77 192.84 194.94 193.05 184.11 M 504.03 257.03 C 470.77 280.74 462.21 330.93 482.00 365.99 C 497.21 394.44 529.40 413.42 561.84 411.09 C 603.60 411.08 642.33 375.55 644.72 333.72 C 656.89 291.41 630.26 243.69 587.72 232.27 C 558.02 224.61 524.61 234.06 504.03 257.03 M 470.05 398.49 C 459.21 399.73 456.68 413.73 464.27 420.70 C 479.10 436.86 503.36 447.03 525.16 441.33 C 535.08 438.91 534.74 425.60 528.66 419.33 C 514.00 403.69 491.39 395.26 470.05 398.49 Z" />
<path fill="#f6921e" opacity="1.00" d=" M 695.10 213.95 C 746.55 240.63 797.64 267.97 849.26 294.32 C 797.90 295.91 746.42 294.56 695.01 294.99 C 695.05 280.28 694.78 265.56 695.12 250.86 C 733.40 260.43 770.98 272.66 809.06 282.98 C 771.11 264.16 733.23 245.18 695.03 226.83 C 695.01 222.53 695.04 218.24 695.10 213.95 Z" />
<path fill="#ffffff" opacity="1.00" d=" M 695.03 226.83 C 733.23 245.18 771.11 264.16 809.06 282.98 C 770.98 272.66 733.40 260.43 695.12 250.86 C 694.94 242.84 694.88 234.84 695.03 226.83 Z" />
<path fill="#000000" opacity="1.00" d=" M 504.03 257.03 C 524.61 234.06 558.02 224.61 587.72 232.27 C 630.26 243.69 656.89 291.41 644.72 333.72 C 636.52 359.73 616.05 381.60 589.86 389.88 C 558.01 399.52 520.69 388.23 500.67 361.34 C 477.03 331.31 478.24 285.50 504.03 257.03 M 529.40 255.05 L 529.22 255.73 C 503.55 271.77 491.10 306.68 503.13 334.95 C 516.86 375.08 570.88 391.66 604.39 365.52 L 603.46 365.50 C 631.61 348.47 640.75 307.94 624.33 279.67 C 607.21 246.14 560.66 234.01 529.40 255.05 Z" />
<path fill="#ffffff" opacity="1.00" d=" M 529.40 255.05 C 560.66 234.01 607.21 246.14 624.33 279.67 C 640.75 307.94 631.61 348.47 603.46 365.50 C 570.77 368.59 537.49 348.89 526.28 317.77 C 518.32 297.63 521.75 275.40 529.22 255.73 L 529.40 255.05 M 558.90 315.28 C 556.63 331.08 573.44 345.09 588.64 340.04 C 601.41 337.59 609.72 322.81 605.88 310.53 C 603.06 321.86 585.32 321.90 583.26 310.41 C 580.65 302.81 587.84 298.22 593.34 294.88 C 578.56 288.16 558.61 298.35 558.90 315.28 Z" />
<path fill="#d0d2d3" opacity="1.00" d=" M 503.13 334.95 C 491.10 306.68 503.55 271.77 529.22 255.73 C 521.75 275.40 518.32 297.63 526.28 317.77 C 537.49 348.89 570.77 368.59 603.46 365.50 L 604.39 365.52 C 570.88 391.66 516.86 375.08 503.13 334.95 Z" />
<path fill="#0594c1" opacity="1.00" d=" M 482.00 365.99 C 462.21 330.93 470.77 280.74 504.03 257.03 C 478.24 285.50 477.03 331.31 500.67 361.34 C 520.69 388.23 558.01 399.52 589.86 389.88 C 616.05 381.60 636.52 359.73 644.72 333.72 C 642.33 375.55 603.60 411.08 561.84 411.09 C 529.40 413.42 497.21 394.44 482.00 365.99 Z" />
<path fill="#000000" opacity="1.00" d=" M 558.90 315.28 C 558.61 298.35 578.56 288.16 593.34 294.88 C 587.84 298.22 580.65 302.81 583.26 310.41 C 585.32 321.90 603.06 321.86 605.88 310.53 C 609.72 322.81 601.41 337.59 588.64 340.04 C 573.44 345.09 556.63 331.08 558.90 315.28 Z" />
<path fill="#ffffff" opacity="1.00" d=" M 193.08 365.00 C 272.17 364.19 351.66 381.73 422.99 416.00 C 461.65 435.98 500.12 460.87 523.09 498.94 C 435.78 499.00 348.47 499.12 261.16 498.89 C 227.76 496.34 199.09 467.99 193.62 435.30 C 192.28 411.90 193.20 388.43 193.08 365.00 Z" />
<path fill="#000000" opacity="1.00" d=" M 470.05 398.49 C 491.39 395.26 514.00 403.69 528.66 419.33 C 534.74 425.60 535.08 438.91 525.16 441.33 C 503.36 447.03 479.10 436.86 464.27 420.70 C 456.68 413.73 459.21 399.73 470.05 398.49 Z" />
<path fill="#f6921e" opacity="1.00" d=" M 695.00 408.02 C 719.54 408.35 744.13 407.24 768.63 408.48 C 743.12 421.62 717.78 435.27 692.24 448.30 C 693.79 439.64 694.68 430.88 695.09 422.10 C 711.98 419.98 728.60 416.27 745.35 413.34 C 728.57 412.70 711.77 413.03 694.99 413.04 C 694.98 411.36 694.99 409.69 695.00 408.02 Z" />
<path fill="#ffffff" opacity="1.00" d=" M 694.99 413.04 C 711.77 413.03 728.57 412.70 745.35 413.34 C 728.60 416.27 711.98 419.98 695.09 422.10 C 694.99 419.04 695.03 416.06 694.99 413.04 Z" />
<path fill="#f6921e" opacity="1.00" d=" M 189.25 551.16 C 215.94 552.53 242.72 543.46 263.47 526.75 C 272.64 526.86 281.81 526.95 290.99 526.98 C 282.04 538.57 270.71 547.94 258.22 555.54 C 262.55 580.12 244.30 603.07 222.17 610.97 C 216.67 607.21 216.56 598.29 214.30 592.10 C 225.53 587.38 236.36 578.09 237.07 565.12 C 220.93 568.47 204.90 573.15 188.20 572.17 C 188.58 565.16 188.92 558.15 189.25 551.16 Z" />
<path fill="#f6921e" opacity="1.00" d=" M 363.27 527.21 C 370.69 527.09 378.12 526.91 385.54 526.62 C 381.25 539.81 369.00 548.27 360.19 558.40 C 365.35 580.33 352.51 603.91 332.41 613.17 C 330.36 607.56 325.60 602.45 325.30 596.42 C 334.19 590.39 342.33 581.53 341.89 569.99 C 327.77 574.39 314.26 580.84 299.09 581.14 C 296.89 575.08 296.61 568.56 296.22 562.20 C 322.01 560.72 347.85 548.31 363.27 527.21 Z" />
</svg>
