<?xml version="1.0" encoding="UTF-8" ?>
<!DOCTYPE svg PUBLIC "-//W3C//DTD SVG 1.1//EN" "http://www.w3.org/Graphics/SVG/1.1/DTD/svg11.dtd">
<svg width="1346pt" height="1055pt" viewBox="0 0 1346 1055" version="1.1" xmlns="http://www.w3.org/2000/svg">
<path fill="#000000" opacity="1.00" d=" M 869.74 12.65 C 915.43 4.15 961.86 39.22 968.35 84.67 C 970.11 108.22 974.41 131.48 977.06 154.94 C 1000.09 153.21 1023.68 147.30 1046.51 153.54 C 1068.74 158.95 1090.37 171.53 1102.93 191.05 C 1117.94 209.65 1118.25 235.19 1119.10 257.91 C 1116.39 294.73 1087.20 324.98 1053.12 336.17 C 1065.09 355.89 1081.78 373.40 1092.93 394.04 C 1095.75 401.99 1104.45 393.86 1109.84 394.57 C 1145.58 388.73 1176.82 414.42 1193.21 443.81 C 1225.17 504.12 1218.98 591.14 1163.25 635.50 C 1164.46 653.98 1160.03 671.86 1157.31 689.93 C 1199.73 697.48 1242.01 707.90 1282.16 723.83 C 1300.13 732.39 1320.61 741.88 1328.48 761.60 C 1333.69 775.39 1326.91 790.36 1316.59 799.63 C 1284.51 824.49 1243.57 834.33 1204.03 839.04 C 1157.09 846.88 1109.03 844.22 1061.84 842.75 C 972.64 913.53 856.27 937.76 744.98 943.02 C 645.48 946.27 543.22 936.40 450.78 897.21 C 376.69 866.57 308.35 812.23 277.60 736.39 C 263.13 703.43 258.34 667.34 255.38 631.77 C 206.66 666.04 150.28 689.61 91.27 698.44 C 72.42 699.46 52.86 702.22 34.75 695.24 C 18.02 690.42 4.16 673.42 11.13 655.26 C 20.49 629.53 41.26 609.86 62.79 593.78 C 93.92 569.59 130.86 553.49 166.69 538.87 C 122.99 508.28 78.63 471.67 53.14 422.85 C 42.05 403.15 36.46 370.79 61.88 359.96 C 94.03 349.58 126.57 364.45 155.72 377.27 C 204.64 402.29 249.39 436.63 283.29 480.10 C 293.81 454.24 306.11 429.11 319.84 404.83 C 322.71 399.30 313.53 397.80 311.28 393.71 C 286.99 372.91 282.57 338.54 283.33 308.58 C 291.15 259.34 340.33 227.56 387.91 227.69 C 387.92 206.67 381.47 186.29 380.86 165.30 C 370.92 120.02 405.11 70.54 451.06 64.03 C 590.62 46.67 730.13 29.45 869.74 12.65 M 832.60 56.61 C 708.62 71.21 584.82 87.33 460.83 101.81 C 440.70 104.31 423.41 120.64 419.18 140.38 C 417.98 153.33 419.78 166.31 422.14 179.03 C 424.63 192.31 424.50 205.93 427.19 219.16 C 460.46 215.34 493.64 211.33 526.88 207.32 C 534.53 197.61 540.24 186.44 548.01 176.77 C 557.96 183.99 564.32 197.49 576.15 201.09 C 696.36 186.17 816.69 171.78 936.91 156.79 C 935.75 143.40 933.96 130.07 932.00 116.78 C 933.68 90.88 923.35 60.87 896.32 52.60 C 875.24 48.99 853.58 53.74 832.60 56.61 M 1006.41 191.44 C 798.94 216.85 591.37 242.17 383.92 267.97 C 359.02 268.66 332.50 282.54 324.14 307.30 C 323.31 320.59 322.12 336.79 327.12 348.94 C 337.46 374.57 369.72 384.38 394.97 380.04 C 425.31 375.11 455.93 372.76 486.38 368.54 C 490.61 361.74 494.83 354.90 500.02 348.77 C 506.00 353.51 510.51 360.43 516.49 364.77 C 544.35 360.76 572.47 358.41 600.41 354.61 C 607.13 342.87 616.01 332.54 622.88 320.90 C 624.42 318.20 626.34 315.75 628.53 313.54 C 629.86 315.01 632.51 317.94 633.83 319.41 L 634.71 319.32 L 633.84 319.43 C 643.13 328.27 652.03 337.54 660.94 346.77 C 783.60 332.17 906.16 316.80 1028.73 301.72 C 1051.65 298.16 1076.21 281.98 1078.68 257.29 C 1082.10 245.88 1076.82 233.91 1075.62 222.46 C 1065.37 196.47 1032.20 185.05 1006.41 191.44 M 444.55 413.61 C 414.60 416.81 384.35 423.72 354.32 417.25 C 334.43 451.02 317.36 486.95 307.11 524.83 C 395.13 562.93 497.31 555.95 582.14 602.85 C 607.03 618.15 628.38 641.52 634.04 670.99 C 626.92 663.05 621.15 653.97 613.74 646.26 C 578.54 608.45 525.68 597.58 476.71 591.28 C 426.21 585.88 375.81 577.57 327.94 560.06 C 335.99 576.49 352.28 585.73 367.36 594.68 C 408.74 613.91 453.48 625.08 498.40 632.25 C 437.14 635.04 371.79 627.64 319.83 592.11 C 338.31 621.40 374.20 631.69 405.80 640.22 C 443.50 648.96 482.13 655.64 520.94 654.98 C 520.92 655.47 520.87 656.43 520.84 656.91 C 458.80 664.05 392.60 662.74 335.02 635.92 C 354.90 662.40 389.12 669.64 419.76 675.29 C 459.34 679.77 499.00 683.96 538.88 684.12 C 538.86 684.52 538.80 685.33 538.78 685.73 C 477.50 696.10 412.24 698.77 353.22 676.78 C 330.87 667.93 309.24 649.61 308.17 623.92 C 302.08 619.08 296.30 613.60 292.50 606.74 C 290.21 637.03 292.90 667.82 302.04 696.86 C 327.22 790.85 415.28 851.54 504.30 878.72 C 606.39 910.41 715.76 913.23 821.24 900.22 C 887.47 889.08 954.73 871.82 1011.23 834.12 C 992.82 831.30 971.99 824.87 963.41 806.55 C 948.27 775.16 953.44 737.12 967.09 706.09 C 975.80 688.57 991.68 672.89 1011.91 670.74 C 1048.90 670.96 1085.33 677.23 1121.77 682.85 C 1123.71 672.26 1126.98 661.74 1125.55 650.83 C 1124.99 650.99 1123.86 651.31 1123.30 651.47 C 1099.20 650.65 1075.18 640.05 1059.98 621.01 C 1018.25 571.24 1017.26 496.10 1047.15 440.18 C 1053.19 432.82 1057.77 424.26 1065.04 417.88 C 1048.73 391.94 1031.67 365.22 1009.48 344.07 C 821.33 367.80 632.78 390.04 444.55 413.61 M 1107.34 420.23 C 1075.32 431.27 1057.04 466.59 1054.21 498.46 C 1045.89 541.92 1058.44 600.09 1101.82 622.19 C 1130.54 635.68 1160.88 611.89 1172.26 586.28 C 1193.48 545.61 1192.36 493.96 1170.13 453.87 C 1157.71 432.48 1133.76 412.34 1107.34 420.23 M 990.83 760.00 C 992.10 770.97 988.99 787.06 1000.10 793.99 C 1054.42 810.73 1112.14 808.82 1168.30 807.33 C 1206.89 802.96 1248.00 799.29 1281.94 779.00 C 1285.89 777.52 1295.82 773.61 1289.77 769.24 C 1265.07 752.68 1235.67 745.75 1207.58 737.35 C 1148.50 724.08 1089.06 710.80 1028.44 707.29 C 999.33 701.03 991.94 738.58 990.83 760.00 Z" />
<path fill="#ee4036" opacity="1.00" d=" M 832.60 56.61 C 853.58 53.74 875.24 48.99 896.32 52.60 C 923.35 60.87 933.68 90.88 932.00 116.78 C 762.03 137.34 592.16 158.85 422.14 179.03 C 419.78 166.31 417.98 153.33 419.18 140.38 C 423.41 120.64 440.70 104.31 460.83 101.81 C 584.82 87.33 708.62 71.21 832.60 56.61 Z" />
<path fill="#be1e2d" opacity="1.00" d=" M 422.14 179.03 C 592.16 158.85 762.03 137.34 932.00 116.78 C 933.96 130.07 935.75 143.40 936.91 156.79 C 816.69 171.78 696.36 186.17 576.15 201.09 C 564.32 197.49 557.96 183.99 548.01 176.77 C 540.24 186.44 534.53 197.61 526.88 207.32 C 493.64 211.33 460.46 215.34 427.19 219.16 C 424.50 205.93 424.63 192.31 422.14 179.03 Z" />
<path fill="#ffffff" opacity="1.00" d=" M 1006.41 191.44 C 1032.20 185.05 1065.37 196.47 1075.62 222.46 C 1076.82 233.91 1082.10 245.88 1078.68 257.29 C 1066.41 262.61 1054.17 268.54 1040.59 269.59 C 905.30 286.14 770.03 302.92 634.71 319.32 L 633.83 319.41 C 632.51 317.94 629.86 315.01 628.53 313.54 C 626.34 315.75 624.42 318.20 622.88 320.90 C 552.54 329.58 482.16 337.93 411.85 346.86 C 383.72 348.79 354.93 357.86 327.12 348.94 C 322.12 336.79 323.31 320.59 324.14 307.30 C 332.50 282.54 359.02 268.66 383.92 267.97 C 591.37 242.17 798.94 216.85 1006.41 191.44 Z" />
<path fill="#bbbdbf" opacity="1.00" d=" M 1040.59 269.59 C 1054.17 268.54 1066.41 262.61 1078.68 257.29 C 1076.21 281.98 1051.65 298.16 1028.73 301.72 C 906.16 316.80 783.60 332.17 660.94 346.77 C 652.03 337.54 643.13 328.27 633.84 319.43 L 634.71 319.32 C 770.03 302.92 905.30 286.14 1040.59 269.59 Z" />
<path fill="#bbbdbf" opacity="1.00" d=" M 411.85 346.86 C 482.16 337.93 552.54 329.58 622.88 320.90 C 616.01 332.54 607.13 342.87 600.41 354.61 C 572.47 358.41 544.35 360.76 516.49 364.77 C 510.51 360.43 506.00 353.51 500.02 348.77 C 494.83 354.90 490.61 361.74 486.38 368.54 C 455.93 372.76 425.31 375.11 394.97 380.04 C 369.72 384.38 337.46 374.57 327.12 348.94 C 354.93 357.86 383.72 348.79 411.85 346.86 Z" />
<path fill="#ffcc00" opacity="1.00" d=" M 444.55 413.61 C 632.78 390.04 821.33 367.80 1009.48 344.07 C 1031.67 365.22 1048.73 391.94 1065.04 417.88 C 1057.77 424.26 1053.19 432.82 1047.15 440.18 C 992.35 488.16 991.02 583.88 1041.65 635.34 C 1061.96 657.22 1096.23 664.60 1123.30 651.47 C 1123.86 651.31 1124.99 650.99 1125.55 650.83 C 1126.98 661.74 1123.71 672.26 1121.77 682.85 C 1085.33 677.23 1048.90 670.96 1011.91 670.74 C 1013.48 670.48 1016.63 669.95 1018.20 669.69 C 998.73 651.16 967.13 654.75 948.11 672.10 C 912.15 703.75 899.46 757.69 912.12 803.15 C 874.42 811.71 836.03 819.59 797.28 819.90 C 762.62 816.01 729.76 801.89 694.78 800.21 C 665.36 798.26 642.57 825.72 612.71 820.67 C 584.19 815.64 561.44 794.68 533.29 788.47 C 516.06 784.11 502.84 803.22 485.71 797.47 C 463.35 787.24 452.79 761.90 431.11 750.74 C 412.48 742.70 394.37 762.50 376.09 753.01 C 349.02 737.76 324.18 718.63 302.04 696.86 C 292.90 667.82 290.21 637.03 292.50 606.74 C 296.30 613.60 302.08 619.08 308.17 623.92 C 309.24 649.61 330.87 667.93 353.22 676.78 C 412.24 698.77 477.50 696.10 538.78 685.73 C 538.80 685.33 538.86 684.52 538.88 684.12 C 499.00 683.96 459.34 679.77 419.76 675.29 C 389.12 669.64 354.90 662.40 335.02 635.92 C 392.60 662.74 458.80 664.05 520.84 656.91 C 520.87 656.43 520.92 655.47 520.94 654.98 C 482.13 655.64 443.50 648.96 405.80 640.22 C 374.20 631.69 338.31 621.40 319.83 592.11 C 371.79 627.64 437.14 635.04 498.40 632.25 C 453.48 625.08 408.74 613.91 367.36 594.68 C 352.28 585.73 335.99 576.49 327.94 560.06 C 375.81 577.57 426.21 585.88 476.71 591.28 C 525.68 597.58 578.54 608.45 613.74 646.26 C 621.15 653.97 626.92 663.05 634.04 670.99 C 628.38 641.52 607.03 618.15 582.14 602.85 C 497.31 555.95 395.13 562.93 307.11 524.83 C 317.36 486.95 334.43 451.02 354.32 417.25 C 384.35 423.72 414.60 416.81 444.55 413.61 M 847.06 391.83 C 817.95 393.31 793.44 414.05 775.99 435.99 C 735.10 491.51 733.53 572.47 771.21 630.04 C 753.17 643.98 734.93 657.76 715.90 670.35 C 721.02 678.99 727.34 686.82 733.21 694.95 C 753.21 682.09 771.60 666.83 791.32 653.53 C 795.72 658.60 801.35 662.64 807.15 665.98 C 797.31 686.78 784.32 705.95 774.89 726.95 C 783.23 732.25 792.09 736.63 800.95 740.98 C 812.03 720.48 823.68 700.13 833.93 679.28 C 877.48 693.12 927.25 672.19 950.95 633.95 C 1008.42 574.01 1009.19 467.57 951.33 407.68 C 925.12 379.85 880.09 371.50 847.06 391.83 Z" />
<path fill="#000000" opacity="1.00" d=" M 847.06 391.83 C 880.09 371.50 925.12 379.85 951.33 407.68 C 1009.19 467.57 1008.42 574.01 950.95 633.95 C 927.76 657.12 890.90 667.71 859.95 654.99 C 803.98 632.05 780.48 564.99 784.35 508.52 C 787.12 463.42 807.12 416.01 847.06 391.83 M 872.75 410.70 C 839.13 422.67 819.66 458.56 814.64 492.22 L 814.48 491.34 C 805.31 540.61 819.17 604.84 868.37 628.64 C 901.12 643.98 936.08 618.00 950.03 589.04 C 973.59 544.81 971.74 487.89 946.13 444.88 C 931.27 420.59 902.22 400.04 872.75 410.70 Z" />
<path fill="#cea806" opacity="1.00" d=" M 775.99 435.99 C 793.44 414.05 817.95 393.31 847.06 391.83 C 807.12 416.01 787.12 463.42 784.35 508.52 C 780.48 564.99 803.98 632.05 859.95 654.99 C 890.90 667.71 927.76 657.12 950.95 633.95 C 927.25 672.19 877.48 693.12 833.93 679.28 C 824.71 675.45 816.33 669.90 807.15 665.98 C 801.35 662.64 795.72 658.60 791.32 653.53 C 784.64 646.89 781.62 630.04 771.21 630.04 C 733.53 572.47 735.10 491.51 775.99 435.99 Z" />
<path fill="#ffffff" opacity="1.00" d=" M 872.75 410.70 C 902.22 400.04 931.27 420.59 946.13 444.88 C 971.74 487.89 973.59 544.81 950.03 589.04 C 928.49 606.57 896.09 610.76 872.00 596.01 C 835.23 575.21 818.71 532.31 814.64 492.22 C 819.66 458.56 839.13 422.67 872.75 410.70 M 894.72 495.71 C 884.05 520.55 885.91 558.71 912.19 573.07 C 934.78 579.81 947.36 553.41 948.98 535.18 C 939.30 533.26 929.57 531.57 920.05 528.91 C 927.99 518.91 936.54 509.42 944.70 499.61 C 943.12 489.63 935.21 480.73 926.27 476.47 C 911.87 472.09 899.56 483.26 894.72 495.71 Z" />
<path fill="#ffffff" opacity="1.00" d=" M 1107.34 420.23 C 1133.76 412.34 1157.71 432.48 1170.13 453.87 C 1192.36 493.96 1193.48 545.61 1172.26 586.28 C 1153.88 600.18 1127.43 605.20 1106.92 593.06 C 1073.05 574.67 1057.95 534.91 1054.21 498.46 C 1057.04 466.59 1075.32 431.27 1107.34 420.23 M 1124.15 500.15 C 1114.31 523.34 1116.84 557.41 1140.32 571.06 C 1160.31 576.18 1171.47 551.91 1171.81 535.46 C 1163.37 534.64 1155.23 532.30 1146.97 530.64 C 1152.95 520.50 1162.01 512.47 1168.87 502.88 C 1165.75 494.00 1160.43 484.98 1151.37 481.28 C 1138.53 478.38 1128.25 489.16 1124.15 500.15 Z" />
<path fill="#cea806" opacity="1.00" d=" M 1041.65 635.34 C 991.02 583.88 992.35 488.16 1047.15 440.18 C 1017.26 496.10 1018.25 571.24 1059.98 621.01 C 1075.18 640.05 1099.20 650.65 1123.30 651.47 C 1096.23 664.60 1061.96 657.22 1041.65 635.34 Z" />
<path fill="#000000" opacity="1.00" d=" M 894.72 495.71 C 899.56 483.26 911.87 472.09 926.27 476.47 C 935.21 480.73 943.12 489.63 944.70 499.61 C 936.54 509.42 927.99 518.91 920.05 528.91 C 929.57 531.57 939.30 533.26 948.98 535.18 C 947.36 553.41 934.78 579.81 912.19 573.07 C 885.91 558.71 884.05 520.55 894.72 495.71 Z" />
<path fill="#000000" opacity="1.00" d=" M 1124.15 500.15 C 1128.25 489.16 1138.53 478.38 1151.37 481.28 C 1160.43 484.98 1165.75 494.00 1168.87 502.88 C 1162.01 512.47 1152.95 520.50 1146.97 530.64 C 1155.23 532.30 1163.37 534.64 1171.81 535.46 C 1171.47 551.91 1160.31 576.18 1140.32 571.06 C 1116.84 557.41 1114.31 523.34 1124.15 500.15 Z" />
<path fill="#d0d2d3" opacity="1.00" d=" M 814.48 491.34 L 814.64 492.22 C 818.71 532.31 835.23 575.21 872.00 596.01 C 896.09 610.76 928.49 606.57 950.03 589.04 C 936.08 618.00 901.12 643.98 868.37 628.64 C 819.17 604.84 805.31 540.61 814.48 491.34 Z" />
<path fill="#d0d2d3" opacity="1.00" d=" M 1101.82 622.19 C 1058.44 600.09 1045.89 541.92 1054.21 498.46 C 1057.95 534.91 1073.05 574.67 1106.92 593.06 C 1127.43 605.20 1153.88 600.18 1172.26 586.28 C 1160.88 611.89 1130.54 635.68 1101.82 622.19 Z" />
<path fill="#000000" opacity="1.00" d=" M 771.21 630.04 C 781.62 630.04 784.64 646.89 791.32 653.53 C 771.60 666.83 753.21 682.09 733.21 694.95 C 727.34 686.82 721.02 678.99 715.90 670.35 C 734.93 657.76 753.17 643.98 771.21 630.04 Z" />
<path fill="#cea806" opacity="1.00" d=" M 948.11 672.10 C 967.13 654.75 998.73 651.16 1018.20 669.69 C 1016.63 669.95 1013.48 670.48 1011.91 670.74 C 991.68 672.89 975.80 688.57 967.09 706.09 C 953.44 737.12 948.27 775.16 963.41 806.55 C 971.99 824.87 992.82 831.30 1011.23 834.12 C 954.73 871.82 887.47 889.08 821.24 900.22 C 715.76 913.23 606.39 910.41 504.30 878.72 C 415.28 851.54 327.22 790.85 302.04 696.86 C 324.18 718.63 349.02 737.76 376.09 753.01 C 394.37 762.50 412.48 742.70 431.11 750.74 C 452.79 761.90 463.35 787.24 485.71 797.47 C 502.84 803.22 516.06 784.11 533.29 788.47 C 561.44 794.68 584.19 815.64 612.71 820.67 C 642.57 825.72 665.36 798.26 694.78 800.21 C 729.76 801.89 762.62 816.01 797.28 819.90 C 836.03 819.59 874.42 811.71 912.12 803.15 C 899.46 757.69 912.15 703.75 948.11 672.10 Z" />
<path fill="#000000" opacity="1.00" d=" M 807.15 665.98 C 816.33 669.90 824.71 675.45 833.93 679.28 C 823.68 700.13 812.03 720.48 800.95 740.98 C 792.09 736.63 783.23 732.25 774.89 726.95 C 784.32 705.95 797.31 686.78 807.15 665.98 Z" />
<path fill="#ff6600" opacity="1.00" d=" M 990.83 760.00 C 991.94 738.58 999.33 701.03 1028.44 707.29 C 1089.06 710.80 1148.50 724.08 1207.58 737.35 C 1235.67 745.75 1265.07 752.68 1289.77 769.24 C 1295.82 773.61 1285.89 777.52 1281.94 779.00 C 1184.77 791.50 1086.66 776.25 990.83 760.00 Z" />
<path fill="#cc3300" opacity="1.00" d=" M 990.83 760.00 C 1086.66 776.25 1184.77 791.50 1281.94 779.00 C 1248.00 799.29 1206.89 802.96 1168.30 807.33 C 1112.14 808.82 1054.42 810.73 1000.10 793.99 C 988.99 787.06 992.10 770.97 990.83 760.00 Z" />
</svg>
