<?xml version="1.0" encoding="UTF-8" ?>
<!DOCTYPE svg PUBLIC "-//W3C//DTD SVG 1.1//EN" "http://www.w3.org/Graphics/SVG/1.1/DTD/svg11.dtd">
<svg width="1346pt" height="1055pt" viewBox="0 0 1346 1055" version="1.1" xmlns="http://www.w3.org/2000/svg">
<path fill="#000000" opacity="1.00" d=" M 849.93 14.96 C 871.53 12.63 894.58 8.18 915.06 17.97 C 946.87 30.04 968.43 62.64 969.74 96.29 C 970.59 116.03 975.45 135.28 977.06 154.93 C 1001.12 153.05 1025.96 146.93 1049.65 154.38 C 1080.20 162.10 1107.65 185.84 1114.92 217.14 C 1117.71 236.87 1123.12 257.79 1114.93 276.99 C 1106.09 305.63 1080.70 326.42 1053.12 336.16 C 1066.11 357.07 1083.44 375.92 1095.33 397.92 C 1129.61 385.22 1167.27 403.46 1186.05 432.96 C 1227.02 493.50 1221.59 587.99 1163.26 635.56 C 1163.67 653.91 1160.13 671.91 1157.31 689.92 C 1204.28 698.48 1251.52 709.59 1294.97 730.02 C 1309.08 737.08 1323.01 747.09 1328.75 762.39 C 1334.10 778.62 1324.19 796.09 1310.23 804.23 C 1288.90 819.42 1263.67 827.73 1238.35 833.31 C 1180.49 845.85 1120.60 845.40 1061.84 842.76 C 986.07 902.62 889.87 929.94 795.07 939.06 C 733.24 946.23 670.39 944.05 608.62 938.35 C 604.49 951.54 602.81 965.25 601.64 978.97 C 574.45 974.64 549.04 954.26 543.54 926.48 C 513.70 920.84 485.34 909.61 456.42 901.04 C 441.91 924.55 432.62 951.20 431.64 978.97 C 400.98 974.42 373.17 948.45 372.25 916.47 C 371.30 911.99 373.56 906.45 370.51 902.60 C 353.93 884.24 343.85 858.71 347.93 833.85 C 289.09 784.00 257.90 707.92 255.38 631.78 C 206.74 666.04 150.28 689.86 91.31 698.41 C 64.80 700.71 29.65 703.54 12.76 678.28 C 2.52 653.72 22.83 632.02 37.86 614.86 C 73.63 580.31 118.74 556.88 165.28 540.32 C 166.57 540.30 167.55 538.46 166.27 537.75 C 120.08 507.15 76.23 469.16 51.18 418.81 C 42.79 400.91 38.06 374.03 57.74 361.81 C 89.60 348.19 123.38 363.52 153.02 375.97 C 203.10 400.93 248.93 435.66 283.28 480.11 C 294.02 453.30 307.32 427.51 321.00 402.19 C 276.75 370.65 269.01 297.10 309.22 259.21 C 329.67 238.25 359.29 229.10 387.91 227.69 C 387.85 206.37 381.43 185.68 380.72 164.40 C 371.19 119.14 405.49 70.72 451.05 64.03 C 584.01 47.41 716.96 31.21 849.93 14.96 M 835.16 56.14 C 708.42 71.71 581.64 87.12 454.94 102.89 C 421.10 110.91 412.33 149.64 422.15 179.03 C 424.61 192.31 424.52 205.93 427.18 219.16 C 460.49 215.66 493.57 210.75 526.89 207.33 C 534.73 198.01 539.80 185.86 547.99 177.30 C 558.44 183.26 564.12 198.00 576.16 201.09 C 696.37 186.22 816.69 171.72 936.91 156.78 C 935.76 143.40 933.96 130.06 932.01 116.77 C 931.68 97.43 929.49 74.86 912.90 62.08 C 891.34 42.77 860.66 54.02 835.16 56.14 M 1006.41 191.44 C 812.87 215.14 619.28 238.86 425.72 262.73 C 396.48 268.34 361.99 263.49 338.60 285.61 C 318.48 300.80 321.12 327.73 327.07 349.00 C 337.70 374.47 369.61 384.52 394.96 380.04 C 425.28 375.07 455.90 372.87 486.31 368.47 C 490.64 362.10 494.42 355.32 499.31 349.35 C 508.47 351.23 511.05 368.27 522.32 364.44 C 548.11 359.46 574.46 358.79 600.37 354.51 C 607.29 342.97 616.38 332.81 622.54 320.80 C 624.59 318.42 626.39 315.84 628.50 313.52 C 629.84 314.99 632.52 317.93 633.85 319.41 L 634.72 319.32 L 633.85 319.42 C 643.12 328.28 652.03 337.54 660.95 346.77 C 764.06 334.66 867.04 321.39 970.12 309.12 C 999.01 302.60 1031.78 307.94 1057.35 290.35 C 1068.07 282.82 1078.38 271.04 1078.57 257.29 C 1082.13 245.72 1076.83 233.34 1075.37 221.71 C 1064.63 196.26 1032.02 185.11 1006.41 191.44 M 996.94 345.87 C 814.25 367.86 631.66 390.85 448.97 412.87 C 417.58 416.03 385.73 424.51 354.22 417.27 C 305.52 500.52 273.37 602.88 302.94 698.05 C 309.87 728.77 327.21 756.68 346.79 781.01 C 345.83 766.86 353.05 753.78 362.92 744.20 C 420.36 707.10 497.65 725.26 554.29 685.23 C 534.90 706.43 506.57 715.11 480.75 725.76 C 447.71 737.73 411.19 743.60 382.96 765.91 C 373.02 774.68 372.83 788.23 375.31 800.28 C 409.37 760.15 464.22 747.51 514.13 741.09 C 475.04 757.64 435.92 776.45 403.82 804.83 C 387.65 820.19 372.07 841.55 378.27 865.23 C 403.26 815.20 455.72 786.99 508.12 774.09 C 475.61 796.40 442.25 819.42 418.49 851.47 C 400.12 873.05 390.86 908.06 413.17 930.20 C 418.78 912.79 422.37 894.26 432.72 878.71 C 459.14 835.53 504.09 809.51 544.86 781.86 C 585.36 756.25 628.56 721.93 633.82 670.72 C 638.41 691.13 637.24 713.12 629.81 732.78 C 617.39 762.08 592.06 782.95 567.70 802.16 C 538.43 823.08 507.43 844.33 481.71 870.40 C 587.39 910.29 703.81 913.40 814.97 901.01 C 883.48 890.79 952.34 872.42 1011.19 834.68 C 993.51 830.93 972.95 825.50 964.13 807.84 C 949.49 779.88 952.95 745.80 962.77 716.78 C 970.24 694.75 987.64 673.67 1011.95 670.75 C 1048.93 670.93 1085.34 677.29 1121.79 682.82 C 1123.27 672.16 1127.22 661.77 1125.55 650.84 C 1124.99 651.00 1123.86 651.32 1123.29 651.48 C 1098.70 650.67 1074.27 639.59 1059.10 619.89 C 1018.55 570.27 1017.20 496.09 1047.07 440.81 C 1053.01 433.17 1057.54 424.35 1065.03 417.89 C 1050.28 392.52 1032.41 368.87 1013.15 346.73 C 1009.06 341.31 1002.34 345.47 996.94 345.87 M 1107.35 420.23 C 1075.25 431.21 1057.12 466.70 1054.20 498.44 C 1045.50 542.48 1058.81 601.21 1103.10 622.90 C 1132.15 634.91 1160.65 611.43 1172.27 586.28 C 1193.30 546.00 1192.23 495.08 1170.94 455.06 C 1158.53 433.08 1134.29 412.21 1107.35 420.23 M 1012.95 707.33 C 996.04 718.29 992.05 741.36 990.82 760.00 C 992.11 770.97 988.99 787.07 1000.11 794.00 C 1054.42 810.73 1112.14 808.83 1168.30 807.33 C 1206.88 802.97 1247.99 799.31 1281.93 779.01 C 1286.06 777.87 1289.25 774.75 1292.47 772.04 C 1268.09 752.40 1236.09 746.19 1206.79 737.13 C 1142.96 723.20 1078.59 707.69 1012.95 707.33 Z" />
<path fill="#ee4036" opacity="1.00" d=" M 835.16 56.14 C 860.66 54.02 891.34 42.77 912.90 62.08 C 929.49 74.86 931.68 97.43 932.01 116.77 C 762.03 137.34 592.16 158.85 422.15 179.03 C 412.33 149.64 421.10 110.91 454.94 102.89 C 581.64 87.12 708.42 71.71 835.16 56.14 Z" />
<path fill="#be1e2d" opacity="1.00" d=" M 422.15 179.03 C 592.16 158.85 762.03 137.34 932.01 116.77 C 933.96 130.06 935.76 143.40 936.91 156.78 C 816.69 171.72 696.37 186.22 576.16 201.09 C 564.12 198.00 558.44 183.26 547.99 177.30 C 539.80 185.86 534.73 198.01 526.89 207.33 C 493.57 210.75 460.49 215.66 427.18 219.16 C 424.52 205.93 424.61 192.31 422.15 179.03 Z" />
<path fill="#ffffff" opacity="1.00" d=" M 1006.41 191.44 C 1032.02 185.11 1064.63 196.26 1075.37 221.71 C 1076.83 233.34 1082.13 245.72 1078.57 257.29 C 1066.36 262.68 1054.12 268.53 1040.59 269.59 C 905.30 286.14 770.03 302.92 634.72 319.32 L 633.85 319.41 C 632.52 317.93 629.84 314.99 628.50 313.52 C 626.39 315.84 624.59 318.42 622.54 320.80 C 540.73 331.10 458.85 340.91 377.01 351.00 C 360.37 353.80 343.35 353.74 327.07 349.00 C 321.12 327.73 318.48 300.80 338.60 285.61 C 361.99 263.49 396.48 268.34 425.72 262.73 C 619.28 238.86 812.87 215.14 1006.41 191.44 Z" />
<path fill="#bbbdbf" opacity="1.00" d=" M 1040.59 269.59 C 1054.12 268.53 1066.36 262.68 1078.57 257.29 C 1078.38 271.04 1068.07 282.82 1057.35 290.35 C 1031.78 307.94 999.01 302.60 970.12 309.12 C 867.04 321.39 764.06 334.66 660.95 346.77 C 652.03 337.54 643.12 328.28 633.85 319.42 L 634.72 319.32 C 770.03 302.92 905.30 286.14 1040.59 269.59 Z" />
<path fill="#bbbdbf" opacity="1.00" d=" M 377.01 351.00 C 458.85 340.91 540.73 331.10 622.54 320.80 C 616.38 332.81 607.29 342.97 600.37 354.51 C 574.46 358.79 548.11 359.46 522.32 364.44 C 511.05 368.27 508.47 351.23 499.31 349.35 C 494.42 355.32 490.64 362.10 486.31 368.47 C 455.90 372.87 425.28 375.07 394.96 380.04 C 369.61 384.52 337.70 374.47 327.07 349.00 C 343.35 353.74 360.37 353.80 377.01 351.00 Z" />
<path fill="#ffcc00" opacity="1.00" d=" M 996.94 345.87 C 1002.34 345.47 1009.06 341.31 1013.15 346.73 C 1032.41 368.87 1050.28 392.52 1065.03 417.89 C 1057.54 424.35 1053.01 433.17 1047.07 440.81 C 992.46 487.67 991.41 582.30 1040.15 633.85 C 1060.41 656.73 1095.52 664.97 1123.29 651.48 C 1123.86 651.32 1124.99 651.00 1125.55 650.84 C 1127.22 661.77 1123.27 672.16 1121.79 682.82 C 1085.34 677.29 1048.93 670.93 1011.95 670.75 C 1013.51 670.48 1016.63 669.95 1018.19 669.69 C 998.73 651.15 967.12 654.76 948.10 672.10 C 911.69 703.95 900.04 757.89 911.76 803.72 C 881.75 810.13 851.53 815.56 821.05 819.16 C 775.29 825.03 732.99 798.72 687.48 800.35 C 664.63 802.14 646.52 819.71 623.60 820.97 C 603.13 822.52 585.25 810.79 567.70 802.16 C 592.06 782.95 617.39 762.08 629.81 732.78 C 637.24 713.12 638.41 691.13 633.82 670.72 C 628.56 721.93 585.36 756.25 544.86 781.86 C 504.09 809.51 459.14 835.53 432.72 878.71 C 422.37 894.26 418.78 912.79 413.17 930.20 C 390.86 908.06 400.12 873.05 418.49 851.47 C 442.25 819.42 475.61 796.40 508.12 774.09 C 455.72 786.99 403.26 815.20 378.27 865.23 C 372.07 841.55 387.65 820.19 403.82 804.83 C 435.92 776.45 475.04 757.64 514.13 741.09 C 464.22 747.51 409.37 760.15 375.31 800.28 C 372.83 788.23 373.02 774.68 382.96 765.91 C 411.19 743.60 447.71 737.73 480.75 725.76 C 506.57 715.11 534.90 706.43 554.29 685.23 C 497.65 725.26 420.36 707.10 362.92 744.20 C 340.43 732.39 321.69 714.92 302.94 698.05 C 273.37 602.88 305.52 500.52 354.22 417.27 C 385.73 424.51 417.58 416.03 448.97 412.87 C 631.66 390.85 814.25 367.86 996.94 345.87 M 847.06 391.83 C 817.95 393.31 793.44 414.05 775.99 435.99 C 735.06 491.57 733.47 572.75 771.42 630.28 C 753.31 644.23 734.21 657.26 716.11 670.98 C 721.06 679.45 727.60 686.89 733.20 694.95 C 753.11 681.96 771.76 667.07 791.31 653.52 C 795.69 658.61 801.36 662.62 807.16 665.97 C 797.15 686.60 784.51 706.01 774.95 726.78 C 782.92 732.65 792.23 736.38 800.96 740.99 C 811.85 720.38 823.72 700.16 833.94 679.28 C 877.48 693.13 927.26 672.18 950.95 633.95 C 991.08 592.89 1002.45 529.11 988.35 474.66 C 979.86 440.82 960.20 408.16 929.05 390.95 C 904.21 376.46 871.68 377.13 847.06 391.83 Z" />
<path fill="#000000" opacity="1.00" d=" M 847.06 391.83 C 871.68 377.13 904.21 376.46 929.05 390.95 C 960.20 408.16 979.86 440.82 988.35 474.66 C 1002.45 529.11 991.08 592.89 950.95 633.95 C 920.49 666.00 865.69 669.28 833.03 638.97 C 762.99 575.99 766.93 444.70 847.06 391.83 M 872.75 410.71 C 839.13 422.66 819.65 458.56 814.65 492.21 L 814.49 491.34 C 805.31 540.60 819.17 604.85 868.37 628.64 C 901.12 643.99 936.08 617.99 950.04 589.03 C 973.59 544.80 971.74 487.89 946.13 444.88 C 931.27 420.59 902.23 400.04 872.75 410.71 Z" />
<path fill="#cea806" opacity="1.00" d=" M 775.99 435.99 C 793.44 414.05 817.95 393.31 847.06 391.83 C 766.93 444.70 762.99 575.99 833.03 638.97 C 865.69 669.28 920.49 666.00 950.95 633.95 C 927.26 672.18 877.48 693.13 833.94 679.28 C 824.73 675.43 816.33 669.91 807.16 665.97 C 801.36 662.62 795.69 658.61 791.31 653.52 C 786.21 644.84 780.43 636.60 774.03 628.84 C 773.15 629.30 772.28 629.78 771.42 630.28 C 733.47 572.75 735.06 491.57 775.99 435.99 Z" />
<path fill="#ffffff" opacity="1.00" d=" M 872.75 410.71 C 902.23 400.04 931.27 420.59 946.13 444.88 C 971.74 487.89 973.59 544.80 950.04 589.03 C 928.50 606.58 896.09 610.76 872.00 596.01 C 835.24 575.21 818.70 532.31 814.65 492.21 C 819.65 458.56 839.13 422.66 872.75 410.71 M 894.72 495.71 C 884.05 520.55 885.91 558.73 912.21 573.08 C 934.79 579.79 947.35 553.41 948.98 535.18 C 939.30 533.24 929.57 531.57 920.05 528.93 C 927.98 518.91 936.54 509.43 944.70 499.61 C 943.11 489.62 935.21 480.72 926.26 476.47 C 911.85 472.10 899.56 483.26 894.72 495.71 Z" />
<path fill="#ffffff" opacity="1.00" d=" M 1107.35 420.23 C 1134.29 412.21 1158.53 433.08 1170.94 455.06 C 1192.23 495.08 1193.30 546.00 1172.27 586.28 C 1153.89 600.17 1127.43 605.20 1106.92 593.06 C 1073.04 574.67 1057.94 534.89 1054.20 498.44 C 1057.12 466.70 1075.25 431.21 1107.35 420.23 M 1135.61 484.66 C 1112.43 505.41 1112.90 548.57 1136.22 568.91 C 1156.77 580.75 1172.21 553.10 1171.81 535.48 C 1163.39 534.56 1155.22 532.36 1146.96 530.64 C 1152.97 520.50 1162.01 512.46 1168.88 502.88 C 1165.49 488.88 1150.03 473.30 1135.61 484.66 Z" />
<path fill="#cea806" opacity="1.00" d=" M 1040.15 633.85 C 991.41 582.30 992.46 487.67 1047.07 440.81 C 1017.20 496.09 1018.55 570.27 1059.10 619.89 C 1074.27 639.59 1098.70 650.67 1123.29 651.48 C 1095.52 664.97 1060.41 656.73 1040.15 633.85 Z" />
<path fill="#000000" opacity="1.00" d=" M 894.72 495.71 C 899.56 483.26 911.85 472.10 926.26 476.47 C 935.21 480.72 943.11 489.62 944.70 499.61 C 936.54 509.43 927.98 518.91 920.05 528.93 C 929.57 531.57 939.30 533.24 948.98 535.18 C 947.35 553.41 934.79 579.79 912.21 573.08 C 885.91 558.73 884.05 520.55 894.72 495.71 Z" />
<path fill="#000000" opacity="1.00" d=" M 1135.61 484.66 C 1150.03 473.30 1165.49 488.88 1168.88 502.88 C 1162.01 512.46 1152.97 520.50 1146.96 530.64 C 1155.22 532.36 1163.39 534.56 1171.81 535.48 C 1172.21 553.10 1156.77 580.75 1136.22 568.91 C 1112.90 548.57 1112.43 505.41 1135.61 484.66 Z" />
<path fill="#d0d2d3" opacity="1.00" d=" M 814.49 491.34 L 814.65 492.21 C 818.70 532.31 835.24 575.21 872.00 596.01 C 896.09 610.76 928.50 606.58 950.04 589.03 C 936.08 617.99 901.12 643.99 868.37 628.64 C 819.17 604.85 805.31 540.60 814.49 491.34 Z" />
<path fill="#d0d2d3" opacity="1.00" d=" M 1103.10 622.90 C 1058.81 601.21 1045.50 542.48 1054.20 498.44 C 1057.94 534.89 1073.04 574.67 1106.92 593.06 C 1127.43 605.20 1153.89 600.17 1172.27 586.28 C 1160.65 611.43 1132.15 634.91 1103.10 622.90 Z" />
<path fill="#000000" opacity="1.00" d=" M 771.42 630.28 C 772.28 629.78 773.15 629.30 774.03 628.84 C 780.43 636.60 786.21 644.84 791.31 653.52 C 771.76 667.07 753.11 681.96 733.20 694.95 C 727.60 686.89 721.06 679.45 716.11 670.98 C 734.21 657.26 753.31 644.23 771.42 630.28 Z" />
<path fill="#cea806" opacity="1.00" d=" M 948.10 672.10 C 967.12 654.76 998.73 651.15 1018.19 669.69 C 1016.63 669.95 1013.51 670.48 1011.95 670.75 C 987.64 673.67 970.24 694.75 962.77 716.78 C 952.95 745.80 949.49 779.88 964.13 807.84 C 972.95 825.50 993.51 830.93 1011.19 834.68 C 952.34 872.42 883.48 890.79 814.97 901.01 C 703.81 913.40 587.39 910.29 481.71 870.40 C 507.43 844.33 538.43 823.08 567.70 802.16 C 585.25 810.79 603.13 822.52 623.60 820.97 C 646.52 819.71 664.63 802.14 687.48 800.35 C 732.99 798.72 775.29 825.03 821.05 819.16 C 851.53 815.56 881.75 810.13 911.76 803.72 C 900.04 757.89 911.69 703.95 948.10 672.10 Z" />
<path fill="#000000" opacity="1.00" d=" M 807.16 665.97 C 816.33 669.91 824.73 675.43 833.94 679.28 C 823.72 700.16 811.85 720.38 800.96 740.99 C 792.23 736.38 782.92 732.65 774.95 726.78 C 784.51 706.01 797.15 686.60 807.16 665.97 Z" />
<path fill="#cea806" opacity="1.00" d=" M 302.94 698.05 C 321.69 714.92 340.43 732.39 362.92 744.20 C 353.05 753.78 345.83 766.86 346.79 781.01 C 327.21 756.68 309.87 728.77 302.94 698.05 Z" />
<path fill="#ff6600" opacity="1.00" d=" M 1012.95 707.33 C 1078.59 707.69 1142.96 723.20 1206.79 737.13 C 1236.09 746.19 1268.09 752.40 1292.47 772.04 C 1289.25 774.75 1286.06 777.87 1281.93 779.01 C 1184.75 791.56 1086.66 776.23 990.82 760.00 C 992.05 741.36 996.04 718.29 1012.95 707.33 Z" />
<path fill="#cc3300" opacity="1.00" d=" M 990.82 760.00 C 1086.66 776.23 1184.75 791.56 1281.93 779.01 C 1247.99 799.31 1206.88 802.97 1168.30 807.33 C 1112.14 808.83 1054.42 810.73 1000.11 794.00 C 988.99 787.07 992.11 770.97 990.82 760.00 Z" />
</svg>
