<?xml version="1.0" encoding="UTF-8" ?>
<!DOCTYPE svg PUBLIC "-//W3C//DTD SVG 1.1//EN" "http://www.w3.org/Graphics/SVG/1.1/DTD/svg11.dtd">
<svg width="735pt" height="801pt" viewBox="0 0 735 801" version="1.1" xmlns="http://www.w3.org/2000/svg">
<path fill="#f6921e" opacity="1.00" d=" M 487.16 5.88 C 495.37 18.71 500.84 33.00 507.41 46.68 C 522.46 47.50 537.07 51.23 551.99 53.05 C 541.62 63.64 531.82 75.06 520.15 84.25 C 522.03 99.23 524.87 114.08 526.97 129.03 C 513.51 123.38 501.16 115.14 487.99 109.08 C 473.90 113.99 461.88 123.51 447.99 128.99 C 448.70 114.00 453.47 99.53 454.02 84.55 C 443.59 73.72 432.56 63.31 421.89 52.83 C 436.73 50.36 451.77 49.53 466.58 46.80 C 474.70 33.81 479.76 19.24 487.16 5.88 Z" />
<path fill="#f6921e" opacity="1.00" d=" M 296.61 57.72 C 301.80 48.45 306.10 38.68 311.70 29.64 C 316.65 39.11 320.66 49.03 325.66 58.47 C 336.59 59.08 347.51 60.30 358.24 62.54 C 350.88 69.89 343.25 77.03 335.67 84.10 C 333.82 95.09 338.76 106.00 340.06 116.94 C 329.52 113.83 321.44 104.26 310.35 103.28 C 300.77 106.30 292.76 112.89 283.44 116.39 C 284.47 105.92 286.59 95.60 287.92 85.16 C 280.58 77.82 272.73 70.96 265.96 63.08 C 276.31 62.04 286.35 59.28 296.61 57.72 Z" />
<path fill="#f6921e" opacity="1.00" d=" M 637.32 105.34 C 640.14 97.04 643.95 89.09 648.82 81.81 C 653.02 89.83 656.76 98.10 661.35 105.93 C 669.92 107.15 679.38 105.82 687.39 109.71 C 670.47 119.53 666.13 136.08 672.22 153.84 C 663.96 150.96 656.78 145.77 648.89 142.18 C 640.35 145.06 633.24 151.37 624.87 154.87 C 625.22 145.95 629.51 137.53 628.90 128.54 C 624.26 121.18 616.87 115.95 610.94 109.64 C 619.79 108.59 628.45 106.35 637.32 105.34 Z" />
<path fill="#f6921e" opacity="1.00" d=" M 201.39 155.37 C 203.47 147.58 208.16 140.86 211.82 133.76 C 215.73 140.88 218.22 148.66 222.37 155.66 C 230.44 157.34 238.56 158.91 246.83 159.08 C 241.50 165.31 235.80 171.29 229.41 176.44 C 230.13 184.48 231.67 192.41 232.53 200.44 C 223.74 198.68 215.82 186.66 206.51 192.47 C 200.92 194.72 195.94 198.31 190.20 200.24 C 195.99 183.76 190.79 170.06 176.83 160.14 C 184.71 157.22 193.30 157.45 201.39 155.37 Z" />
<path fill="#000000" opacity="1.00" d=" M 318.64 158.64 C 406.51 122.23 512.46 126.21 594.72 175.28 C 634.87 199.00 666.87 239.34 672.43 286.59 C 693.24 289.24 708.41 308.05 709.49 328.61 C 713.65 355.08 705.40 382.18 689.21 403.02 C 717.54 450.86 715.71 517.15 679.21 560.20 C 671.63 566.06 666.03 573.76 663.15 582.93 C 683.69 589.95 703.80 598.18 724.37 605.16 C 695.97 609.61 667.21 613.73 638.76 618.45 C 570.88 687.22 466.83 696.82 375.51 693.34 C 357.17 724.14 334.57 756.30 336.93 793.97 C 306.34 783.17 286.36 751.43 285.64 719.57 C 279.20 715.42 274.76 708.90 268.47 704.62 C 252.81 732.04 234.34 760.89 236.93 793.97 C 206.34 783.17 186.37 751.44 185.63 719.58 C 169.57 708.46 156.46 690.84 157.86 670.34 C 158.05 663.50 147.15 655.28 155.95 650.65 C 149.04 628.92 156.34 606.29 173.94 592.23 C 162.15 573.29 155.29 551.25 152.88 529.17 C 113.06 534.08 70.75 535.23 32.83 520.13 C 22.82 515.45 7.42 508.52 9.83 495.06 C 15.96 487.81 26.78 487.83 35.35 485.40 C 66.41 479.78 98.12 479.74 129.29 474.69 C 99.82 450.33 62.91 434.49 37.03 405.81 C 27.12 393.22 47.04 384.41 57.17 386.88 C 97.84 389.03 135.50 408.75 168.91 430.90 C 174.24 417.69 181.97 405.68 190.02 394.00 C 155.40 358.34 162.63 287.36 212.71 269.49 C 224.46 216.48 270.81 179.12 318.64 158.64 M 481.26 168.33 C 434.05 161.80 384.62 166.65 339.82 183.40 C 335.92 175.96 332.95 168.03 328.74 160.74 C 323.74 168.42 320.29 176.96 315.84 184.95 C 307.18 186.20 298.47 186.99 289.77 187.92 C 293.90 192.80 298.57 197.17 303.10 201.67 C 290.40 209.06 278.52 218.28 268.86 229.37 L 268.03 229.23 C 258.28 241.93 248.19 254.95 243.99 270.76 C 376.07 282.23 508.54 300.92 641.20 292.64 C 640.81 277.13 635.69 262.02 627.48 248.93 C 599.48 204.53 547.85 180.67 497.78 171.24 C 494.20 165.63 492.55 158.33 488.91 153.30 C 485.25 156.35 484.49 163.87 481.26 168.33 M 199.81 346.06 C 202.11 360.90 210.39 376.27 226.14 379.85 C 279.67 398.84 337.28 401.35 393.39 405.65 C 479.90 408.27 567.38 406.26 652.40 388.45 C 668.77 386.61 676.01 368.22 678.02 354.07 L 678.90 353.97 C 680.27 342.67 682.38 326.33 672.19 318.48 C 656.53 318.10 641.55 326.44 625.50 325.52 C 491.82 329.18 359.07 311.17 226.19 300.10 C 204.22 301.06 197.06 327.89 199.81 346.06 M 203.27 412.29 C 175.40 451.89 163.90 504.33 178.99 550.98 C 181.18 561.43 186.29 570.91 191.30 580.23 C 196.73 578.00 201.95 575.29 207.04 572.37 C 230.18 559.75 255.25 548.21 271.17 526.18 C 261.63 560.95 226.50 578.36 200.34 599.34 C 187.48 609.69 170.01 622.33 172.23 640.98 C 193.68 617.14 223.77 602.27 254.14 593.08 C 231.59 611.58 205.63 627.54 189.98 652.91 C 181.45 665.22 183.35 684.29 194.66 694.11 C 203.40 645.65 249.30 616.64 289.99 595.96 C 261.85 624.21 231.51 653.21 217.66 691.65 C 209.38 711.79 209.73 735.23 218.20 755.24 C 231.99 678.61 311.38 635.98 330.35 561.37 C 335.46 546.17 332.19 530.04 330.20 514.60 C 342.17 543.99 335.46 577.84 324.86 606.78 C 317.35 624.01 308.60 640.68 298.92 656.79 C 344.21 670.59 391.86 673.75 438.96 672.08 C 494.35 668.97 552.22 658.09 598.17 625.12 C 577.62 627.08 557.46 632.20 536.86 633.53 C 544.23 614.15 551.85 594.77 558.02 574.98 C 549.61 580.96 540.20 585.25 531.26 590.29 C 502.75 596.88 470.98 592.60 448.50 572.50 C 410.35 539.78 399.36 484.24 411.74 437.00 C 410.18 437.00 408.63 437.01 407.08 437.03 C 341.12 432.50 272.74 430.98 210.33 406.62 C 206.37 404.92 204.61 409.45 203.27 412.29 M 445.93 437.72 C 442.13 437.93 438.34 438.15 434.55 438.38 C 421.37 478.35 429.72 527.31 462.35 555.66 C 478.43 569.28 501.33 577.04 521.88 569.30 L 521.07 569.10 C 545.94 564.46 560.67 541.39 573.36 521.63 C 577.72 528.64 582.21 535.56 587.01 542.30 C 599.10 557.91 623.28 571.76 642.19 560.09 C 651.56 558.74 658.21 549.92 664.63 543.64 C 692.97 508.04 694.61 454.07 670.87 415.80 C 597.37 433.81 521.32 437.69 445.93 437.72 M 581.01 575.03 C 576.98 586.01 572.94 597.00 569.06 608.04 C 592.84 604.62 616.66 601.25 640.29 596.94 C 620.63 589.38 600.93 581.86 581.01 575.03 M 288.96 687.12 C 290.37 689.83 292.09 692.44 294.69 694.16 C 295.37 690.66 296.11 687.23 296.85 683.76 C 294.18 684.79 291.54 685.90 288.96 687.12 M 320.22 683.83 C 310.93 706.38 308.03 732.48 318.20 755.24 C 321.55 730.73 334.34 709.18 347.97 689.10 C 338.68 687.53 329.35 686.18 320.22 683.83 Z" />
<path fill="#f6921e" opacity="1.00" d=" M 481.26 168.33 C 484.49 163.87 485.25 156.35 488.91 153.30 C 492.55 158.33 494.20 165.63 497.78 171.24 C 500.80 177.54 503.89 183.82 507.22 189.97 C 520.58 191.57 533.93 193.27 547.19 195.52 C 545.75 196.96 544.32 198.41 542.88 199.85 C 535.01 207.72 526.91 215.36 518.65 222.82 C 518.32 233.61 521.29 244.22 523.70 254.67 C 523.79 257.41 523.89 260.21 523.92 262.97 C 516.09 259.57 508.73 255.19 500.93 251.73 C 494.32 245.55 485.59 244.43 478.80 250.61 C 470.06 254.84 461.34 259.13 452.86 263.86 C 453.72 259.02 454.38 254.14 455.08 249.27 C 456.81 240.89 458.38 232.48 459.69 224.03 C 450.11 214.41 440.13 205.19 430.98 195.15 C 444.09 193.19 457.34 192.00 470.39 189.71 C 475.47 183.50 477.17 175.20 481.26 168.33 Z" />
<path fill="#f6921e" opacity="1.00" d=" M 315.84 184.95 C 320.29 176.96 323.74 168.42 328.74 160.74 C 332.95 168.03 335.92 175.96 339.82 183.40 C 348.67 185.96 357.95 186.48 366.99 188.10 C 361.12 194.68 354.74 200.80 347.97 206.44 C 348.51 215.42 350.88 224.12 351.95 233.03 C 344.50 230.06 337.68 225.75 330.35 222.57 C 320.91 222.29 313.75 230.35 305.03 233.05 C 305.87 224.30 307.23 215.61 308.73 206.95 C 306.84 205.19 304.96 203.44 303.10 201.67 C 298.57 197.17 293.90 192.80 289.77 187.92 C 298.47 186.99 307.18 186.20 315.84 184.95 Z" />
<path fill="#cc0000" opacity="1.00" d=" M 339.82 183.40 C 384.62 166.65 434.05 161.80 481.26 168.33 C 477.17 175.20 475.47 183.50 470.39 189.71 C 457.34 192.00 444.09 193.19 430.98 195.15 C 440.13 205.19 450.11 214.41 459.69 224.03 C 458.38 232.48 456.81 240.89 455.08 249.27 C 392.88 244.19 330.67 238.09 268.86 229.37 C 278.52 218.28 290.40 209.06 303.10 201.67 C 304.96 203.44 306.84 205.19 308.73 206.95 C 307.23 215.61 305.87 224.30 305.03 233.05 C 313.75 230.35 320.91 222.29 330.35 222.57 C 337.68 225.75 344.50 230.06 351.95 233.03 C 350.88 224.12 348.51 215.42 347.97 206.44 C 354.74 200.80 361.12 194.68 366.99 188.10 C 357.95 186.48 348.67 185.96 339.82 183.40 Z" />
<path fill="#cc0000" opacity="1.00" d=" M 497.78 171.24 C 547.85 180.67 599.48 204.53 627.48 248.93 C 593.80 258.39 558.13 251.61 523.70 254.67 C 521.29 244.22 518.32 233.61 518.65 222.82 C 538.02 231.87 558.97 240.57 580.82 237.22 C 587.39 234.70 585.04 226.04 580.77 222.27 C 570.26 211.74 556.44 205.48 542.88 199.85 C 544.32 198.41 545.75 196.96 547.19 195.52 C 533.93 193.27 520.58 191.57 507.22 189.97 C 503.89 183.82 500.80 177.54 497.78 171.24 Z" />
<path fill="#f6921e" opacity="1.00" d=" M 694.56 184.67 C 696.72 180.36 698.44 175.83 700.88 171.67 C 702.93 181.54 709.73 187.32 719.97 185.83 C 712.54 191.78 709.03 200.04 712.90 209.06 C 708.90 207.09 704.94 205.05 701.00 202.97 C 697.07 205.14 693.00 207.03 688.90 208.85 C 689.43 204.12 689.65 199.35 689.91 194.60 C 686.93 192.09 683.33 189.91 681.77 186.17 C 686.02 185.62 690.29 185.14 694.56 184.67 Z" />
<path fill="#ffffff" opacity="1.00" d=" M 518.65 222.82 C 526.91 215.36 535.01 207.72 542.88 199.85 C 556.44 205.48 570.26 211.74 580.77 222.27 C 585.04 226.04 587.39 234.70 580.82 237.22 C 558.97 240.57 538.02 231.87 518.65 222.82 Z" />
<path fill="#990000" opacity="1.00" d=" M 268.03 229.23 L 268.86 229.37 C 330.67 238.09 392.88 244.19 455.08 249.27 C 454.38 254.14 453.72 259.02 452.86 263.86 C 461.34 259.13 470.06 254.84 478.80 250.61 C 486.15 251.38 493.54 251.58 500.93 251.73 C 508.73 255.19 516.09 259.57 523.92 262.97 C 523.89 260.21 523.79 257.41 523.70 254.67 C 558.13 251.61 593.80 258.39 627.48 248.93 C 635.69 262.02 640.81 277.13 641.20 292.64 C 508.54 300.92 376.07 282.23 243.99 270.76 C 248.19 254.95 258.28 241.93 268.03 229.23 Z" />
<path fill="#cc0000" opacity="1.00" d=" M 478.80 250.61 C 485.59 244.43 494.32 245.55 500.93 251.73 C 493.54 251.58 486.15 251.38 478.80 250.61 Z" />
<path fill="#666666" opacity="1.00" d=" M 199.81 346.06 C 197.06 327.89 204.22 301.06 226.19 300.10 C 359.07 311.17 491.82 329.18 625.50 325.52 C 641.55 326.44 656.53 318.10 672.19 318.48 C 682.38 326.33 680.27 342.67 678.90 353.97 L 678.02 354.07 C 549.10 375.66 417.12 376.55 287.32 362.69 C 257.80 359.21 228.47 354.03 199.81 346.06 Z" />
<path fill="#404041" opacity="1.00" d=" M 199.81 346.06 C 228.47 354.03 257.80 359.21 287.32 362.69 C 417.12 376.55 549.10 375.66 678.02 354.07 C 676.01 368.22 668.77 386.61 652.40 388.45 C 567.38 406.26 479.90 408.27 393.39 405.65 C 337.28 401.35 279.67 398.84 226.14 379.85 C 210.39 376.27 202.11 360.90 199.81 346.06 Z" />
<path fill="#c8be99" opacity="1.00" d=" M 203.27 412.29 C 204.61 409.45 206.37 404.92 210.33 406.62 C 207.97 408.50 205.59 410.35 203.27 412.29 Z" />
<path fill="#99cc00" opacity="1.00" d=" M 210.33 406.62 C 272.74 430.98 341.12 432.50 407.08 437.03 C 392.51 488.88 400.07 551.71 441.54 589.45 C 465.71 612.22 506.94 613.53 531.26 590.29 C 540.20 585.25 549.61 580.96 558.02 574.98 C 551.85 594.77 544.23 614.15 536.86 633.53 C 520.57 637.34 504.26 642.38 487.39 642.59 C 460.06 636.83 438.22 617.02 411.14 610.50 C 392.13 606.35 378.17 624.84 359.38 622.00 C 346.92 619.36 336.05 612.52 324.86 606.78 C 335.46 577.84 342.17 543.99 330.20 514.60 C 332.19 530.04 335.46 546.17 330.35 561.37 C 311.38 635.98 231.99 678.61 218.20 755.24 C 209.73 735.23 209.38 711.79 217.66 691.65 C 231.51 653.21 261.85 624.21 289.99 595.96 C 249.30 616.64 203.40 645.65 194.66 694.11 C 183.35 684.29 181.45 665.22 189.98 652.91 C 205.63 627.54 231.59 611.58 254.14 593.08 C 223.77 602.27 193.68 617.14 172.23 640.98 C 170.01 622.33 187.48 609.69 200.34 599.34 C 226.50 578.36 261.63 560.95 271.17 526.18 C 255.25 548.21 230.18 559.75 207.04 572.37 C 196.47 566.97 187.95 558.58 178.99 550.98 C 163.90 504.33 175.40 451.89 203.27 412.29 C 205.59 410.35 207.97 408.50 210.33 406.62 M 369.13 561.55 C 370.64 583.12 401.94 569.59 410.53 557.75 C 397.21 556.76 379.96 551.97 369.13 561.55 M 381.42 598.52 C 401.02 613.56 422.79 591.77 419.84 570.83 C 405.94 577.64 387.78 583.40 381.42 598.52 Z" />
<path fill="#ffffff" opacity="1.00" d=" M 445.93 437.72 C 521.32 437.69 597.37 433.81 670.87 415.80 C 694.61 454.07 692.97 508.04 664.63 543.64 C 658.21 549.92 651.56 558.74 642.19 560.09 C 623.45 556.74 609.59 542.46 598.36 528.10 C 594.95 533.11 591.32 538.00 587.01 542.30 C 582.21 535.56 577.72 528.64 573.36 521.63 C 560.67 541.39 545.94 564.46 521.07 569.10 C 462.70 559.06 433.89 491.17 445.93 437.72 M 591.24 456.31 C 591.95 468.02 601.37 476.99 608.97 485.19 C 602.31 494.26 591.17 502.43 591.17 514.76 C 603.16 514.73 611.37 504.62 620.15 497.96 C 630.22 502.87 637.32 515.37 649.80 514.81 C 650.32 502.33 638.50 494.88 632.95 485.08 C 639.28 476.26 650.28 468.14 649.79 456.29 C 637.35 455.66 629.56 467.73 620.20 473.94 C 611.73 466.65 603.27 456.31 591.24 456.31 M 505.43 461.22 C 505.28 473.94 516.64 482.17 523.22 491.75 C 515.69 499.89 505.78 508.89 505.39 520.74 C 517.54 520.64 526.03 509.75 535.06 502.92 C 544.01 509.58 552.24 521.38 564.67 520.82 C 565.57 508.23 552.68 500.64 547.25 491.03 C 552.95 481.33 565.21 473.75 564.57 461.31 C 552.84 462.36 543.96 472.17 535.01 479.12 C 525.73 472.68 517.46 461.86 505.43 461.22 Z" />
<path fill="#669900" opacity="1.00" d=" M 407.08 437.03 C 408.63 437.01 410.18 437.00 411.74 437.00 C 399.36 484.24 410.35 539.78 448.50 572.50 C 470.98 592.60 502.75 596.88 531.26 590.29 C 506.94 613.53 465.71 612.22 441.54 589.45 C 400.07 551.71 392.51 488.88 407.08 437.03 Z" />
<path fill="#d0d2d3" opacity="1.00" d=" M 434.55 438.38 C 438.34 438.15 442.13 437.93 445.93 437.72 C 433.89 491.17 462.70 559.06 521.07 569.10 L 521.88 569.30 C 501.33 577.04 478.43 569.28 462.35 555.66 C 429.72 527.31 421.37 478.35 434.55 438.38 Z" />
<path fill="#000000" opacity="1.00" d=" M 591.24 456.31 C 603.27 456.31 611.73 466.65 620.20 473.94 C 629.56 467.73 637.35 455.66 649.79 456.29 C 650.28 468.14 639.28 476.26 632.95 485.08 C 638.50 494.88 650.32 502.33 649.80 514.81 C 637.32 515.37 630.22 502.87 620.15 497.96 C 611.37 504.62 603.16 514.73 591.17 514.76 C 591.17 502.43 602.31 494.26 608.97 485.19 C 601.37 476.99 591.95 468.02 591.24 456.31 Z" />
<path fill="#000000" opacity="1.00" d=" M 505.43 461.22 C 517.46 461.86 525.73 472.68 535.01 479.12 C 543.96 472.17 552.84 462.36 564.57 461.31 C 565.21 473.75 552.95 481.33 547.25 491.03 C 552.68 500.64 565.57 508.23 564.67 520.82 C 552.24 521.38 544.01 509.58 535.06 502.92 C 526.03 509.75 517.54 520.64 505.39 520.74 C 505.78 508.89 515.69 499.89 523.22 491.75 C 516.64 482.17 505.28 473.94 505.43 461.22 Z" />
<path fill="#d0d2d3" opacity="1.00" d=" M 598.36 528.10 C 609.59 542.46 623.45 556.74 642.19 560.09 C 623.28 571.76 599.10 557.91 587.01 542.30 C 591.32 538.00 594.95 533.11 598.36 528.10 Z" />
<path fill="#669900" opacity="1.00" d=" M 178.99 550.98 C 187.95 558.58 196.47 566.97 207.04 572.37 C 201.95 575.29 196.73 578.00 191.30 580.23 C 186.29 570.91 181.18 561.43 178.99 550.98 Z" />
<path fill="#000000" opacity="1.00" d=" M 369.13 561.55 C 379.96 551.97 397.21 556.76 410.53 557.75 C 401.94 569.59 370.64 583.12 369.13 561.55 Z" />
<path fill="#000000" opacity="1.00" d=" M 381.42 598.52 C 387.78 583.40 405.94 577.64 419.84 570.83 C 422.79 591.77 401.02 613.56 381.42 598.52 Z" />
<path fill="#f05a28" opacity="1.00" d=" M 581.01 575.03 C 600.93 581.86 620.63 589.38 640.29 596.94 C 616.66 601.25 592.84 604.62 569.06 608.04 C 572.94 597.00 576.98 586.01 581.01 575.03 Z" />
<path fill="#669900" opacity="1.00" d=" M 298.92 656.79 C 308.60 640.68 317.35 624.01 324.86 606.78 C 336.05 612.52 346.92 619.36 359.38 622.00 C 378.17 624.84 392.13 606.35 411.14 610.50 C 438.22 617.02 460.06 636.83 487.39 642.59 C 504.26 642.38 520.57 637.34 536.86 633.53 C 557.46 632.20 577.62 627.08 598.17 625.12 C 552.22 658.09 494.35 668.97 438.96 672.08 C 391.86 673.75 344.21 670.59 298.92 656.79 Z" />
<path fill="#99cc00" opacity="1.00" d=" M 288.96 687.12 C 291.54 685.90 294.18 684.79 296.85 683.76 C 296.11 687.23 295.37 690.66 294.69 694.16 C 292.09 692.44 290.37 689.83 288.96 687.12 Z" />
<path fill="#99cc00" opacity="1.00" d=" M 320.22 683.83 C 329.35 686.18 338.68 687.53 347.97 689.10 C 334.34 709.18 321.55 730.73 318.20 755.24 C 308.03 732.48 310.93 706.38 320.22 683.83 Z" />
</svg>
