<?xml version="1.0" encoding="UTF-8" ?>
<!DOCTYPE svg PUBLIC "-//W3C//DTD SVG 1.1//EN" "http://www.w3.org/Graphics/SVG/1.1/DTD/svg11.dtd">
<svg width="716pt" height="632pt" viewBox="0 0 716 632" version="1.1" xmlns="http://www.w3.org/2000/svg">
<path fill="#000000" opacity="1.00" d=" M 515.51 19.39 C 527.75 18.02 538.10 26.87 547.35 33.64 C 584.47 67.83 607.63 120.02 598.22 170.90 C 606.97 179.27 613.72 189.48 621.64 198.48 C 641.26 202.41 659.49 213.49 670.69 230.31 C 707.62 281.35 703.33 360.82 655.57 403.60 C 653.27 407.50 651.53 411.74 649.95 415.98 C 669.85 424.19 690.26 431.24 710.50 438.59 C 681.70 444.37 652.04 446.19 623.58 453.27 C 567.34 509.51 484.21 525.93 407.48 527.39 C 389.72 556.54 370.07 587.62 370.66 623.11 C 340.86 612.15 320.46 580.95 320.74 549.41 C 314.39 544.83 308.81 539.30 303.16 533.92 C 287.30 561.31 269.87 590.26 270.66 623.11 C 240.86 612.15 220.45 580.95 220.75 549.40 C 202.28 537.53 188.72 516.32 193.49 493.57 C 178.64 499.87 163.77 506.11 149.15 512.95 C 144.89 504.33 140.88 495.54 138.11 486.32 C 155.15 479.63 171.92 472.16 188.53 464.44 C 166.77 437.41 144.82 407.51 140.48 371.69 C 127.51 377.08 115.84 385.14 103.15 391.17 C 113.44 377.01 123.47 362.65 132.95 347.94 C 100.46 361.61 68.24 376.21 35.43 388.94 C 27.68 364.14 17.77 340.06 9.80 315.33 C 48.08 311.00 86.15 305.00 124.38 300.19 C 88.29 290.48 52.05 281.24 15.98 271.40 C 18.09 262.10 24.47 254.52 27.59 245.57 C 34.25 244.14 40.95 242.75 47.26 240.11 C 44.20 234.92 39.39 230.05 38.28 224.12 C 42.91 212.42 49.52 201.57 54.22 189.87 C 88.45 213.68 120.85 240.02 154.88 264.12 C 211.84 147.34 354.52 82.62 480.41 107.64 C 457.78 90.63 431.42 78.69 410.47 59.47 C 405.57 55.18 405.48 45.31 412.85 43.64 C 434.24 35.82 456.64 45.80 475.99 55.01 C 516.88 74.25 552.69 106.61 570.75 148.56 C 569.10 113.53 548.31 81.89 530.96 52.04 C 525.41 41.43 515.49 32.08 515.51 19.39 M 448.44 124.20 C 447.50 138.91 441.64 152.63 432.45 164.04 C 423.78 169.35 412.84 169.29 404.26 163.77 L 405.14 163.71 C 394.76 153.87 390.13 139.86 387.93 126.06 C 380.73 127.35 373.48 128.33 366.21 129.11 C 367.68 142.97 368.01 157.48 361.21 170.02 C 354.59 178.00 342.80 181.15 333.71 175.09 L 332.98 175.32 C 324.12 169.05 316.11 161.46 311.50 151.46 C 310.17 147.83 306.33 149.49 303.79 150.70 C 257.73 172.33 215.71 204.90 187.94 247.95 C 161.56 287.26 150.59 338.24 164.88 383.98 C 169.94 403.95 181.18 422.00 194.91 437.18 C 200.57 429.64 207.27 422.90 215.08 417.58 L 214.31 417.42 C 245.17 397.29 283.94 386.41 306.15 355.16 C 295.49 391.33 259.03 409.51 231.54 431.54 C 219.00 441.21 205.05 454.55 206.39 471.78 C 226.77 446.70 257.82 432.56 287.95 422.90 C 264.41 443.80 234.37 460.04 221.07 490.05 C 215.48 500.96 220.67 516.12 228.88 522.74 C 239.14 475.56 283.37 446.08 323.98 425.95 C 297.24 453.58 267.86 480.96 253.74 517.71 C 244.08 538.80 244.17 564.04 252.97 585.36 C 263.90 518.53 326.12 477.91 354.17 419.18 C 367.05 396.72 369.39 369.86 365.26 344.62 C 378.45 381.64 366.80 421.57 350.84 455.78 C 342.58 470.65 334.35 485.56 325.13 499.87 C 369.62 507.05 415.38 508.95 460.01 501.98 C 504.17 497.27 548.82 484.42 585.16 458.11 C 564.91 462.04 544.51 466.12 523.85 466.81 C 525.99 458.38 529.83 450.50 532.07 442.10 C 537.03 430.46 540.98 418.43 545.76 406.73 C 524.45 424.91 493.58 432.82 466.74 423.18 C 420.68 409.50 393.88 359.80 393.92 313.87 C 390.53 270.03 413.02 226.76 447.17 200.17 C 461.81 187.08 480.41 180.02 497.08 170.09 C 510.47 165.39 524.06 160.89 537.45 156.20 C 533.05 150.56 528.12 145.14 521.07 142.91 C 498.09 132.99 473.51 125.51 448.44 124.20 M 444.44 234.87 C 408.29 270.21 405.59 332.04 434.07 372.92 C 449.36 396.46 480.89 413.09 508.36 402.11 C 532.41 397.21 547.71 374.72 559.23 354.78 C 564.39 361.29 568.12 368.79 573.13 375.41 C 585.57 392.41 609.91 404.42 630.00 393.20 C 662.99 377.15 675.44 335.56 673.05 301.20 C 671.64 268.90 655.86 231.89 623.04 220.73 C 592.98 213.59 571.61 240.04 558.92 263.15 C 548.49 247.61 538.53 230.51 520.84 222.16 C 496.62 207.14 462.91 214.00 444.44 234.87 M 567.26 408.99 C 563.31 419.54 558.98 429.99 555.88 440.83 C 579.84 438.54 603.65 434.32 627.37 430.24 C 607.17 423.63 587.72 414.79 567.26 408.99 M 327.41 521.25 C 326.16 527.26 333.41 519.90 327.41 521.25 M 351.12 524.93 C 343.88 544.18 345.28 566.47 352.97 585.36 C 355.53 563.64 365.69 543.84 377.74 525.93 C 368.85 525.77 359.98 525.61 351.12 524.93 Z" />
<path fill="#f9e79d" opacity="1.00" d=" M 448.44 124.20 C 473.51 125.51 498.09 132.99 521.07 142.91 C 528.12 145.14 533.05 150.56 537.45 156.20 C 524.06 160.89 510.47 165.39 497.08 170.09 C 475.66 166.93 454.25 162.43 432.45 164.04 C 441.64 152.63 447.50 138.91 448.44 124.20 Z" />
<path fill="#f9e79d" opacity="1.00" d=" M 366.21 129.11 C 373.48 128.33 380.73 127.35 387.93 126.06 C 390.13 139.86 394.76 153.87 405.14 163.71 L 404.26 163.77 C 389.83 164.97 375.29 166.53 361.21 170.02 C 368.01 157.48 367.68 142.97 366.21 129.11 Z" />
<path fill="#f9e79d" opacity="1.00" d=" M 303.79 150.70 C 306.33 149.49 310.17 147.83 311.50 151.46 C 316.11 161.46 324.12 169.05 332.98 175.32 C 280.63 189.90 229.77 212.76 187.94 247.95 C 215.71 204.90 257.73 172.33 303.79 150.70 Z" />
<path fill="#ffcc00" opacity="1.00" d=" M 361.21 170.02 C 375.29 166.53 389.83 164.97 404.26 163.77 C 412.84 169.29 423.78 169.35 432.45 164.04 C 454.25 162.43 475.66 166.93 497.08 170.09 C 480.41 180.02 461.81 187.08 447.17 200.17 C 413.02 226.76 390.53 270.03 393.92 313.87 C 393.88 359.80 420.68 409.50 466.74 423.18 C 493.58 432.82 524.45 424.91 545.76 406.73 C 540.98 418.43 537.03 430.46 532.07 442.10 C 510.47 447.88 488.43 451.94 466.21 454.35 C 440.15 457.24 416.13 443.13 390.27 443.30 C 376.18 444.25 364.96 454.72 350.84 455.78 C 366.80 421.57 378.45 381.64 365.26 344.62 C 369.39 369.86 367.05 396.72 354.17 419.18 C 326.12 477.91 263.90 518.53 252.97 585.36 C 244.17 564.04 244.08 538.80 253.74 517.71 C 267.86 480.96 297.24 453.58 323.98 425.95 C 283.37 446.08 239.14 475.56 228.88 522.74 C 220.67 516.12 215.48 500.96 221.07 490.05 C 234.37 460.04 264.41 443.80 287.95 422.90 C 257.82 432.56 226.77 446.70 206.39 471.78 C 205.05 454.55 219.00 441.21 231.54 431.54 C 259.03 409.51 295.49 391.33 306.15 355.16 C 283.94 386.41 245.17 397.29 214.31 417.42 C 194.71 412.31 180.25 396.33 164.88 383.98 C 150.59 338.24 161.56 287.26 187.94 247.95 C 229.77 212.76 280.63 189.90 332.98 175.32 L 333.71 175.09 C 342.80 181.15 354.59 178.00 361.21 170.02 Z" />
<path fill="#ffffff" opacity="1.00" d=" M 444.44 234.87 C 462.91 214.00 496.62 207.14 520.84 222.16 C 538.53 230.51 548.49 247.61 558.92 263.15 C 571.61 240.04 592.98 213.59 623.04 220.73 C 655.86 231.89 671.64 268.90 673.05 301.20 C 675.44 335.56 662.99 377.15 630.00 393.20 C 610.71 391.49 595.84 376.83 585.11 361.83 C 581.40 366.59 577.98 371.71 573.13 375.41 C 568.12 368.79 564.39 361.29 559.23 354.78 C 547.71 374.72 532.41 397.21 508.36 402.11 C 473.69 397.95 446.43 368.96 436.34 336.66 C 424.64 303.27 429.35 266.35 444.44 234.87 M 522.97 282.59 C 505.97 297.13 507.90 325.30 520.18 342.22 C 537.79 353.21 548.37 327.23 545.78 313.32 C 541.52 311.85 535.19 313.77 531.91 310.43 C 535.57 306.07 539.78 302.13 542.87 297.31 C 543.04 287.82 532.69 276.43 522.97 282.59 M 634.57 335.58 C 647.15 351.02 657.24 323.57 654.89 312.21 C 651.08 311.35 640.21 311.90 646.74 306.65 C 656.94 300.32 651.15 289.49 644.51 283.53 C 623.78 288.64 625.97 320.58 634.57 335.58 Z" />
<path fill="#d0d2d3" opacity="1.00" d=" M 434.07 372.92 C 405.59 332.04 408.29 270.21 444.44 234.87 C 429.35 266.35 424.64 303.27 436.34 336.66 C 446.43 368.96 473.69 397.95 508.36 402.11 C 480.89 413.09 449.36 396.46 434.07 372.92 Z" />
<path fill="#000000" opacity="1.00" d=" M 522.97 282.59 C 532.69 276.43 543.04 287.82 542.87 297.31 C 539.78 302.13 535.57 306.07 531.91 310.43 C 535.19 313.77 541.52 311.85 545.78 313.32 C 548.37 327.23 537.79 353.21 520.18 342.22 C 507.90 325.30 505.97 297.13 522.97 282.59 Z" />
<path fill="#000000" opacity="1.00" d=" M 634.57 335.58 C 625.97 320.58 623.78 288.64 644.51 283.53 C 651.15 289.49 656.94 300.32 646.74 306.65 C 640.21 311.90 651.08 311.35 654.89 312.21 C 657.24 323.57 647.15 351.02 634.57 335.58 Z" />
<path fill="#d0d2d3" opacity="1.00" d=" M 573.13 375.41 C 577.98 371.71 581.40 366.59 585.11 361.83 C 595.84 376.83 610.71 391.49 630.00 393.20 C 609.91 404.42 585.57 392.41 573.13 375.41 Z" />
<path fill="#ff9900" opacity="1.00" d=" M 164.88 383.98 C 180.25 396.33 194.71 412.31 214.31 417.42 L 215.08 417.58 C 207.27 422.90 200.57 429.64 194.91 437.18 C 181.18 422.00 169.94 403.95 164.88 383.98 Z" />
<path fill="#f05a28" opacity="1.00" d=" M 567.26 408.99 C 587.72 414.79 607.17 423.63 627.37 430.24 C 603.65 434.32 579.84 438.54 555.88 440.83 C 558.98 429.99 563.31 419.54 567.26 408.99 Z" />
<path fill="#ff9900" opacity="1.00" d=" M 466.21 454.35 C 488.43 451.94 510.47 447.88 532.07 442.10 C 529.83 450.50 525.99 458.38 523.85 466.81 C 544.51 466.12 564.91 462.04 585.16 458.11 C 548.82 484.42 504.17 497.27 460.01 501.98 C 415.38 508.95 369.62 507.05 325.13 499.87 C 334.35 485.56 342.58 470.65 350.84 455.78 C 364.96 454.72 376.18 444.25 390.27 443.30 C 416.13 443.13 440.15 457.24 466.21 454.35 Z" />
<path fill="#7c6400" opacity="1.00" d=" M 327.41 521.25 C 333.41 519.90 326.16 527.26 327.41 521.25 Z" />
<path fill="#ffcc00" opacity="1.00" d=" M 351.12 524.93 C 359.98 525.61 368.85 525.77 377.74 525.93 C 365.69 543.84 355.53 563.64 352.97 585.36 C 345.28 566.47 343.88 544.18 351.12 524.93 Z" />
</svg>
