<?xml version="1.0" encoding="UTF-8" ?>
<!DOCTYPE svg PUBLIC "-//W3C//DTD SVG 1.1//EN" "http://www.w3.org/Graphics/SVG/1.1/DTD/svg11.dtd">
<svg width="712pt" height="637pt" viewBox="0 0 712 637" version="1.1" xmlns="http://www.w3.org/2000/svg">
<path fill="#000000" opacity="1.00" d=" M 233.24 139.16 C 293.84 59.81 393.11 21.41 489.08 7.21 C 512.47 8.19 535.95 8.15 559.35 9.24 C 563.91 10.71 568.38 15.09 567.01 20.40 C 567.10 59.21 566.84 98.03 567.09 136.84 C 587.02 149.63 602.36 168.00 616.70 186.49 C 651.74 191.84 675.81 224.12 684.30 256.73 C 698.34 303.01 687.15 358.51 650.48 391.53 C 647.98 395.28 646.80 399.72 644.88 403.77 C 664.72 411.79 684.89 418.95 705.00 426.25 C 676.96 431.30 648.75 435.60 620.50 439.28 C 566.24 494.78 485.37 513.03 410.35 514.33 C 368.61 516.52 326.89 511.58 286.25 502.13 C 262.13 510.71 239.13 522.81 215.27 531.90 C 210.79 523.67 207.75 514.70 204.11 506.09 C 217.79 500.02 232.74 494.42 245.66 487.91 C 235.89 482.61 223.25 477.42 212.99 470.99 C 189.68 479.63 167.57 491.69 144.20 499.77 C 139.39 492.54 136.52 482.73 132.97 474.32 C 150.59 466.69 169.09 459.68 185.86 451.02 C 158.84 427.68 142.18 394.76 134.56 360.39 C 122.24 364.55 110.24 373.06 98.16 379.19 C 107.51 364.64 118.69 351.23 127.23 336.18 C 94.76 348.65 63.48 363.99 31.25 377.01 C 22.17 352.49 13.06 327.93 5.05 303.04 C 42.94 298.90 80.71 292.70 118.43 287.87 C 82.72 277.79 46.55 269.19 10.91 258.84 C 14.32 251.03 17.60 243.13 21.42 235.51 C 26.99 230.32 35.43 231.40 41.94 227.90 C 40.27 220.78 29.47 214.98 35.13 207.19 C 40.90 197.79 43.65 186.79 49.86 177.69 C 83.43 202.19 116.37 227.53 149.89 252.09 C 159.63 236.55 161.50 217.22 174.83 203.80 C 164.36 174.86 166.71 137.71 192.85 117.79 C 196.45 125.69 199.25 133.99 204.22 141.18 C 209.29 132.59 214.34 123.45 222.86 117.79 C 226.20 124.97 228.54 132.68 233.24 139.16 M 501.07 29.14 C 501.12 64.10 505.43 98.96 505.14 134.01 C 518.84 132.94 532.18 129.10 546.02 129.00 C 545.97 95.99 546.04 62.98 545.97 29.98 C 544.36 30.11 541.15 30.38 539.54 30.52 C 538.49 35.77 537.16 40.96 535.78 46.13 C 533.32 40.77 532.54 34.91 531.81 29.12 C 527.34 29.01 522.84 29.17 518.38 29.25 C 516.59 36.60 515.34 44.10 513.16 51.35 C 510.54 44.15 509.87 36.43 507.86 29.07 C 506.16 29.09 502.77 29.12 501.07 29.14 M 395.20 52.12 C 389.71 58.63 390.03 68.44 386.24 76.08 C 382.96 70.80 382.02 62.42 377.03 59.23 C 329.35 78.29 284.39 107.80 253.10 149.10 C 305.91 132.04 361.05 118.90 416.88 121.27 C 420.40 116.47 420.68 108.00 423.92 104.26 C 427.00 108.61 427.90 115.48 430.33 120.75 C 436.50 121.51 442.69 122.21 448.88 122.85 C 452.22 115.98 454.44 107.25 457.96 101.38 C 461.94 108.51 464.35 118.30 467.48 126.54 C 473.03 127.88 478.56 129.37 484.05 130.96 C 482.89 97.28 480.49 63.75 479.93 30.04 C 451.16 34.82 422.36 41.44 395.20 52.12 M 236.56 177.37 C 237.69 182.67 246.31 185.62 249.07 191.09 L 249.73 190.76 C 280.15 218.40 313.49 243.86 336.63 278.37 C 351.04 299.89 359.04 325.46 359.82 351.32 C 353.04 314.48 328.99 281.92 301.00 257.00 C 263.90 220.64 212.87 196.16 188.34 148.63 C 182.42 168.42 187.18 189.40 196.88 207.10 C 214.28 237.54 240.57 261.72 268.07 282.94 C 233.19 273.83 201.97 251.46 181.75 221.64 C 164.96 240.23 184.40 263.52 200.96 274.04 C 228.50 294.15 259.99 307.98 291.52 320.54 C 256.61 318.67 220.72 309.74 192.08 288.91 C 190.45 309.11 199.27 330.25 216.55 341.43 C 241.08 357.87 271.73 360.04 300.37 361.66 C 268.01 364.35 231.52 366.42 202.72 348.29 C 178.20 331.29 172.91 299.20 175.79 271.44 C 173.31 268.59 170.96 265.60 168.59 262.67 C 152.19 296.38 149.14 336.06 160.07 371.88 C 179.33 441.62 253.58 475.97 319.60 487.46 C 406.86 499.99 504.62 496.93 580.28 446.31 C 559.87 448.56 539.61 455.18 519.00 454.21 C 525.15 434.23 533.47 414.92 540.11 395.07 C 532.09 402.13 522.15 405.93 513.03 411.02 C 448.38 432.72 388.75 368.65 388.93 306.92 C 384.27 261.97 405.55 215.31 443.64 190.90 C 478.83 171.96 525.85 179.70 551.43 211.01 C 558.73 214.19 564.64 198.84 571.84 196.05 C 573.54 195.29 575.28 194.60 577.01 193.88 C 581.50 191.51 586.22 189.61 591.02 187.97 C 579.58 173.69 565.65 161.70 551.15 150.66 C 526.25 149.92 499.64 162.48 475.85 150.04 C 395.88 129.63 312.50 150.55 236.56 177.37 M 218.17 148.77 C 217.24 153.07 215.40 158.70 220.02 161.42 C 222.74 157.45 222.29 151.61 218.17 148.77 M 441.01 221.06 C 397.64 260.92 399.56 339.25 444.34 377.66 C 460.69 390.68 483.46 397.56 503.79 390.39 L 502.97 390.20 C 526.96 384.76 542.88 363.14 554.23 342.82 C 559.74 349.32 563.01 357.45 569.19 363.45 C 579.72 380.35 605.10 391.60 624.59 381.56 L 623.77 381.37 C 650.34 370.86 662.73 340.77 667.37 314.36 C 671.98 275.21 660.66 224.96 619.87 209.02 C 589.00 200.23 566.99 227.33 554.04 251.13 C 541.17 228.17 521.73 206.80 494.60 202.06 C 475.09 199.44 454.42 206.88 441.01 221.06 M 562.18 396.04 C 558.56 407.21 554.07 418.09 550.19 429.18 C 574.25 425.97 598.27 422.18 622.21 418.15 C 602.15 410.91 582.24 403.26 562.18 396.04 Z" />
<path fill="#d6c2ad" opacity="1.00" d=" M 501.07 29.14 C 502.77 29.12 506.16 29.09 507.86 29.07 C 509.87 36.43 510.54 44.15 513.16 51.35 C 515.34 44.10 516.59 36.60 518.38 29.25 C 522.84 29.17 527.34 29.01 531.81 29.12 C 532.54 34.91 533.32 40.77 535.78 46.13 C 537.16 40.96 538.49 35.77 539.54 30.52 C 541.15 30.38 544.36 30.11 545.97 29.98 C 546.04 62.98 545.97 95.99 546.02 129.00 C 532.18 129.10 518.84 132.94 505.14 134.01 C 505.43 98.96 501.12 64.10 501.07 29.14 Z" />
<path fill="#b29c88" opacity="1.00" d=" M 395.20 52.12 C 422.36 41.44 451.16 34.82 479.93 30.04 C 480.49 63.75 482.89 97.28 484.05 130.96 C 478.56 129.37 473.03 127.88 467.48 126.54 C 464.35 118.30 461.94 108.51 457.96 101.38 C 454.44 107.25 452.22 115.98 448.88 122.85 C 442.69 122.21 436.50 121.51 430.33 120.75 C 427.90 115.48 427.00 108.61 423.92 104.26 C 420.68 108.00 420.40 116.47 416.88 121.27 C 361.05 118.90 305.91 132.04 253.10 149.10 C 284.39 107.80 329.35 78.29 377.03 59.23 C 382.02 62.42 382.96 70.80 386.24 76.08 C 390.03 68.44 389.71 58.63 395.20 52.12 Z" />
<path fill="#f5e0cd" opacity="1.00" d=" M 236.56 177.37 C 312.50 150.55 395.88 129.63 475.85 150.04 C 499.64 162.48 526.25 149.92 551.15 150.66 C 565.65 161.70 579.58 173.69 591.02 187.97 C 586.22 189.61 581.50 191.51 577.01 193.88 C 524.71 167.39 464.76 162.89 407.28 157.69 C 353.06 154.01 298.18 166.43 249.73 190.76 L 249.07 191.09 C 246.31 185.62 237.69 182.67 236.56 177.37 Z" />
<path fill="#ecc19c" opacity="1.00" d=" M 188.34 148.63 C 212.87 196.16 263.90 220.64 301.00 257.00 C 328.99 281.92 353.04 314.48 359.82 351.32 C 359.04 325.46 351.04 299.89 336.63 278.37 C 313.49 243.86 280.15 218.40 249.73 190.76 C 298.18 166.43 353.06 154.01 407.28 157.69 C 464.76 162.89 524.71 167.39 577.01 193.88 C 575.28 194.60 573.54 195.29 571.84 196.05 C 563.97 199.39 556.42 203.90 551.43 211.01 C 525.85 179.70 478.83 171.96 443.64 190.90 C 416.81 201.46 399.86 227.26 390.37 253.38 C 376.29 295.12 378.55 343.18 399.90 382.10 C 418.53 423.78 477.77 445.81 513.03 411.02 C 522.15 405.93 532.09 402.13 540.11 395.07 C 533.47 414.92 525.15 434.23 519.00 454.21 C 503.09 458.86 486.80 462.81 470.22 463.81 C 441.56 459.46 419.45 437.17 391.18 431.62 C 373.67 427.84 360.56 445.19 343.24 442.86 C 325.47 442.43 312.27 427.83 295.23 424.56 C 284.83 421.35 276.45 432.93 265.98 429.46 C 254.82 423.10 248.15 411.43 237.80 404.09 C 226.90 395.88 213.48 409.51 202.10 403.08 C 186.50 395.08 173.19 383.35 160.07 371.88 C 149.14 336.06 152.19 296.38 168.59 262.67 C 170.96 265.60 173.31 268.59 175.79 271.44 C 172.91 299.20 178.20 331.29 202.72 348.29 C 231.52 366.42 268.01 364.35 300.37 361.66 C 271.73 360.04 241.08 357.87 216.55 341.43 C 199.27 330.25 190.45 309.11 192.08 288.91 C 220.72 309.74 256.61 318.67 291.52 320.54 C 259.99 307.98 228.50 294.15 200.96 274.04 C 184.40 263.52 164.96 240.23 181.75 221.64 C 201.97 251.46 233.19 273.83 268.07 282.94 C 240.57 261.72 214.28 237.54 196.88 207.10 C 187.18 189.40 182.42 168.42 188.34 148.63 M 350.15 383.48 C 352.64 403.49 384.82 391.02 391.23 378.32 C 377.83 377.98 361.08 373.53 350.15 383.48 M 363.91 420.44 C 371.75 424.87 382.36 426.11 390.18 421.11 C 398.57 413.83 400.38 402.34 400.86 391.87 C 388.54 399.76 366.09 403.56 363.91 420.44 Z" />
<path fill="#ecc19c" opacity="1.00" d=" M 218.17 148.77 C 222.29 151.61 222.74 157.45 220.02 161.42 C 215.40 158.70 217.24 153.07 218.17 148.77 Z" />
<path fill="#cf9e76" opacity="1.00" d=" M 390.37 253.38 C 399.86 227.26 416.81 201.46 443.64 190.90 C 405.55 215.31 384.27 261.97 388.93 306.92 C 388.75 368.65 448.38 432.72 513.03 411.02 C 477.77 445.81 418.53 423.78 399.90 382.10 C 378.55 343.18 376.29 295.12 390.37 253.38 Z" />
<path fill="#d09f77" opacity="1.00" d=" M 551.43 211.01 C 556.42 203.90 563.97 199.39 571.84 196.05 C 564.64 198.84 558.73 214.19 551.43 211.01 Z" />
<path fill="#ffffff" opacity="1.00" d=" M 441.01 221.06 C 454.42 206.88 475.09 199.44 494.60 202.06 C 521.73 206.80 541.17 228.17 554.04 251.13 C 566.99 227.33 589.00 200.23 619.87 209.02 C 660.66 224.96 671.98 275.21 667.37 314.36 C 662.73 340.77 650.34 370.86 623.77 381.37 C 605.60 378.03 591.44 364.75 580.65 350.52 C 575.40 351.73 573.07 359.41 569.19 363.45 C 563.01 357.45 559.74 349.32 554.23 342.82 C 542.88 363.14 526.96 384.76 502.97 390.20 C 456.74 383.29 426.93 336.82 425.23 292.55 C 422.50 267.64 429.80 243.05 441.01 221.06 M 513.42 274.33 C 502.79 291.26 501.94 318.30 518.38 331.86 C 535.46 336.78 541.93 314.41 540.97 301.34 C 536.22 300.62 531.48 299.84 526.76 298.99 C 530.48 294.17 534.79 289.81 538.03 284.63 C 538.16 272.69 521.40 262.12 513.42 274.33 M 628.04 279.08 C 621.64 294.29 620.46 315.87 633.61 327.82 C 647.65 329.64 649.80 310.67 650.09 300.47 C 646.27 299.87 642.45 299.27 638.65 298.69 C 643.08 292.32 651.71 285.19 644.88 277.27 C 642.07 269.20 629.74 270.80 628.04 279.08 Z" />
<path fill="#d0d2d3" opacity="1.00" d=" M 444.34 377.66 C 399.56 339.25 397.64 260.92 441.01 221.06 C 429.80 243.05 422.50 267.64 425.23 292.55 C 426.93 336.82 456.74 383.29 502.97 390.20 L 503.79 390.39 C 483.46 397.56 460.69 390.68 444.34 377.66 Z" />
<path fill="#000000" opacity="1.00" d=" M 513.42 274.33 C 521.40 262.12 538.16 272.69 538.03 284.63 C 534.79 289.81 530.48 294.17 526.76 298.99 C 531.48 299.84 536.22 300.62 540.97 301.34 C 541.93 314.41 535.46 336.78 518.38 331.86 C 501.94 318.30 502.79 291.26 513.42 274.33 Z" />
<path fill="#000000" opacity="1.00" d=" M 628.04 279.08 C 629.74 270.80 642.07 269.20 644.88 277.27 C 651.71 285.19 643.08 292.32 638.65 298.69 C 642.45 299.27 646.27 299.87 650.09 300.47 C 649.80 310.67 647.65 329.64 633.61 327.82 C 620.46 315.87 621.64 294.29 628.04 279.08 Z" />
<path fill="#d0d2d3" opacity="1.00" d=" M 569.19 363.45 C 573.07 359.41 575.40 351.73 580.65 350.52 C 591.44 364.75 605.60 378.03 623.77 381.37 L 624.59 381.56 C 605.10 391.60 579.72 380.35 569.19 363.45 Z" />
<path fill="#cf9e76" opacity="1.00" d=" M 160.07 371.88 C 173.19 383.35 186.50 395.08 202.10 403.08 C 213.48 409.51 226.90 395.88 237.80 404.09 C 248.15 411.43 254.82 423.10 265.98 429.46 C 276.45 432.93 284.83 421.35 295.23 424.56 C 312.27 427.83 325.47 442.43 343.24 442.86 C 360.56 445.19 373.67 427.84 391.18 431.62 C 419.45 437.17 441.56 459.46 470.22 463.81 C 486.80 462.81 503.09 458.86 519.00 454.21 C 539.61 455.18 559.87 448.56 580.28 446.31 C 504.62 496.93 406.86 499.99 319.60 487.46 C 253.58 475.97 179.33 441.62 160.07 371.88 Z" />
<path fill="#000000" opacity="1.00" d=" M 350.15 383.48 C 361.08 373.53 377.83 377.98 391.23 378.32 C 384.82 391.02 352.64 403.49 350.15 383.48 Z" />
<path fill="#000000" opacity="1.00" d=" M 363.91 420.44 C 366.09 403.56 388.54 399.76 400.86 391.87 C 400.38 402.34 398.57 413.83 390.18 421.11 C 382.36 426.11 371.75 424.87 363.91 420.44 Z" />
<path fill="#f05a28" opacity="1.00" d=" M 562.18 396.04 C 582.24 403.26 602.15 410.91 622.21 418.15 C 598.27 422.18 574.25 425.97 550.19 429.18 C 554.07 418.09 558.56 407.21 562.18 396.04 Z" />
</svg>
