<?xml version="1.0" encoding="UTF-8" ?>
<!DOCTYPE svg PUBLIC "-//W3C//DTD SVG 1.1//EN" "http://www.w3.org/Graphics/SVG/1.1/DTD/svg11.dtd">
<svg width="735pt" height="801pt" viewBox="0 0 735 801" version="1.1" xmlns="http://www.w3.org/2000/svg">
<path fill="#f6921e" opacity="1.00" d=" M 504.64 47.75 C 511.33 34.61 517.11 20.13 525.03 8.25 C 532.44 20.12 537.36 35.59 545.37 47.93 C 560.26 49.29 575.09 53.13 590.14 54.35 C 579.94 65.20 568.66 75.08 558.60 86.05 C 557.68 101.20 563.64 115.99 564.98 131.04 C 551.53 124.23 538.20 117.20 524.98 109.96 C 511.45 116.56 498.62 124.73 484.90 130.79 C 485.82 115.76 490.74 101.23 491.90 86.16 C 482.09 75.19 468.46 65.40 460.28 54.08 C 475.14 52.43 489.95 50.60 504.64 47.75 Z" />
<path fill="#f6921e" opacity="1.00" d=" M 359.06 51.17 C 363.53 42.30 366.87 31.72 373.10 24.29 C 378.98 31.95 381.03 44.46 387.94 52.40 C 398.33 54.26 409.02 53.89 419.33 56.34 C 411.77 64.15 403.59 71.31 396.14 79.22 C 397.42 89.57 399.64 99.78 400.84 110.15 C 391.09 106.48 382.23 100.72 372.98 95.97 C 363.66 100.66 354.80 106.25 345.03 110.00 C 344.97 99.32 349.58 89.25 349.02 78.50 C 342.19 70.55 333.04 64.88 326.76 56.48 C 337.60 55.37 348.58 54.15 359.06 51.17 Z" />
<path fill="#f6921e" opacity="1.00" d=" M 679.06 141.24 C 682.70 133.29 685.76 125.02 690.81 117.79 C 694.91 125.88 698.88 134.03 703.34 141.93 C 712.00 142.35 720.71 142.97 729.17 145.06 C 723.48 151.98 715.54 157.12 711.03 164.87 C 710.68 173.33 713.33 181.49 714.21 189.84 C 705.96 186.96 698.82 181.70 690.89 178.25 C 682.36 181.05 675.18 187.35 666.85 190.88 C 667.46 182.01 671.27 173.53 670.90 164.59 C 666.26 157.21 658.97 151.91 652.93 145.71 C 661.64 144.20 670.40 142.94 679.06 141.24 Z" />
<path fill="#f6921e" opacity="1.00" d=" M 184.41 128.73 C 189.17 135.39 192.87 142.84 195.36 150.64 C 203.61 151.98 212.04 152.05 220.20 154.04 C 216.17 158.37 212.00 162.56 207.73 166.65 C 198.49 173.57 205.95 185.83 205.87 195.14 C 198.00 192.94 192.05 185.05 183.58 185.63 C 176.38 188.36 169.74 192.43 162.90 195.95 C 164.56 187.74 165.99 179.48 166.89 171.15 C 161.17 165.77 155.73 160.11 150.03 154.72 C 157.93 153.48 165.79 151.98 173.69 150.73 C 177.64 143.58 181.00 136.14 184.41 128.73 Z" />
<path fill="#000000" opacity="1.00" d=" M 301.31 165.85 C 387.57 125.16 492.22 123.25 578.19 165.79 C 596.59 176.21 615.81 187.04 629.60 203.28 C 625.57 202.81 621.56 202.32 617.56 201.81 C 615.37 197.78 613.15 193.78 610.88 189.80 C 608.31 198.48 601.94 203.70 592.58 203.10 C 592.85 208.27 601.65 210.88 600.16 217.35 C 560.34 184.04 507.99 168.58 456.78 166.33 C 454.52 161.67 452.16 157.05 449.48 152.61 C 447.68 156.79 446.00 161.03 443.99 165.12 C 406.87 164.70 369.64 171.64 335.06 185.13 C 320.83 183.93 303.52 183.83 301.31 165.85 Z" />
<path fill="#f6921e" opacity="1.00" d=" M 449.48 152.61 C 452.16 157.05 454.52 161.67 456.78 166.33 C 460.10 174.16 463.79 181.82 467.59 189.42 C 478.26 191.26 488.98 192.87 499.79 193.74 C 502.59 194.28 505.46 194.90 508.27 195.52 C 504.69 199.00 501.16 202.53 497.63 206.07 C 492.01 212.34 484.53 216.88 479.43 223.56 C 479.34 232.98 482.29 242.17 483.63 251.45 C 484.24 255.28 484.58 259.14 484.96 263.01 C 475.38 258.68 466.30 253.34 456.72 249.03 C 454.42 247.65 452.20 246.17 449.96 244.73 C 448.34 245.82 446.72 246.92 445.05 247.93 C 434.40 252.76 424.16 258.43 413.80 263.82 C 414.98 257.94 416.23 252.07 417.13 246.14 C 418.26 238.73 419.34 231.32 420.69 223.96 C 411.01 214.47 401.20 205.11 391.98 195.17 C 405.46 193.26 419.02 191.83 432.44 189.40 C 435.90 181.12 440.01 173.15 443.99 165.12 C 446.00 161.03 447.68 156.79 449.48 152.61 Z" />
<path fill="#f6921e" opacity="1.00" d=" M 287.94 174.89 C 291.40 168.76 297.24 148.67 301.31 165.85 C 303.52 183.83 320.83 183.93 335.06 185.13 C 319.25 195.79 313.48 212.07 319.89 230.12 C 312.13 226.31 304.47 222.31 296.96 218.05 C 289.41 221.80 282.08 225.97 274.74 230.12 C 274.34 230.22 273.53 230.43 273.13 230.54 C 273.14 229.14 273.15 226.33 273.16 224.93 C 278.59 212.29 277.94 198.30 264.23 191.50 C 262.02 189.43 259.89 187.28 257.79 185.10 C 262.83 184.22 267.89 183.44 272.99 183.03 C 276.86 182.64 280.74 182.24 284.61 181.84 C 285.71 179.51 286.80 177.19 287.94 174.89 Z" />
<path fill="#cc0000" opacity="1.00" d=" M 335.06 185.13 C 369.64 171.64 406.87 164.70 443.99 165.12 C 440.01 173.15 435.90 181.12 432.44 189.40 C 419.02 191.83 405.46 193.26 391.98 195.17 C 401.20 205.11 411.01 214.47 420.69 223.96 C 419.34 231.32 418.26 238.73 417.13 246.14 C 369.62 241.26 322.00 237.10 274.74 230.12 C 282.08 225.97 289.41 221.80 296.96 218.05 C 304.47 222.31 312.13 226.31 319.89 230.12 C 313.48 212.07 319.25 195.79 335.06 185.13 Z" />
<path fill="#cc0000" opacity="1.00" d=" M 456.78 166.33 C 507.99 168.58 560.34 184.04 600.16 217.35 C 599.91 220.19 599.45 223.01 599.08 225.83 C 601.65 224.83 604.18 223.74 606.74 222.71 C 614.39 230.79 621.53 239.39 627.44 248.84 C 580.49 259.26 531.32 253.09 483.63 251.45 C 482.29 242.17 479.34 232.98 479.43 223.56 C 484.53 216.88 492.01 212.34 497.63 206.07 C 518.56 227.35 550.17 239.25 579.97 237.48 C 589.49 234.37 583.08 222.76 577.13 218.81 C 555.32 202.17 527.40 191.22 499.79 193.74 C 488.98 192.87 478.26 191.26 467.59 189.42 C 463.79 181.82 460.10 174.16 456.78 166.33 Z" />
<path fill="#000000" opacity="1.00" d=" M 272.99 183.03 C 278.10 180.55 282.80 177.31 287.94 174.89 C 286.80 177.19 285.71 179.51 284.61 181.84 C 280.74 182.24 276.86 182.64 272.99 183.03 Z" />
<path fill="#f6921e" opacity="1.00" d=" M 592.58 203.10 C 601.94 203.70 608.31 198.48 610.88 189.80 C 613.15 193.78 615.37 197.78 617.56 201.81 C 621.56 202.32 625.57 202.81 629.60 203.28 L 630.45 203.39 C 621.85 208.29 619.14 217.04 622.69 226.14 C 617.71 224.05 612.24 219.43 606.74 222.71 C 604.18 223.74 601.65 224.83 599.08 225.83 C 599.45 223.01 599.91 220.19 600.16 217.35 C 601.65 210.88 592.85 208.27 592.58 203.10 Z" />
<path fill="#000000" opacity="1.00" d=" M 212.29 268.98 C 220.10 238.32 239.33 210.74 264.23 191.50 C 277.94 198.30 278.59 212.29 273.16 224.93 C 260.33 237.42 248.12 253.51 244.83 270.72 C 376.70 281.78 508.97 300.90 641.40 292.59 C 640.51 277.10 635.80 261.93 627.44 248.84 C 621.53 239.39 614.39 230.79 606.74 222.71 C 612.24 219.43 617.71 224.05 622.69 226.14 C 619.14 217.04 621.85 208.29 630.45 203.39 C 653.27 225.46 668.39 255.05 672.43 286.60 C 688.30 288.92 701.82 300.02 706.65 315.37 C 714.72 343.45 709.78 375.52 691.84 398.85 C 690.54 400.64 688.25 402.77 690.03 405.03 C 717.61 451.76 715.03 516.04 680.63 558.61 C 672.93 565.28 666.02 572.90 663.15 582.93 C 683.67 590.05 703.88 598.03 724.37 605.27 C 695.95 610.06 667.30 614.01 638.83 618.46 C 603.48 655.11 554.46 675.34 505.34 685.37 C 438.95 698.26 370.03 695.66 304.16 681.11 C 280.42 690.20 257.13 701.49 233.41 711.01 C 230.82 702.03 226.29 693.81 222.76 685.20 C 236.40 678.74 250.68 673.74 264.09 666.81 C 253.09 661.15 242.00 655.36 230.92 650.11 C 207.85 658.92 185.59 670.35 162.42 679.00 C 159.60 670.16 153.94 662.46 151.91 653.36 C 169.51 645.28 187.49 638.10 205.11 630.05 C 175.79 604.70 156.83 567.74 152.92 529.25 C 108.31 533.72 57.79 537.01 18.13 511.95 C 10.61 508.29 4.57 493.59 15.70 490.63 C 52.37 478.54 91.74 481.42 129.43 474.56 C 100.27 451.54 65.82 435.01 39.23 408.71 C 30.80 402.62 34.38 390.64 43.67 388.54 C 73.76 381.84 103.27 396.95 130.14 407.56 C 129.65 393.23 136.27 379.06 146.70 368.62 C 136.36 339.86 138.33 301.67 164.76 281.93 C 167.97 289.26 169.75 297.68 175.78 303.34 C 182.57 286.77 197.74 277.41 212.29 268.98 M 200.27 327.45 C 198.24 338.47 210.67 344.30 217.33 350.80 C 232.57 364.76 247.44 380.43 265.07 390.98 C 391.38 413.07 522.18 412.56 648.30 389.29 C 666.73 389.06 676.16 370.00 678.05 354.09 L 678.93 353.97 C 680.23 342.39 682.42 327.44 672.93 318.77 C 658.52 316.78 644.83 325.94 630.17 325.18 C 495.00 329.89 360.60 311.12 226.21 300.15 C 211.81 300.03 202.23 314.43 200.27 327.45 M 160.17 312.71 C 152.39 333.12 159.75 355.09 169.76 373.25 C 186.69 402.90 212.61 425.95 239.11 446.89 C 204.29 437.89 173.45 415.26 153.09 385.74 C 141.86 398.07 147.50 417.01 159.21 426.82 C 188.60 454.36 226.64 469.68 263.37 484.84 C 228.44 482.54 192.63 474.01 163.87 453.21 C 162.44 471.19 168.75 490.39 183.35 501.67 C 208.13 521.78 241.95 524.72 272.59 525.88 C 239.41 529.62 202.52 530.31 173.02 511.98 C 172.77 525.10 174.78 538.59 178.97 550.98 C 191.02 597.26 231.46 630.46 274.38 647.62 C 330.55 671.39 393.08 674.71 453.21 671.22 C 503.91 666.75 556.15 655.29 598.23 625.21 C 577.65 627.03 557.48 632.12 536.87 633.58 C 544.19 614.16 551.84 594.80 558.02 575.00 C 549.65 581.05 540.06 585.03 531.26 590.28 C 501.98 597.17 469.49 592.14 446.86 571.14 C 410.08 538.07 399.42 483.65 411.81 437.03 C 410.22 437.02 408.63 437.02 407.05 437.02 C 370.53 435.93 334.27 431.91 298.01 427.99 C 317.27 453.07 332.38 483.78 330.57 516.12 C 325.83 477.62 299.89 446.10 272.19 420.81 C 235.49 384.41 183.71 360.66 160.17 312.71 M 445.92 437.70 C 442.11 437.92 438.30 438.15 434.51 438.39 C 422.91 474.53 428.04 517.43 453.37 546.63 C 469.52 565.88 497.04 578.41 521.87 569.28 L 521.06 569.09 C 545.97 564.58 560.57 541.23 573.36 521.63 C 578.18 528.34 582.10 535.65 587.02 542.30 C 599.13 557.88 623.16 571.73 642.12 560.11 C 662.91 552.88 674.55 531.58 681.91 511.88 C 691.32 480.26 688.68 443.95 670.90 415.79 C 597.40 433.80 521.30 437.71 445.92 437.70 M 581.01 575.02 C 576.98 586.01 572.94 597.00 569.05 608.04 C 592.84 604.63 616.65 601.24 640.29 596.94 C 620.63 589.38 600.93 581.86 581.01 575.02 Z" />
<path fill="#ffffff" opacity="1.00" d=" M 499.79 193.74 C 527.40 191.22 555.32 202.17 577.13 218.81 C 583.08 222.76 589.49 234.37 579.97 237.48 C 550.17 239.25 518.56 227.35 497.63 206.07 C 501.16 202.53 504.69 199.00 508.27 195.52 C 505.46 194.90 502.59 194.28 499.79 193.74 Z" />
<path fill="#990000" opacity="1.00" d=" M 244.83 270.72 C 248.12 253.51 260.33 237.42 273.16 224.93 C 273.15 226.33 273.14 229.14 273.13 230.54 C 273.53 230.43 274.34 230.22 274.74 230.12 C 322.00 237.10 369.62 241.26 417.13 246.14 C 416.23 252.07 414.98 257.94 413.80 263.82 C 424.16 258.43 434.40 252.76 445.05 247.93 C 448.94 248.13 452.85 248.48 456.72 249.03 C 466.30 253.34 475.38 258.68 484.96 263.01 C 484.58 259.14 484.24 255.28 483.63 251.45 C 531.32 253.09 580.49 259.26 627.44 248.84 C 635.80 261.93 640.51 277.10 641.40 292.59 C 508.97 300.90 376.70 281.78 244.83 270.72 Z" />
<path fill="#cb0000" opacity="1.00" d=" M 445.05 247.93 C 446.72 246.92 448.34 245.82 449.96 244.73 C 452.20 246.17 454.42 247.65 456.72 249.03 C 452.85 248.48 448.94 248.13 445.05 247.93 Z" />
<path fill="#666666" opacity="1.00" d=" M 200.27 327.45 C 202.23 314.43 211.81 300.03 226.21 300.15 C 360.60 311.12 495.00 329.89 630.17 325.18 C 644.83 325.94 658.52 316.78 672.93 318.77 C 682.42 327.44 680.23 342.39 678.93 353.97 L 678.05 354.09 C 570.32 372.57 460.37 374.86 351.46 368.56 C 306.46 365.40 261.39 360.83 217.33 350.80 C 210.67 344.30 198.24 338.47 200.27 327.45 Z" />
<path fill="#99cc00" opacity="1.00" d=" M 160.17 312.71 C 183.71 360.66 235.49 384.41 272.19 420.81 C 299.89 446.10 325.83 477.62 330.57 516.12 C 332.38 483.78 317.27 453.07 298.01 427.99 C 334.27 431.91 370.53 435.93 407.05 437.02 C 392.55 488.88 400.04 551.71 441.55 589.45 C 465.72 612.23 506.92 613.50 531.26 590.28 C 540.06 585.03 549.65 581.05 558.02 575.00 C 551.84 594.80 544.19 614.16 536.87 633.58 C 520.56 637.20 504.29 642.51 487.42 642.54 C 460.02 636.93 438.24 616.93 411.11 610.53 C 392.40 606.45 378.70 624.24 360.30 622.06 C 343.90 619.57 331.03 607.56 315.10 603.74 C 305.11 600.62 297.12 608.96 287.46 608.79 C 273.53 604.17 267.18 588.88 254.84 581.80 C 244.33 576.37 233.06 586.73 222.29 582.90 C 206.37 574.47 192.47 562.79 178.97 550.98 C 174.78 538.59 172.77 525.10 173.02 511.98 C 202.52 530.31 239.41 529.62 272.59 525.88 C 241.95 524.72 208.13 521.78 183.35 501.67 C 168.75 490.39 162.44 471.19 163.87 453.21 C 192.63 474.01 228.44 482.54 263.37 484.84 C 226.64 469.68 188.60 454.36 159.21 426.82 C 147.50 417.01 141.86 398.07 153.09 385.74 C 173.45 415.26 204.29 437.89 239.11 446.89 C 212.61 425.95 186.69 402.90 169.76 373.25 C 159.75 355.09 152.39 333.12 160.17 312.71 M 369.25 560.76 C 369.13 583.12 402.63 570.14 410.34 557.33 C 396.90 555.69 381.22 553.05 369.25 560.76 M 381.25 598.52 C 400.94 613.48 422.79 591.92 419.83 570.84 C 405.82 577.64 388.00 583.42 381.25 598.52 Z" />
<path fill="#404041" opacity="1.00" d=" M 217.33 350.80 C 261.39 360.83 306.46 365.40 351.46 368.56 C 460.37 374.86 570.32 372.57 678.05 354.09 C 676.16 370.00 666.73 389.06 648.30 389.29 C 522.18 412.56 391.38 413.07 265.07 390.98 C 247.44 380.43 232.57 364.76 217.33 350.80 Z" />
<path fill="#ffffff" opacity="1.00" d=" M 445.92 437.70 C 521.30 437.71 597.40 433.80 670.90 415.79 C 688.68 443.95 691.32 480.26 681.91 511.88 C 674.55 531.58 662.91 552.88 642.12 560.11 C 623.79 556.46 609.23 543.06 598.90 528.10 C 595.06 532.93 591.17 537.73 587.02 542.30 C 582.10 535.65 578.18 528.34 573.36 521.63 C 560.57 541.23 545.97 564.58 521.06 569.09 C 494.35 564.66 472.06 546.50 458.73 523.46 C 469.44 519.95 477.57 512.03 485.98 504.94 C 494.85 512.02 503.32 522.71 515.73 522.83 C 514.88 510.51 504.77 502.37 497.94 493.07 C 504.43 483.93 514.86 476.02 515.74 464.06 C 503.41 463.85 495.13 474.50 485.92 481.08 C 476.79 474.06 468.08 464.50 455.98 463.19 C 457.04 475.44 466.63 484.11 474.06 492.95 C 468.02 500.80 460.73 508.01 456.74 517.23 C 442.36 493.91 442.01 463.99 445.92 437.70 M 613.25 441.13 C 613.42 453.15 623.58 461.81 630.95 470.20 C 623.99 479.23 613.85 487.52 613.07 499.73 C 625.14 499.77 633.33 489.64 642.15 482.96 C 652.18 488.15 659.29 500.41 671.81 499.80 C 672.28 487.31 660.46 479.93 655.00 470.07 C 661.30 461.10 672.24 453.29 671.80 441.27 C 659.37 440.80 651.53 452.63 642.20 458.93 C 633.71 451.56 625.28 441.53 613.25 441.13 Z" />
<path fill="#669900" opacity="1.00" d=" M 407.05 437.02 C 408.63 437.02 410.22 437.02 411.81 437.03 C 399.42 483.65 410.08 538.07 446.86 571.14 C 469.49 592.14 501.98 597.17 531.26 590.28 C 506.92 613.50 465.72 612.23 441.55 589.45 C 400.04 551.71 392.55 488.88 407.05 437.02 Z" />
<path fill="#d0d2d3" opacity="1.00" d=" M 434.51 438.39 C 438.30 438.15 442.11 437.92 445.92 437.70 C 442.01 463.99 442.36 493.91 456.74 517.23 C 456.55 518.71 456.44 520.20 456.34 521.70 C 457.14 522.27 457.94 522.85 458.73 523.46 C 472.06 546.50 494.35 564.66 521.06 569.09 L 521.87 569.28 C 497.04 578.41 469.52 565.88 453.37 546.63 C 428.04 517.43 422.91 474.53 434.51 438.39 Z" />
<path fill="#000000" opacity="1.00" d=" M 613.25 441.13 C 625.28 441.53 633.71 451.56 642.20 458.93 C 651.53 452.63 659.37 440.80 671.80 441.27 C 672.24 453.29 661.30 461.10 655.00 470.07 C 660.46 479.93 672.28 487.31 671.81 499.80 C 659.29 500.41 652.18 488.15 642.15 482.96 C 633.33 489.64 625.14 499.77 613.07 499.73 C 613.85 487.52 623.99 479.23 630.95 470.20 C 623.58 461.81 613.42 453.15 613.25 441.13 Z" />
<path fill="#000000" opacity="1.00" d=" M 455.98 463.19 C 468.08 464.50 476.79 474.06 485.92 481.08 C 495.13 474.50 503.41 463.85 515.74 464.06 C 514.86 476.02 504.43 483.93 497.94 493.07 C 504.77 502.37 514.88 510.51 515.73 522.83 C 503.32 522.71 494.85 512.02 485.98 504.94 C 477.57 512.03 469.44 519.95 458.73 523.46 C 457.94 522.85 457.14 522.27 456.34 521.70 C 456.44 520.20 456.55 518.71 456.74 517.23 C 460.73 508.01 468.02 500.80 474.06 492.95 C 466.63 484.11 457.04 475.44 455.98 463.19 Z" />
<path fill="#d0d2d3" opacity="1.00" d=" M 587.02 542.30 C 591.17 537.73 595.06 532.93 598.90 528.10 C 609.23 543.06 623.79 556.46 642.12 560.11 C 623.16 571.73 599.13 557.88 587.02 542.30 Z" />
<path fill="#669900" opacity="1.00" d=" M 178.97 550.98 C 192.47 562.79 206.37 574.47 222.29 582.90 C 233.06 586.73 244.33 576.37 254.84 581.80 C 267.18 588.88 273.53 604.17 287.46 608.79 C 297.12 608.96 305.11 600.62 315.10 603.74 C 331.03 607.56 343.90 619.57 360.30 622.06 C 378.70 624.24 392.40 606.45 411.11 610.53 C 438.24 616.93 460.02 636.93 487.42 642.54 C 504.29 642.51 520.56 637.20 536.87 633.58 C 557.48 632.12 577.65 627.03 598.23 625.21 C 556.15 655.29 503.91 666.75 453.21 671.22 C 393.08 674.71 330.55 671.39 274.38 647.62 C 231.46 630.46 191.02 597.26 178.97 550.98 Z" />
<path fill="#000000" opacity="1.00" d=" M 369.25 560.76 C 381.22 553.05 396.90 555.69 410.34 557.33 C 402.63 570.14 369.13 583.12 369.25 560.76 Z" />
<path fill="#000000" opacity="1.00" d=" M 381.25 598.52 C 388.00 583.42 405.82 577.64 419.83 570.84 C 422.79 591.92 400.94 613.48 381.25 598.52 Z" />
<path fill="#f05a28" opacity="1.00" d=" M 581.01 575.02 C 600.93 581.86 620.63 589.38 640.29 596.94 C 616.65 601.24 592.84 604.63 569.05 608.04 C 572.94 597.00 576.98 586.01 581.01 575.02 Z" />
</svg>
